<!-- This Source Code Form is subject to the terms of the Mozilla Public
   - License, v. 2.0. If a copy of the MPL was not distributed with this
   - file, You can obtain one at http://mozilla.org/MPL/2.0/. -->
<svg xmlns="http://www.w3.org/2000/svg" width="16" height="16"
		 viewBox="0 0 16 16" fill="context-fill"
		 fill-opacity="context-fill-opacity">
	<path
				d="M15,4.002V13c0,0.3-0.1,0.7-0.3,1c-0.5,0.9-1.8,1.2-2.7,0.7S10.7,13,11.3,12c0.5-0.9,1.7-1.3,2.7-0.7V5.002L15,4.002z
	 M14.714,2.701l-12,12c-0.008,0.008-0.016,0.017-0.025,0.025c-0.397,0.384-1.03,0.373-1.414-0.025
	c-0.298-0.308-0.351-0.754-0.178-1.12C1.04,13.396,1,13.203,1,13c0-1.1,0.9-2,2-2c0.192,0,0.358,0.026,0.515,0.072L4,10.587V2
	c0-0.6,0.4-1,1-1h9c0.296,0,0.529,0.109,0.699,0.283c0.005,0.002,0.01,0.002,0.015,0.004c0.013,0.013,0.017,0.03,0.028,0.043
	c0.047,0.056,0.088,0.116,0.122,0.184C15.077,1.894,15.037,2.377,14.714,2.701z M5,9.587L9.587,5H5V9.587z" />
</svg>
