<svg xmlns="http://www.w3.org/2000/svg" width="16" height="16" viewBox="0 0 16 16">
	<path fill="context-fill" fill-opacity="context-fill-opacity"
		d="M13.6 3.8H8l-.987-.987a1.404 1.404 0 00-.994-.413H2.4c-.77 0-1.4.63-1.4 1.4v8.4c0 .77.63 1.4 1.4 1.4h11.2c.77 0 1.4-.63 1.4-1.4v-7c0-.77-.63-1.4-1.4-1.4zm-2.142 7.287l-1.358-.791-1.358.791a.352.352 0 01-.518-.385l.357-1.54L7.398 8.14c-.231-.203-.112-.588.196-.616l1.561-.133.616-1.442a.352.352 0 01.644 0l.616 1.442 1.561.133a.35.35 0 01.196.616l-1.183 1.022.357 1.54a.343.343 0 01-.504.385z" />
</svg>