<svg xmlns="http://www.w3.org/2000/svg" viewBox="0 0 16 16" width="16" height="16" fill="context-fill"
	fill-opacity="context-fill-opacity">
	<path opacity=".6" d="M7.9,0.6L0.97,3.07l1.05,9.18l5.88,3.26l5.97-3.3l1.15-9.18L7.9,0.6z M7.995,12.755L3.457,9.189l0.81-0.648
	l3.727,2.917l3.727-2.917l0.81,0.648L7.995,12.755z M11.706,7.245l-3.711,2.917L4.268,7.245l-0.81-0.648l4.538-3.565l4.538,3.565
	L11.706,7.245z" />
	<polygon points="3.457,9.189 4.268,8.541 7.91,11.392 7.91,10.095 4.268,7.245 3.457,6.596 7.91,3.098 7.91,0.603 
	7.9,0.6 0.97,3.07 2.02,12.25 7.9,15.51 7.91,15.505 7.91,12.688 " />
</svg>