<svg xmlns="http://www.w3.org/2000/svg" viewBox="0 0 16 16" width="16" height="16" fill="context-fill"
	fill-opacity="context-fill-opacity">
	<path opacity=".6" d="M7.9,0.6L0.97,3.07l1.05,9.18l5.88,3.26l5.97-3.3l1.15-9.18L7.9,0.6z M10.91,11.96l-0.95-2.2H6.08l-0.87,2.17
	l-1.62,0.03l4.33-9.62l4.53,9.65L10.91,11.96z M6.64,8.48l1.285-3.049L9.4,8.48H6.64z" />
	<path d="M6.64,8.48l1.27-3.013V8.48H6.64z M6.08,9.76l-0.87,2.17l-1.62,0.03l4.32-9.598V0.603L7.9,0.6L0.97,3.07
	l1.05,9.18l5.88,3.26l0.01-0.005V9.76H6.08z" />
</svg>