<svg xmlns="http://www.w3.org/2000/svg" width="16" height="16" viewBox="0 0 16 16">
	<path fill="context-fill" fill-opacity="context-fill-opacity" d="M14.4,3.2H8L6.872,2.072C6.568,1.768,6.16,1.6,5.736,1.6H1.6c-0.88,0-1.592,0.72-1.592,1.6L0,12.8c0,0.88,0.72,1.6,1.6,1.6
		h12.8c0.88,0,1.6-0.72,1.6-1.6v-8C16,3.92,15.28,3.2,14.4,3.2z M8.8,8.8v2.4C8.8,11.64,8.44,12,8,12l0,0c-0.44,0-0.8-0.36-0.8-0.8
		V8.8H5.768c-0.36,0-0.536-0.432-0.28-0.68l2.24-2.232c0.16-0.16,0.408-0.152,0.568,0l2.232,2.232c0.24,0.248,0.064,0.68-0.288,0.68
		H8.8z" />
</svg>