<svg xmlns="http://www.w3.org/2000/svg" width="16" height="16" viewBox="0 0 16 16">
	<path fill="context-fill" fill-opacity="context-fill-opacity" d="M14.4,3.2H8L6.872,2.072C6.568,1.768,6.16,1.6,5.736,1.6H1.6c-0.888,0-1.592,0.712-1.592,1.6L0,12.8
	c0,0.888,0.712,1.6,1.6,1.6h12.8c0.88,0,1.6-0.72,1.6-1.6v-8C16,3.92,15.28,3.2,14.4,3.2z M12.8,9.6h-1.6v1.6
	c0,0.44-0.36,0.8-0.8,0.8c-0.44,0-0.8-0.36-0.8-0.8V9.6H8c-0.44,0-0.8-0.36-0.8-0.8C7.2,8.36,7.56,8,8,8h1.6V6.4
	c0-0.44,0.36-0.8,0.8-0.8c0.44,0,0.8,0.36,0.8,0.8V8h1.6c0.44,0,0.8,0.36,0.8,0.8C13.6,9.24,13.24,9.6,12.8,9.6z" />
</svg>