<svg xmlns="http://www.w3.org/2000/svg" width="16" height="16" viewBox="0 0 16 16">
	<path fill="context-fill" fill-opacity="context-fill-opacity" d="M14.40002,3.20001H8L6.86401,2.07202C6.56799,1.76801,6.15997,1.59998,5.73602,1.59998H1.59998
	c-0.88,0-1.59198,0.72003-1.59198,1.60004L0,12.79999c0,0.88,0.71997,1.60004,1.59998,1.60004h12.80005
	c0.88,0,1.59998-0.72003,1.59998-1.60004v-8C16,3.91998,15.28003,3.20001,14.40002,3.20001z M13.59998,11.20001
	c0,0.44-0.35999,0.79999-0.79999,0.79999H9.59998c-0.44,0-0.79999-0.35999-0.79999-0.79999V6.40002
	c0-0.44,0.35999-0.80005,0.79999-0.80005h1.672c0.20801,0,0.41602,0.08801,0.56805,0.23199l1.52795,1.52802
	c0.14404,0.15204,0.23199,0.35199,0.23199,0.56799V11.20001z" />
</svg>