<svg xmlns="http://www.w3.org/2000/svg" width="16" height="16" viewBox="0 0 16 16" fill="context-fill"
    fill-opacity="context-fill-opacity">
    <path
        d="M9.627 2.853l1.147-1.146V8.5a.5.5 0 001 0V1.707l1.146 1.146a.5.5 0 10.719-.695l-.012-.012-2-2a.5.5 0 00-.707 0l-2 2a.5.5 0 00.707.707z" />
    <path
        d="M14.574 3.218c-.071.129-.141.259-.253.367a1.494 1.494 0 01-1.548.333V8.5c0 .827-.673 1.5-1.5 1.5s-1.5-.673-1.5-1.5V3.91a1.485 1.485 0 01-.494.083 1.49 1.49 0 01-1.042-.421 1.476 1.476 0 01-.297-.432L6.872 2.072A1.605 1.605 0 005.736 1.6H1.6C.72 1.6.008 2.32.008 3.2L0 12.8c0 .88.72 1.6 1.6 1.6h12.8c.88 0 1.6-.72 1.6-1.6v-8a1.6 1.6 0 00-1.426-1.582z" />
</svg>