<svg xmlns="http://www.w3.org/2000/svg" width="16" height="16" viewBox="0 0 16 16">
	<path fill="context-fill" fill-opacity="context-fill-opacity" d="M14.4,3.2H8L6.872,2.072C6.568,1.768,6.16,1.6,5.736,1.6H1.6c-0.88,0-1.592,0.72-1.592,1.6L0,12.8c0,0.88,0.72,1.6,1.6,1.6
	h12.8c0.88,0,1.6-0.72,1.6-1.6v-8C16,3.92,15.28,3.2,14.4,3.2z M10.4,5.6c0.88,0,1.6,0.72,1.6,1.6s-0.72,1.6-1.6,1.6
	c-0.88,0-1.6-0.72-1.6-1.6S9.52,5.6,10.4,5.6z M13.6,12H7.2v-0.8c0-1.064,2.136-1.6,3.2-1.6s3.2,0.536,3.2,1.6V12z" />
</svg>