<svg xmlns="http://www.w3.org/2000/svg" width="16" height="16" viewBox="0 0 16 16" fill="context-fill"
    fill-opacity="context-fill-opacity">
    <path
        d="M9.627 6.147l1.147 1.146V.5a.5.5 0 011 0v6.793l1.146-1.146a.5.5 0 11.719.695l-.012.012-2 2a.5.5 0 01-.707 0l-2-2a.5.5 0 01.707-.707z" />
    <path
        d="M14.4 3.2h-1.626v1.882a1.49 1.49 0 011.548.333c.595.575.611 1.526.012 2.146l-2 2c-.283.283-.66.439-1.061.439s-.777-.156-1.061-.439L8.201 7.548a1.501 1.501 0 011.572-2.459V3.2H8L6.872 2.072A1.605 1.605 0 005.736 1.6H1.6C.72 1.6.008 2.32.008 3.2L0 12.8c0 .88.72 1.6 1.6 1.6h12.8c.88 0 1.6-.72 1.6-1.6v-8c0-.88-.72-1.6-1.6-1.6z" />
</svg>