<svg xmlns="http://www.w3.org/2000/svg" width="16" height="16" viewBox="0 0 16 16">
	<path fill="context-fill" fill-opacity="context-fill-opacity" d="M14.4,3.2H8L6.872,2.072C6.568,1.768,6.16,1.6,5.736,1.6H1.6C0.72,1.6,0,2.32,0,3.2v9.6c0,0.88,0.72,1.6,1.6,1.6h12.8
	c0.88,0,1.6-0.72,1.6-1.6v-8C16,3.92,15.28,3.2,14.4,3.2z M11.952,11.528L10.4,10.624l-1.552,0.904
	c-0.304,0.176-0.672-0.096-0.592-0.44l0.408-1.76L7.312,8.16C7.048,7.928,7.184,7.488,7.536,7.456L9.32,7.304l0.704-1.648
	c0.136-0.32,0.6-0.32,0.736,0l0.704,1.648l1.784,0.152c0.352,0.032,0.496,0.472,0.224,0.704L12.12,9.328l0.408,1.76
	C12.616,11.432,12.248,11.704,11.952,11.528z" />
</svg>