<svg xmlns="http://www.w3.org/2000/svg" viewBox="0 0 1736 1792"><path d="M1522.8 1476c10-4 18.7-5 26-3s11 7.8 11 17.5-5 20.8-15 33.5c-8.7 10.7-23.3 25.2-44 43.5s-52.5 41-95.5 68-90 51.7-141 74-113.7 41.7-188 58-150.8 24.5-229.5 24.5c-79.3 0-158.7-10.3-238-31s-149-46.2-209-76.5-117.5-65-172.5-104-99.2-74-132.5-105-61.3-60.2-84-87.5c-5.3-6-8.7-11.5-10-16.5s-1-9 1-12 4.7-5.3 8-7 7.2-2.3 11.5-2 8.2 1.8 11.5 4.5c128 78 228 133.3 300 166 259.3 117.3 525.7 147.3 799 90 126.7-26.7 257-71.7 391-135zm207-115c7.3 10.7 8.2 33.8 2.5 69.5s-15.2 69.8-28.5 102.5c-22.7 55.3-51 96.7-85 124-11.3 9.3-20 12.3-26 9s-6-11.3 0-24c14-30 28.8-70.5 44.5-121.5s17.8-83.8 6.5-98.5c-3.3-4.7-8.5-8.5-15.5-11.5s-16-5-27-6-20.8-1.8-29.5-2.5-20.3-.7-35 0-25.2 1.3-31.5 2-16.7 1.7-31 3-21.8 2-22.5 2c-4 .7-8.3 1.2-13 1.5s-8.3.7-11 1-5.5.7-8.5 1-5.3.5-7 .5h-10l-3-.5-2-1.5-1.5-3c-4-10.7 11.7-24 47-40s69.7-26 103-30c30.7-4.7 66.7-5 108-1s66.7 12 76 24zm-394-443c0 20.7 4.5 42 13.5 64s19.7 41.3 32 58c12.3 16.7 24.8 32 37.5 46s23.7 24.7 33 32l13 11-227 224c-26.7-24.7-53-49.8-79-75.5s-45.3-45.2-58-58.5l-19-20c-7.3-7.3-15.7-18.3-25-33-25.3 39.3-57.8 73.5-97.5 102.5s-82.2 50.2-127.5 63.5-92 21-140 23-93.8-5-137.5-21-82.8-37.8-117.5-65.5-62.3-65.3-83-113-31-101.8-31-162.5c0-56 9.3-107.3 28-154s42.7-85.5 72-116.5 64.8-58.7 106.5-83 82.5-43.3 122.5-57 83.3-25.2 130-34.5 86.5-15.5 119.5-18.5 66.2-5.2 99.5-6.5V396c0-43.3-7-75.7-21-97-22.7-35.3-63-53-121-53-4 0-9.5.3-16.5 1s-20.5 4.7-40.5 12-38.7 17.2-56 29.5-36 32.2-56 59.5-36 59.3-48 96l-294-27c0-40 7.3-79.7 22-119s37-77 67-113 66-67.7 108-95 92.5-49.2 151.5-65.5S818.8 0 886.8 0c66.7 0 127 8.3 181 25s97.2 37.2 129.5 61.5 59.3 52 81 83 36.7 59.7 45 86 12.5 50.8 12.5 73.5v589zm-672 21c0 57.3 23.3 101.7 70 133 44 29.3 90.3 36.7 139 22 56-16.7 94-57.7 114-123 9.3-30 14-63.7 14-101V708c-39.3 1.3-76.3 5.3-111 12s-70.2 17.8-106.5 33.5-65.3 39.3-87 71-32.5 69.8-32.5 114.5z" fill="context-fill" fill-opacity="context-fill-opacity"/></svg>