<svg xmlns="http://www.w3.org/2000/svg" viewBox="0 0 16 16" width="16" height="16" fill="context-fill"
	fill-opacity="context-fill-opacity">
	<path d="M13.613,13.291c0.086-0.034,0.16-0.043,0.223-0.026c0.063,0.017,0.094,0.067,0.094,0.15c0,0.083-0.043,0.178-0.129,0.287
	c-0.075,0.092-0.2,0.216-0.377,0.373c-0.177,0.157-0.45,0.351-0.819,0.583c-0.369,0.231-0.772,0.443-1.209,0.634
	s-0.975,0.357-1.612,0.497S8.493,16,7.818,16c-0.68,0-1.36-0.088-2.04-0.266c-0.68-0.177-1.277-0.396-1.792-0.656
	c-0.514-0.26-1.007-0.557-1.479-0.892c-0.471-0.334-0.85-0.634-1.136-0.9c-0.285-0.266-0.525-0.516-0.72-0.75
	c-0.045-0.051-0.075-0.099-0.086-0.141c-0.011-0.043-0.009-0.077,0.009-0.103s0.04-0.045,0.069-0.06
	c0.028-0.015,0.062-0.02,0.099-0.017c0.037,0.003,0.07,0.015,0.099,0.039c1.097,0.669,1.955,1.143,2.572,1.423
	c2.223,1.006,4.507,1.263,6.849,0.772C11.347,14.219,12.464,13.834,13.613,13.291z M15.388,12.305
	c0.063,0.092,0.07,0.29,0.021,0.596c-0.049,0.306-0.13,0.598-0.244,0.879c-0.195,0.474-0.437,0.829-0.729,1.063
	c-0.097,0.08-0.171,0.105-0.223,0.077c-0.051-0.028-0.051-0.097,0-0.206c0.12-0.257,0.247-0.604,0.381-1.042
	s0.153-0.718,0.056-0.844c-0.028-0.04-0.073-0.073-0.133-0.099c-0.06-0.026-0.137-0.043-0.231-0.051
	c-0.094-0.009-0.178-0.015-0.253-0.021c-0.075-0.006-0.174-0.006-0.3,0s-0.216,0.011-0.27,0.017
	c-0.054,0.006-0.143,0.015-0.266,0.026c-0.123,0.011-0.187,0.017-0.193,0.017c-0.034,0.006-0.071,0.01-0.111,0.013
	s-0.071,0.006-0.094,0.009c-0.023,0.003-0.047,0.006-0.073,0.009c-0.026,0.003-0.045,0.004-0.06,0.004H12.58l-0.026-0.004
	l-0.017-0.013l-0.013-0.026c-0.034-0.092,0.1-0.206,0.403-0.343s0.598-0.223,0.883-0.257c0.263-0.04,0.572-0.043,0.926-0.009
	S15.308,12.202,15.388,12.305z" />
	<path d="M12.01,8.508c0,0.177,0.039,0.36,0.116,0.549c0.077,0.189,0.169,0.354,0.274,0.497c0.105,0.143,0.213,0.274,0.321,0.394
	s0.203,0.212,0.283,0.274l0.111,0.094l-1.946,1.92c-0.229-0.212-0.454-0.427-0.677-0.647c-0.223-0.22-0.388-0.387-0.497-0.501
	l-0.163-0.171c-0.063-0.063-0.135-0.157-0.214-0.283c-0.217,0.337-0.495,0.63-0.836,0.879c-0.34,0.249-0.705,0.43-1.093,0.544
	s-0.789,0.18-1.2,0.197c-0.411,0.017-0.804-0.043-1.179-0.18s-0.71-0.324-1.007-0.562s-0.534-0.56-0.712-0.969
	c-0.177-0.409-0.266-0.873-0.266-1.393c0-0.48,0.08-0.92,0.24-1.32c0.16-0.4,0.366-0.733,0.617-0.999
	C4.435,6.566,4.739,6.328,5.096,6.12c0.357-0.208,0.707-0.371,1.05-0.489c0.343-0.117,0.714-0.216,1.114-0.296
	c0.4-0.08,0.742-0.133,1.024-0.159c0.283-0.026,0.568-0.045,0.853-0.056V4.033c0-0.371-0.06-0.649-0.18-0.832
	c-0.195-0.303-0.54-0.454-1.037-0.454c-0.034,0-0.081,0.003-0.141,0.009c-0.06,0.006-0.176,0.04-0.347,0.103
	c-0.171,0.063-0.332,0.147-0.48,0.253c-0.148,0.105-0.309,0.276-0.48,0.51C6.301,3.855,6.164,4.13,6.061,4.444L3.54,4.213
	c0-0.343,0.063-0.683,0.189-1.02c0.126-0.337,0.317-0.66,0.574-0.969c0.257-0.309,0.566-0.58,0.926-0.814s0.793-0.422,1.299-0.562
	s1.05-0.21,1.633-0.21c0.572,0,1.089,0.071,1.552,0.214c0.463,0.143,0.833,0.319,1.11,0.527s0.508,0.446,0.694,0.712
	c0.186,0.266,0.315,0.512,0.386,0.737c0.071,0.225,0.107,0.435,0.107,0.63V8.508z M6.249,8.688c0,0.491,0.2,0.872,0.6,1.14
	c0.377,0.251,0.774,0.315,1.192,0.189c0.48-0.143,0.806-0.495,0.977-1.054c0.08-0.257,0.12-0.546,0.12-0.866V6.707
	C8.801,6.719,8.484,6.753,8.187,6.81C7.889,6.868,7.585,6.963,7.274,7.097s-0.56,0.337-0.746,0.609
	C6.342,7.978,6.249,8.304,6.249,8.688z" />
</svg>