<svg xmlns="http://www.w3.org/2000/svg" viewBox="0 0 16 16" width="16" height="16" fill="context-fill"
    fill-opacity="context-fill-opacity">
    <path d="M8,0C3.582,0,0,3.582,0,8s3.582,8,8,8s8-3.582,8-8S12.418,0,8,0z M8.564,4.202C8.636,3.53,9.439,2.5,10.082,2.648
	c0.64,0.146,1.226,0.997,1.107,1.729c-0.116,0.733-0.697,1.7-1.604,1.581C8.68,5.843,8.475,5.023,8.564,4.202z M6.666,2.356
	c0.677,0,1.225,0.779,1.225,1.744c0,0.964-0.547,1.744-1.225,1.744c-0.678,0-1.226-0.78-1.226-1.744
	C5.44,3.135,5.989,2.356,6.666,2.356z M2.842,6.486c0,0,0.145-1.435,1.138-1.523c0.789-0.069,1.371,0.795,1.431,1.289
	c0.036,0.321,0.203,1.789-1.024,2.052C3.163,8.569,2.707,7.151,2.842,6.486z M12.184,12.67c-0.671,1.583-3.124,0.76-3.124,0.76
	s-0.905-0.292-1.957-0.058c-1.05,0.235-1.955,0.146-1.955,0.146s-1.228,0.03-1.578-1.523c-0.35-1.554,1.225-2.405,1.343-2.549
	c0.117-0.148,0.933-0.703,1.459-1.583C6.899,6.986,8.475,6.282,9.586,8.01c0.818,1.172,2.22,2.256,2.22,2.256
	S12.855,11.088,12.184,12.67z M11.98,9.065c-1.345,0.029-1.401-0.909-1.401-1.581c0-0.704,0.143-1.701,1.226-1.701
	c1.081,0,1.371,1.057,1.371,1.407C13.176,7.543,13.323,9.036,11.98,9.065z" />
</svg>