<svg xmlns="http://www.w3.org/2000/svg" viewBox="2 2 20 20" fill="context-fill" fill-opacity="context-fill-opacity">
    <path
        d="M4,2c1.528,0.465,3.055,0.932,4.581,1.402C8.579,7.172,8.584,10.941,8.578,14.71c-1.483,1.314-2.958,2.637-4.438,3.954 c3.617-1.899,7.231-3.804,10.846-5.707c-1.003-0.456-2.008-0.907-3.011-1.363c-0.675-1.472-1.356-2.941-2.032-4.412 c3.354,1.024,6.707,2.053,10.06,3.081c0.001,1.639,0,3.278,0.001,4.916c-3.816,2.274-7.634,4.546-11.45,6.821 C7.035,20.936,5.518,19.872,4,18.809C4,13.206,4,7.603,4,2z" />
</svg>