<svg xmlns="http://www.w3.org/2000/svg" viewBox="0 0 16 16" width="16" height="16" fill="context-fill"
    fill-opacity="context-fill-opacity">
    <path d="M1.598,0c1.222,0.372,2.444,0.746,3.665,1.122c-0.002,3.016,0.002,6.031-0.002,9.046c-1.186,1.051-2.366,2.11-3.55,3.163
	c2.894-1.519,5.785-3.043,8.677-4.566C9.585,8.401,8.781,8.04,7.978,7.675c-0.54-1.178-1.085-2.353-1.626-3.53
	c2.683,0.819,5.366,1.642,8.048,2.465c0.001,1.311,0,2.622,0.001,3.933C11.349,12.362,8.294,14.18,5.242,16
	c-1.215-0.851-2.429-1.702-3.643-2.553C1.598,8.965,1.598,4.482,1.598,0z" />
</svg>