<svg xmlns="http://www.w3.org/2000/svg" width="16" height="16"
  viewBox="0 0 16 16" fill="context-fill" fill-opacity="context-fill-opacity">
  <path
    d="M11.126,13.463c-0.153,0.108-2.227,1.712-2.429,1.89l-0.082,0.073C8.422,15.598,8.175,15.822,8,15.822 c-0.175,0-0.422-0.223-0.617-0.398l-0.081-0.073c-0.202-0.178-2.274-1.78-2.429-1.89s-0.258-0.308-0.088-0.415 c0.131-0.082,0.477-0.26,0.966-0.512l0.465-0.24C6.947,11.92,7.859,11.598,8,11.598c0.141,0,1.053,0.32,1.785,0.699 c0.166,0.087,0.322,0.166,0.465,0.24l0,0c0.488,0.251,0.834,0.43,0.964,0.51C11.384,13.153,11.281,13.353,11.126,13.463z  M15.488,5.504C15.43,5.56,15.37,5.618,15.31,5.681L13.26,7.856c-0.021,0.023-0.044,0.046-0.067,0.068 C12.988,8.13,12.687,8.434,12.9,8.936l0.044,0.102c0.234,0.545,0.521,1.218,0.155,1.899c-0.39,0.725-1.057,1.209-1.485,1.129 c-0.428-0.081-1.432-0.605-1.803-0.845c-0.371-0.238-1.542-1.203-1.542-1.572c0-0.308,0.843-0.82,1.252-1.069 c0.082-0.05,0.146-0.088,0.182-0.114c0.043-0.029,0.112-0.073,0.2-0.126c0.374-0.232,1.048-0.65,1.065-0.835 c0.021-0.229,0.012-0.296-0.289-0.861c-0.064-0.122-0.138-0.251-0.216-0.383c-0.287-0.492-0.608-1.045-0.536-1.44 c0.081-0.447,0.781-0.702,1.373-0.919c0.074-0.027,0.146-0.053,0.216-0.079l0.618-0.232c0.592-0.222,1.25-0.468,1.358-0.518 c0.15-0.068,0.111-0.135-0.343-0.178c-0.073-0.008-0.147-0.015-0.22-0.023c-0.565-0.059-1.602-0.17-2.108-0.029 c-0.099,0.027-0.21,0.058-0.327,0.09c-0.567,0.152-1.262,0.34-1.329,0.45C9.153,3.4,9.142,3.417,9.132,3.432 c-0.065,0.091-0.106,0.15-0.035,0.535c0.021,0.115,0.064,0.34,0.118,0.62c0.156,0.817,0.401,2.092,0.431,2.379 C9.651,7.006,9.656,7.044,9.66,7.08C9.7,7.399,9.725,7.612,9.353,7.697L9.256,7.72C8.837,7.815,8.222,7.957,8,7.957 S7.163,7.815,6.744,7.72L6.647,7.698C6.276,7.613,6.302,7.401,6.341,7.08C6.346,7.042,6.35,7.004,6.355,6.965 C6.385,6.678,6.631,5.4,6.788,4.583C6.841,4.305,6.884,4.08,6.905,3.967c0.07-0.384,0.029-0.444-0.035-0.535 c-0.012-0.017-0.024-0.033-0.035-0.05C6.77,3.272,6.074,3.084,5.507,2.932C5.391,2.9,5.28,2.87,5.181,2.843 c-0.506-0.141-1.545-0.03-2.107,0.029C2.988,2.881,2.913,2.888,2.852,2.894C2.397,2.937,2.359,3.004,2.509,3.072 c0.108,0.05,0.766,0.296,1.358,0.518c0.228,0.085,0.445,0.166,0.618,0.232c0.07,0.026,0.141,0.052,0.216,0.079 C5.293,4.118,5.994,4.374,6.074,4.82c0.071,0.395-0.251,0.948-0.536,1.44C5.46,6.394,5.386,6.521,5.321,6.641 C5.02,7.206,5.012,7.273,5.032,7.503c0.017,0.185,0.691,0.605,1.065,0.835c0.087,0.055,0.158,0.097,0.2,0.126 C6.335,8.49,6.399,8.528,6.48,8.578c0.41,0.249,1.252,0.761,1.252,1.069c0,0.369-1.171,1.335-1.542,1.574 c-0.369,0.24-1.375,0.764-1.803,0.845c-0.425,0.081-1.094-0.403-1.484-1.127C2.537,10.256,2.824,9.583,3.058,9.04l0.044-0.103 C3.314,8.434,3.013,8.13,2.808,7.925C2.786,7.902,2.764,7.879,2.742,7.856L0.691,5.681C0.63,5.618,0.57,5.56,0.512,5.504 C0.235,5.233,0,5.005,0,4.422c0-0.706,2.736-4.008,2.736-4.008s2.309,0.44,2.62,0.44c0.249,0,0.728-0.164,1.227-0.337 c0.126-0.044,0.255-0.088,0.38-0.129C7.585,0.18,8,0.178,8,0.178S8.415,0.18,9.037,0.387c0.126,0.043,0.254,0.087,0.38,0.129 c0.5,0.172,0.98,0.337,1.227,0.337c0.311,0,2.62-0.44,2.62-0.44S16,3.714,16,4.421C16.002,5.005,15.766,5.233,15.488,5.504z" />
</svg>