<svg xmlns="http://www.w3.org/2000/svg" width="16" height="16" viewBox="0 0 16 16" fill="context-fill"
	fill-opacity="context-fill-opacity">
	<path d="M13.571,4.655h-1.44c-0.358-0.621-0.851-1.154-1.448-1.56l0.74-0.74c0.31-0.31,0.31-0.812,0-1.122
	c-0.31-0.31-0.812-0.31-1.122,0l-1.17,1.17C8.764,2.315,8.39,2.267,8,2.267c-0.39,0-0.764,0.048-1.122,0.135L5.7,1.233
	c-0.31-0.31-0.812-0.31-1.122,0s-0.31,0.812,0,1.122l0.732,0.74c-0.589,0.406-1.082,0.939-1.44,1.56h-1.44
	c-0.438,0-0.796,0.358-0.796,0.796c0,0.438,0.358,0.796,0.796,0.796h0.867c-0.04,0.263-0.072,0.525-0.072,0.796v0.796H2.429
	c-0.438,0-0.796,0.358-0.796,0.796s0.358,0.796,0.796,0.796h0.796v0.796c0,0.271,0.032,0.533,0.072,0.796H2.429
	c-0.438,0-0.796,0.358-0.796,0.796c0,0.438,0.358,0.796,0.796,0.796h1.44C4.697,14.037,6.233,15,8,15s3.303-0.963,4.13-2.387h1.44
	c0.438,0,0.796-0.358,0.796-0.796c0-0.438-0.358-0.796-0.796-0.796h-0.867c0.04-0.263,0.072-0.525,0.072-0.796V9.429h0.796
	c0.438,0,0.796-0.358,0.796-0.796s-0.358-0.796-0.796-0.796h-0.796V7.042c0-0.271-0.032-0.533-0.072-0.796h0.867
	c0.438,0,0.796-0.358,0.796-0.796C14.366,5.013,14.008,4.655,13.571,4.655z M8.796,11.021H7.204c-0.438,0-0.796-0.358-0.796-0.796
	s0.358-0.796,0.796-0.796h1.592c0.438,0,0.796,0.358,0.796,0.796S9.233,11.021,8.796,11.021z M8.796,7.838H7.204
	c-0.438,0-0.796-0.358-0.796-0.796c0-0.438,0.358-0.796,0.796-0.796h1.592c0.438,0,0.796,0.358,0.796,0.796
	C9.592,7.48,9.233,7.838,8.796,7.838z" />
</svg>