<svg xmlns="http://www.w3.org/2000/svg" width="16" height="16" viewBox="0 0 16 16" fill="context-fill"
	fill-opacity="context-fill-opacity">
	<path d="M10.9,3.189c0,0-0.016-0.148-0.132-0.148H5.241c0,0-0.115,0.049-0.115,0.148v8.216c0,0,0,0.166,0.115,0.166h5.527
	c0,0,0.132-0.033,0.132-0.166V3.189z" />
	<path d="M4.305,3.918L1.501,4.938c0,0-0.091,0.086-0.058,0.179l2.81,7.72c0,0,0.045,0.123,0.131,0.123
	c0.011,0,0.022-0.002,0.035-0.006l1.546-0.563H5.241c-0.525,0-0.936-0.433-0.936-0.986V3.918z" />
	<path
		d="M11.616,12.96c0.086,0,0.131-0.123,0.131-0.123l2.81-7.72c0.034-0.093-0.058-0.179-0.058-0.179L11.72,3.927v7.477
	c0,0.455-0.309,0.85-0.752,0.961c-0.065,0.016-0.133,0.025-0.2,0.025h-0.733l1.546,0.563C11.594,12.958,11.605,12.96,11.616,12.96z" />
	<path
		d="M15.481,3.891L15.481,3.891c-0.143-0.134-0.308-0.235-0.49-0.302l-2.789-1.015c-0.242-0.579-0.797-0.969-1.433-0.969H5.241
	c-0.195,0-0.385,0.039-0.565,0.116C4.29,1.885,3.992,2.188,3.831,2.562L1.009,3.589c-0.183,0.067-0.347,0.168-0.49,0.302
	c-0.476,0.446-0.642,1.12-0.425,1.717l2.81,7.72c0.294,0.808,1.187,1.267,2.006,0.975L8,13.177l3.095,1.127
	c0.157,0.056,0.357,0.091,0.522,0.091c0.663,0,1.244-0.419,1.48-1.067l2.81-7.72C16.123,5.011,15.957,4.337,15.481,3.891z
	 M15.328,5.397l-2.81,7.72c-0.147,0.402-0.5,0.663-0.901,0.663c-0.096,0-0.225-0.023-0.315-0.056L8,12.523l-3.301,1.201
	c-0.09,0.033-0.219,0.056-0.315,0.056c-0.401,0-0.755-0.26-0.902-0.663l-2.81-7.72C0.539,5.032,0.644,4.617,0.94,4.34
	C1.021,4.264,1.116,4.205,1.22,4.167l3.108-1.131c0.055-0.326,0.267-0.612,0.59-0.75C5.02,2.243,5.13,2.22,5.241,2.22h5.527
	c0.474,0,0.854,0.346,0.932,0.826l3.079,1.121c0.104,0.038,0.2,0.097,0.281,0.173C15.356,4.617,15.461,5.032,15.328,5.397z" />
</svg>