<svg xmlns="http://www.w3.org/2000/svg" viewBox="0 0 16 16" width="16" height="16" fill="context-fill"
    fill-opacity="context-fill-opacity">
    <path d="M15.391,5.601c-0.75-1.349-2.099-2.149-3.598-2.149H0.4c-0.25,0-0.4,0.2-0.4,0.4c0,0.1,0.05,0.2,0.1,0.25l2.498,2.498
	c0.2,0.25,0.5,0.35,0.8,0.35h8.045c0.6,0,1.049,0.45,1.049,1.049s-0.45,1.049-1.049,1.049H5.946c-0.2,0-0.4,0.2-0.4,0.4
	c0,0.1,0.05,0.2,0.1,0.25l2.498,2.498c0.2,0.2,0.5,0.35,0.849,0.35h2.498C14.741,12.547,17.19,9.049,15.391,5.601" />
</svg>