<svg xmlns="http://www.w3.org/2000/svg" viewBox="0 0 511.1 442.3">
    <path fill="context-fill" fill-opacity=".4"
        d="M166.8 1c2.1 2.8 3.7 5.9 5.4 8.9 27.8 48.1 55.6 96.2 83.3 144.3-12.8 22.4-25.8 44.7-38.7 67-1.7-10.7-5-21.1-7-31.7-3.2-11.4-5-23.2-8.3-34.6-3.8-18.4-8.4-36.6-12.6-55-6.3-26.7-12.4-53.5-18.4-80.3-1.4-6.1-3.2-12.2-3.7-18.6zm343.1 286.4c-25-7.2-49.6-15.7-74.7-22.6-22.8-7.4-45.8-14-68.5-21.4-12.6-3.6-25-7.6-37.5-11.3-11.6-3.8-23.6-6.9-35.1-11.1 12.9 22.5 26.1 44.8 38.8 67.4l.7.1c30.8.1 61.5 0 92.3 0 28.1-.2 56.2.4 84.3-.3l-.3-.8zm-362.7 53.7c10.3-17.6 20.1-35.5 30.8-52.9 51.6.2 103.3-.3 154.9.2l.7.1c-26.1.8-52.3-.2-78.4.4-5 3.2-8.3 8.4-13.1 11.9-4.4 3.2-7.7 7.7-11.9 11.2-5.9 4.4-10.3 10.4-16.4 14.7-7 7.4-15 13.6-22 20.9-5.3 4-9.7 9-14.6 13.5-5.4 3.9-9.5 9.2-14.6 13.5-.1.1-.4.3-.5.5-.3.2-.8.6-1.1.9-.1.1-.4.3-.5.4-4 3.1-7 7.1-10.9 10.3-.1.1-.4.3-.5.4-.1.1-.4.3-.5.4-5.7 4.7-10.3 10.6-16.2 14.9-6 6-12.8 11.1-18.5 17.4-8.4 6.9-15.7 15.1-24.4 21.8 2.2-4.7 5-9 7.5-13.5 16.7-29.1 33.5-58.1 50.2-87z" />
    <path fill="context-fill" fill-opacity=".6"
        d="M209.8 189.5c-3.2-11.4-5-23.2-8.3-34.5-3.8-18.4-8.4-36.6-12.6-55-6.3-26.7-12.4-53.5-18.4-80.3-1.4-6.2-3.3-12.3-3.8-18.6V.2h-.4l-.1.5-.1.5c-.4.6-1.2 1.7-1.5 2.2l-.1.2-1 1.6c0 .1-.1.2-.2.3l-1 1.8c-.1.2-.3.5-.4.6-.1.2-.3.5-.3.6l-1 1.7c0 .1-.1.2-.2.3l-.9 1.7c0 .2-.1.5-.2.6-.3.6-1 1.7-1.4 2.2-.1.2-.4.6-.5.8l-.8 1.2c-.1.1-.2.4-.3.5l-.8 1.6c0 .2-.1.5-.2.7-.4.5-1.1 1.6-1.5 2.2-.1.2-.4.6-.5.8l-.8 1.3c-.1.1-.2.3-.2.4l-1 1.7c-.1.2-.3.5-.4.7-.1.2-.3.5-.4.6l-1 1.7c0 .1-.1.2-.2.3l-.9 1.6c0 .1-.1.2-.2.3l-1 1.7c-.1.2-.3.5-.4.7-.1.2-.3.5-.4.7l-1 1.7c0 .1-.1.2-.2.3l-.9 1.7c0 .2-.1.5-.2.7-.4.5-1.1 1.7-1.5 2.2-.1.2-.4.6-.5.8l-.7 1.1c-.1.3-.4.9-.6 1.2l-.5 1c-.1.2-.4.6-.5.8-.1.2-.4.6-.6.8l-.7 1c-.1.2-.4.6-.5.8l-.9 1.7c-.1.2-.3.7-.5.9l-.5 1c-.1.2-.4.6-.5.8-.1.2-.4.6-.6.8l-.7.9c-.2.3-.5.9-.7 1.2l-.5 1.2-.4.8c-.3.6-1 1.7-1.4 2.2-.1.2-.4.6-.5.8l-.8 1.2c-.1.1-.2.4-.3.5l-.9 1.7c-.1.1-.2.4-.3.6-.4.6-1.1 1.8-1.4 2.4-.1.1-.3.4-.4.5l-.5.8c-.2.4-.5 1.2-.7 1.6l-.5 1c-.1.2-.4.6-.5.8-.1.2-.4.6-.6.8l-.6 1c-.1.2-.4.6-.5.8l-1 1.7c-.1.1-.2.3-.2.4l-.7 1.3c-.1.1-.2.4-.3.6-.4.7-1.2 2-1.6 2.7-.1.1-.2.4-.3.6l-.7 1.2c-.1.2-.3.5-.4.6l-.8 1.5-.4.8c-.1.2-.3.5-.4.7l-1 1.7c0 .1-.1.2-.2.3l-.9 1.7c0 .2-.1.5-.1.7-.4.5-1.1 1.6-1.5 2.2-.1.2-.4.6-.5.8l-.7 1.2c-.1.1-.2.4-.3.5l-1 1.8c-.1.2-.3.5-.4.7-.1.1-.3.5-.4.6l-1 1.7c0 .1-.1.2-.2.3l-1 1.7c0 .1-.1.2-.1.2C71.5 164.3 35.8 226.3 0 288.2c9 16.5 18.7 32.6 28 48.9 16.7 29 33.5 58 50.2 87 3.7 6 6.8 12.4 10.8 18.2h.4v-.7c2.2-4.7 5-9 7.5-13.5 16.7-29 33.5-57.9 50.2-86.9 10.3-17.6 20.1-35.5 30.8-52.9 1.9-2.7 3.4-5.7 5.1-8.5.1-.1.2-.4.3-.6.1-.2.3-.5.3-.6l1-1.8c.1-.1.2-.4.3-.5l.6-1.1c.1-.2.3-.5.4-.7.4-.7 1.2-2 1.6-2.6.1-.1.2-.4.3-.5l.8-1.5c.1-.1.2-.3.2-.4l.8-1.5c.1-.1.2-.4.3-.5.4-.7 1.1-2 1.5-2.6.1-.2.3-.5.4-.7l.6-1c.1-.1.2-.4.3-.5.4-.7 1.3-2.2 1.7-2.9.1-.1.2-.4.3-.5l.8-1.4c.1-.1.2-.3.3-.5l.7-1.3c.1-.2.3-.5.4-.6.4-.7 1.2-2 1.6-2.7.1-.1.2-.4.3-.6l.8-1.3c.1-.1.2-.4.3-.5l.8-1.3c.1-.2.3-.5.3-.6.4-.7 1.1-1.9 1.5-2.6.1-.2.3-.5.4-.7l.6-1c.1-.1.2-.4.3-.5l1.6-2.8c.1-.2.3-.5.4-.7l.6-1c.1-.1.2-.4.3-.5l1-1.7c.1-.2.3-.5.4-.7.1-.2.3-.5.4-.6l1-1.8c.1-.1.1-.2.2-.3l.8-1.5c.1-.2.3-.4.3-.6l.7-1.3c.1-.1.2-.4.3-.5.4-.7 1.2-2.1 1.6-2.9 0-.1.1-.3.2-.3l.3-.5c.2-.3.5-.8.7-1.1.7-1.2 1.4-2.3 2.1-3.5-1.6-10.9-4.8-21.3-6.9-31.9z" />
    <path fill="context-fill" fill-opacity=".6"
        d="M510.4 287.4c-.1-.2-.4-.7-.5-.9l-1.1-2c0-.1-.1-.2-.1-.3l-1-1.7c-.1-.2-.3-.5-.4-.7-.1-.2-.3-.5-.4-.7l-1-1.7c0-.1-.1-.2-.2-.3l-1-1.7c0-.1-.1-.2-.2-.3l-1-1.7c-.1-.2-.3-.5-.4-.6-.1-.2-.3-.5-.4-.6l-1-1.8c-.1-.2-.4-.6-.5-.8l-.7-1c-.2-.2-.4-.6-.6-.8-.1-.2-.3-.6-.5-.8l-.5-1-.4-.8c-.7-1.3-1.4-2.5-2.1-3.8-.1-.2-.3-.5-.4-.6-.1-.2-.3-.6-.4-.7l-.9-1.6c-.1-.1-.2-.3-.2-.4l-.9-1.6c0-.1-.1-.2-.2-.3l-1-1.7c-.1-.2-.3-.5-.4-.6-.1-.2-.3-.5-.4-.6l-1-1.8c-.1-.2-.3-.5-.4-.6l-.6-1c-.1-.2-.3-.5-.5-.7-.4-.6-1.3-2-1.8-2.6 0-.1-.1-.3-.2-.3l-.3-.5c-.2-.5-.6-1.4-.8-1.8l-.7-1c-.1-.2-.4-.6-.5-.8-.2-.3-.6-1-.8-1.3l-.6-.9c-.1-.1-.3-.4-.3-.6l-.3-.5c-.1-.3-.4-1-.6-1.4l-1-1.8c-.1-.2-.3-.5-.4-.7-.1-.2-.3-.5-.4-.7l-1-1.7c0-.1-.1-.2-.2-.3l-1-1.7c0-.1-.1-.2-.2-.3l-1-1.7c-.1-.2-.3-.5-.4-.6-.1-.2-.3-.5-.4-.7l-1-1.7c-.1-.1-.2-.3-.2-.4l-.8-1.4c-.1-.1-.2-.4-.3-.5-.4-.7-1.2-2-1.6-2.6-.1-.1-.2-.4-.3-.5-17.3-30.2-34.8-60.3-52.1-90.4-11.9-20.7-23.8-41.3-35.8-61.9-.1-.1-.2-.4-.3-.5-1.2-2.2-2.5-4.3-3.7-6.5-.1-.1-.2-.4-.3-.5-1.3-2.2-2.5-4.4-3.8-6.6 0-.1-.1-.2-.2-.3-1.3-2.2-2.5-4.4-3.8-6.6-.1-.1-.2-.4-.3-.5-.9-1.5-1.8-3.1-2.7-4.6 0-.1-.1-.2-.2-.3-4.9-8.6-9.8-17.2-14.8-25.7-.1-.1-.1-.2-.2-.3-2.6-4.5-5.2-9.1-7.8-13.6-.1-.1-.2-.4-.3-.5-.6-1-1.1-2-1.6-3-26.9-.4-53.8 0-80.7-.1-32.5 0-65-.1-97.5.1v.9c2.1 2.8 3.7 5.9 5.5 8.9 27.8 48.1 55.6 96.2 83.3 144.3.6 1 1.2 2.1 1.8 3.1.1.1.2.4.3.5.4.7 1.1 2 1.5 2.7.1.1.2.3.3.5l.8 1.5c0 .1.1.3.2.3l1 1.8c.1.2.3.5.4.6.1.2.3.5.4.7l1 1.6c0 .1.2.3.2.4.6 1.1 1.3 2.3 2 3.4.1.2.3.5.3.6.4.7 1.2 2 1.5 2.6.1.2.3.4.3.6l.9 1.5c.2.3.6 1 .8 1.3l.3.5c0 .1.1.3.2.3.4.8 1.3 2.4 1.8 3.2.2.3.6.8.8 1.1l.3.5c0 .1.1.3.2.3.9 1.7 1.8 3.4 2.8 5.1.2.3.6.8.8 1.1l.3.5c0 .1.1.3.2.3.4.7 1.2 2.1 1.6 2.9.1.1.3.5.4.6l.6 1.1c.1.2.3.5.4.7l.8 1.5c.1.2.3.5.4.7.1.2.3.5.4.6l1 1.8c0 .1.1.2.2.3l1 1.7c.1.1.2.4.3.5l.6 1c.1.2.3.5.4.7.4.7 1.3 2.2 1.7 2.9.2.3.5.9.7 1.1l.3.5c0 .1.2.3.2.3.5.7 1.3 2.1 1.8 2.8 0 .1.1.2.1.2.6 1.3 1.2 2.6 1.9 3.9.1.2.3.4.3.6.1.2.3.5.4.7l1 1.6c0 .1.2.3.2.4l.7 1.2c11.5 4.2 23.5 7.3 35.1 11.1 12.5 3.7 24.9 7.7 37.5 11.3 22.8 7.3 45.8 14 68.5 21.4 25.1 6.9 49.7 15.5 74.7 22.6l.2.8h.6l.3-1.2z" />
    <path fill="context-fill" fill-opacity=".6"
        d="M510.7 288.2h-.6c-28.1.6-56.2.1-84.3.3-30.8 0-61.5.1-92.3 0-26.1.8-52.3-.2-78.4.4-5 3.2-8.3 8.4-13.1 11.9-4.4 3.2-7.7 7.7-11.9 11.2-5.9 4.4-10.3 10.4-16.4 14.7-7 7.4-15 13.6-22 20.9-5.3 4-9.7 9-14.6 13.5-5.4 3.9-9.5 9.2-14.6 13.5-.1.1-.4.3-.5.5-.3.2-.8.6-1.1.9-.1.1-.4.3-.5.4-4 3.1-7 7.1-10.9 10.3-.1.1-.4.3-.5.4-.1.1-.4.3-.5.4-5.7 4.7-10.3 10.6-16.2 14.9-6 6-12.8 11.1-18.5 17.4-8.4 6.9-15.7 15.1-24.4 21.8v.7c110.9.2 221.8 0 332.8.1 29.7-51.3 59.2-102.6 88.9-153.9v-.1l-.4-.2z" />
    </svg>