<svg xmlns="http://www.w3.org/2000/svg" viewBox="0 0 16 16" width="16" height="16" fill="context-fill"
	fill-opacity="context-fill-opacity">
	<path d="M16,8c0,3.794-2.644,6.964-6.187,7.786c-0.137-0.22-0.341-0.524-0.53-0.794c-0.263-0.376-0.449-0.678-0.557-0.903
	c0.688,0.279,1.15,0.419,1.387,0.419c0.172,0,0.258-0.269,0.258-0.806c0-1-0.091-1.5-0.274-1.5c-0.269,0-0.79,0.296-1.565,0.887
	c0-0.15-0.081-0.215-0.242-0.194H8.21C7.93,12.154,7.79,11.492,7.79,10.911c0-0.162,0.016-0.322,0.048-0.484
	c0.99,0.484,1.785,0.726,2.387,0.726c0.334,0,0.836-0.097,1.508-0.29c0.672-0.194,1.008-0.403,1.008-0.629
	c0-0.14-0.091-0.21-0.274-0.21c-0.279,0-0.682,0.038-1.21,0.113c-0.527,0.075-0.93,0.113-1.21,0.113c-0.29,0-0.61-0.075-0.96-0.226
	S8.564,9.669,8.564,9.411c0-0.054,0.008-0.094,0.024-0.121c0.016-0.027,0.04-0.043,0.073-0.048c0.032-0.006,0.065-0.006,0.097,0
	c0.032,0.006,0.075,0.01,0.129,0.016C8.94,9.264,8.989,9.266,9.031,9.266c0.097,0,0.237,0.014,0.419,0.04
	c0.182,0.027,0.318,0.04,0.403,0.04c0.334,0,1.016-0.196,2.048-0.589c1.032-0.393,1.548-0.696,1.548-0.911
	c0-0.129-0.099-0.221-0.298-0.274c-0.199-0.054-0.385-0.081-0.557-0.081c-0.15,0-0.376,0.04-0.678,0.121
	c-0.301,0.081-0.629,0.178-0.984,0.29s-0.591,0.186-0.71,0.218c0.043-0.215,0.065-0.387,0.065-0.516
	c0-0.506-0.134-1.094-0.403-1.766S9.304,4.668,8.95,4.346C8.659,4.087,8.272,3.91,7.788,3.814C7.487,3.426,7.017,3.074,6.377,2.757
	C5.737,2.439,5.17,2.281,4.675,2.281c-0.097,0-0.245,0.019-0.443,0.057C4.034,2.375,3.909,2.4,3.855,2.411L3.5,2.911l0.097,0.016
	c0.075,0,0.191-0.01,0.346-0.032C4.099,2.874,4.214,2.863,4.29,2.863c0.366,0,0.785,0.075,1.258,0.226
	c-0.301,0.15-0.564,0.253-0.79,0.306c-0.022,0.01-0.091,0.024-0.21,0.04C4.43,3.451,4.331,3.467,4.25,3.483
	C4.17,3.499,4.094,3.531,4.025,3.58C3.955,3.628,3.92,3.69,3.92,3.766c0.602-0.065,1.054-0.097,1.355-0.097
	c0.409,0,0.731,0.038,0.968,0.113C5.414,3.879,4.777,4.164,4.33,4.637c-0.446,0.473-0.67,1.124-0.67,1.952
	c0,0.29,0.022,0.559,0.065,0.806c0.204,1.29,0.597,3.215,1.178,5.774c0.252,1.176,0.424,1.97,0.519,2.398C2.27,14.494,0,11.515,0,8
	c0-4.418,3.582-8,8-8S16,3.582,16,8z M5.806,5.653c-0.107-0.139-0.263-0.21-0.468-0.21c-0.182,0-0.358,0.051-0.524,0.154
	c-0.166,0.102-0.25,0.245-0.25,0.427c0,0.065,0.016,0.129,0.048,0.194c-0.01-0.172,0.086-0.322,0.29-0.452
	c0.204-0.13,0.398-0.194,0.581-0.194C5.57,5.572,5.678,5.599,5.806,5.653z M5.266,7.613C5.154,7.5,5.097,7.374,5.097,7.234
	c0-0.14,0.057-0.266,0.17-0.379c0.113-0.113,0.239-0.17,0.379-0.17c0.14,0,0.266,0.057,0.379,0.17
	c0.113,0.113,0.17,0.239,0.17,0.379c0,0.14-0.057,0.266-0.17,0.379s-0.239,0.17-0.379,0.17C5.506,7.782,5.379,7.726,5.266,7.613z
	 M5.742,7.056c0,0.086,0.048,0.129,0.145,0.129s0.145-0.043,0.145-0.129c0-0.097-0.048-0.145-0.145-0.145
	C5.79,6.911,5.742,6.959,5.742,7.056z M9.016,5.25c-0.334,0-0.522,0.134-0.564,0.403c0.086-0.14,0.285-0.21,0.597-0.21
	c0.14,0,0.318,0.054,0.532,0.162C9.474,5.368,9.285,5.25,9.016,5.25z M8.967,6.581C9.064,6.49,9.171,6.444,9.29,6.444
	c0.129,0,0.239,0.046,0.33,0.137s0.137,0.202,0.137,0.33c0,0.118-0.046,0.226-0.137,0.322S9.418,7.378,9.29,7.378
	c-0.118,0-0.226-0.048-0.322-0.145C8.871,7.137,8.822,7.03,8.822,6.911C8.822,6.782,8.87,6.672,8.967,6.581z M9.387,6.75
	c0,0.086,0.038,0.129,0.113,0.129c0.086,0,0.129-0.043,0.129-0.129c0-0.075-0.043-0.113-0.129-0.113
	C9.425,6.637,9.387,6.674,9.387,6.75z" />
</svg>