<svg xmlns="http://www.w3.org/2000/svg" fill="context-fill" fill-opacity="context-fill-opacity" viewBox="1 1 22 22">
    <path
        d="M2 12c0-2.89.944-5.279 2.833-7.167S9.11 2 12 2s5.279.944 7.167 2.833S22 9.11 22 12c0 2.446-.692 4.55-2.077 6.31s-3.266 2.91-5.645 3.448a11.4 11.4 0 00-.675-1.048c-.329-.47-.561-.847-.696-1.129.86.349 1.438.524 1.734.524.215 0 .323-.336.323-1.008 0-1.25-.114-1.875-.343-1.875-.336 0-.988.37-1.956 1.109 0-.188-.101-.269-.302-.242h-.101c-.349-.927-.524-1.754-.524-2.48 0-.202.02-.403.06-.605 1.237.605 2.231.907 2.984.907.417 0 1.045-.121 1.885-.363.84-.242 1.26-.504 1.26-.786 0-.175-.114-.262-.343-.262-.349 0-.853.047-1.512.141-.659.094-1.163.141-1.512.141-.363 0-.763-.094-1.2-.282-.437-.188-.655-.444-.655-.766a.3.3 0 01.03-.151.12.12 0 01.091-.06.351.351 0 01.121 0 2.596 2.596 0 00.342.03c.121 0 .296.017.524.05.228.034.397.05.504.05.417 0 1.27-.245 2.56-.736s1.935-.87 1.935-1.139c0-.161-.124-.276-.373-.343s-.481-.101-.696-.101c-.188 0-.47.05-.847.151-.376.101-.786.222-1.23.363-.444.141-.739.232-.887.272.054-.269.081-.484.081-.645 0-.632-.168-1.368-.504-2.208-.336-.84-.726-1.462-1.169-1.865-.363-.323-.847-.544-1.452-.665-.376-.484-.964-.924-1.764-1.321-.8-.397-1.509-.595-2.127-.595-.121 0-.306.024-.554.071s-.404.078-.471.092l-.444.625.121.02c.094 0 .239-.013.433-.04.195-.027.339-.04.433-.04.457 0 .981.094 1.573.282a4.715 4.715 0 01-.987.383c-.027.013-.114.03-.262.05s-.272.04-.373.06a.735.735 0 00-.282.121.273.273 0 00-.131.232c.753-.081 1.317-.121 1.694-.121.511 0 .914.047 1.21.141-1.037.122-1.833.478-2.391 1.069s-.837 1.405-.837 2.44c0 .363.027.699.081 1.008.255 1.613.746 4.019 1.472 7.218.444 2.07.692 3.212.746 3.427l.02.081c-2.151-.672-3.837-1.919-5.06-3.74S2 14.312 2 12zm5.706-2.5c0 .081.02.161.06.242-.013-.215.108-.403.363-.565s.497-.242.726-.242c.108 0 .242.034.403.101-.134-.174-.329-.262-.585-.262-.228 0-.447.064-.655.192a.596.596 0 00-.312.534zm.665 1.512c0-.175.071-.333.212-.474.141-.141.299-.212.474-.212s.333.071.474.212a.656.656 0 01.212.474.656.656 0 01-.212.474c-.141.141-.299.212-.474.212s-.333-.071-.474-.212a.656.656 0 01-.212-.474zm.806-.222c0 .108.06.161.181.161s.181-.054.181-.161c0-.121-.06-.181-.181-.181-.12 0-.181.06-.181.181zm3.388-1.754c.108-.175.356-.262.746-.262.175 0 .397.067.665.202-.134-.296-.37-.444-.706-.444-.417 0-.652.168-.705.504zm.463 1.573c0-.161.06-.299.181-.413a.574.574 0 01.816 0 .574.574 0 010 .816.547.547 0 01-.816 0 .562.562 0 01-.181-.403zm.706-.202c0 .108.047.161.141.161.108 0 .161-.054.161-.161 0-.094-.054-.141-.161-.141-.094 0-.141.047-.141.141z" />
</svg>