<svg xmlns="http://www.w3.org/2000/svg" viewBox="0 0 16 16" width="16"
  height="16" fill="context-fill" fill-opacity="context-fill-opacity">
  <path d="M14,0H2C0.895,0,0,0.895,0,2v12c0,1.105,0.895,2,2,2h12c1.105,0,2-0.895,2-2V2C16,0.895,15.105,0,14,0z M12.74,14
	c0,0-2.3-0.1-3.3-0.1h-4.4L2.44,14v-0.7l0.9-0.2c0.6-0.1,0.7-0.2,0.7-0.7c0,0,0.1-1.6,0.1-4.3c0-2.7-0.1-4.4-0.1-4.4
	c0-0.5-0.2-0.6-0.8-0.7l-0.8-0.2V2.1l2.6,0.1h4.9c1,0,2.6-0.2,2.6-0.2s-0.1,1-0.1,3.4h-0.7l-0.2-0.8c-0.3-1.1-0.7-1.6-1.4-1.6h-3.8
	c-0.3,0-0.3,0-0.3,0.2v4.4c0,0,1.586,0.043,2.4-0.1c0.458-0.08,0.721-0.269,0.9-0.7c0.107-0.258,0.2-1.1,0.2-1.1h0.7v2.1V10h-0.7
	c0,0-0.075-0.535-0.2-0.8c-0.218-0.461-0.504-0.743-0.9-0.8c-0.825-0.119-2.4-0.1-2.4-0.1V12c0,0.7,0.4,1,1.2,1h2.6
	c0.9,0.1,1.8-0.4,2.1-1.2l0.7-1.4h0.6C13.14,10.8,12.84,13.4,12.74,14z" />
</svg>
