<svg xmlns="http://www.w3.org/2000/svg" viewBox="0 0 16 16" width="16" height="16" fill="context-fill"
	fill-opacity="context-fill-opacity">
	<path d="M3.184,0.353C3.407,0.455,3.576,0.64,3.723,0.831c0.155,0.204,0.281,0.448,0.273,0.71C3.999,1.909,3.723,2.236,3.812,2.61
	c0.064,0.218,0.21,0.425,0.418,0.526C4.541,3.27,4.894,3.141,5.159,2.962C5.45,2.691,5.73,2.406,6.016,2.129
	C6.451,1.698,7.483,0.674,7.58,0.614C7.735,0.517,7.864,0.518,8,0.518c0.136,0,0.281,0.03,0.38,0.113
	c0.818,0.679,1.601,1.496,2.36,2.237c0.142,0.155,0.342,0.239,0.541,0.295c0.213,0.059,0.46,0.031,0.63-0.119
	c0.182-0.161,0.317-0.401,0.294-0.65c-0.027-0.303-0.212-0.572-0.2-0.881c0.004-0.344,0.218-0.639,0.441-0.882
	c0.22-0.25,0.549-0.393,0.881-0.399c0.434-0.021,0.86,0.113,1.244,0.303c0.308,0.156,0.605,0.351,0.832,0.615
	c0.28,0.337,0.469,0.749,0.556,1.178c0.07,0.374,0.061,0.785-0.136,1.121c-0.198,0.326-0.54,0.563-0.915,0.634
	c-0.249,0.047-0.503,0.026-0.752-0.006c-0.124-0.014-0.249-0.039-0.374-0.027c-0.221,0.029-0.444,0.133-0.568,0.324
	c-0.132,0.202-0.134,0.466-0.057,0.689c0.052,0.146,0.124,0.29,0.237,0.399c0.432,0.398,0.858,0.803,1.273,1.219
	c0.329,0.332,0.659,0.665,0.949,1.033c0.075,0.108,0.175,0.221,0.163,0.362c0,0.122-0.035,0.243-0.096,0.349
	c-0.063,0.118-0.172,0.201-0.26,0.299c-0.41,0.43-0.822,0.858-1.233,1.287c-0.071,0.069-0.126,0.163-0.224,0.195
	c-0.249,0.094-0.521,0.144-0.786,0.1c-0.325-0.056-0.598-0.327-0.67-0.647c-0.075-0.377,0.08-0.749,0.053-1.127
	c-0.016-0.265-0.143-0.516-0.334-0.697c-0.197-0.198-0.475-0.295-0.749-0.312c-0.389-0.022-0.774,0.092-1.117,0.267
	C9.792,8.082,9.334,8.579,9.062,9.159c-0.16,0.356-0.255,0.762-0.168,1.15c0.085,0.408,0.396,0.769,0.798,0.89
	c0.257,0.081,0.53,0.06,0.795,0.049c0.288-0.017,0.597-0.071,0.87,0.055c0.296,0.157,0.439,0.519,0.385,0.842
	c-0.027,0.133-0.043,0.285-0.15,0.38c-0.935,0.956-1.87,1.913-2.804,2.871c-0.194,0.156-0.418,0.283-0.658,0.353
	c-0.19,0.059-0.385-0.018-0.552-0.105c-0.128-0.07-0.254-0.149-0.362-0.248c-0.939-0.963-1.881-1.924-2.82-2.887
	c-0.065-0.059-0.084-0.147-0.107-0.228c-0.073-0.265-0.042-0.571,0.134-0.789c0.126-0.174,0.34-0.259,0.55-0.266
	c0.408-0.015,0.82,0.081,1.226,0.003c0.4-0.077,0.735-0.39,0.868-0.771c0.106-0.302,0.09-0.635,0.005-0.94
	C6.915,8.975,6.576,8.493,6.149,8.129c-0.388-0.32-0.861-0.552-1.365-0.602C4.46,7.493,4.113,7.556,3.851,7.761
	C3.618,7.948,3.454,8.229,3.436,8.53C3.41,8.881,3.545,9.225,3.503,9.575c-0.04,0.356-0.332,0.672-0.687,0.731
	c-0.242,0.039-0.49,0-0.72-0.078c-0.05-0.018-0.105-0.03-0.143-0.069c-0.5-0.519-0.997-1.042-1.497-1.561
	C0.293,8.451,0.203,8.226,0.223,8.008c0.022-0.117,0.102-0.212,0.17-0.307C0.769,7.232,1.2,6.813,1.626,6.39
	c0.314-0.302,0.626-0.604,0.948-0.898C2.733,5.352,2.826,5.15,2.875,4.946c0.043-0.2,0.017-0.423-0.103-0.592
	c-0.172-0.232-0.483-0.34-0.765-0.296C1.662,4.102,1.302,4.155,0.962,4.052c-0.427-0.127-0.801-0.47-0.911-0.909
	C-0.056,2.73,0.016,2.291,0.165,1.898C0.262,1.64,0.4,1.397,0.57,1.179c0.222-0.265,0.511-0.464,0.816-0.622
	C1.68,0.404,1.999,0.293,2.329,0.246C2.616,0.211,2.919,0.225,3.184,0.353z" />
</svg>