<svg xmlns="http://www.w3.org/2000/svg" viewBox="0 0 16 16" width="16" height="16" fill="context-fill"
    fill-opacity="context-fill-opacity">
    <path d="M15.766,9.912c-0.145,0.58-0.421,1.341-0.477,1.307c-0.134-0.074-0.409-0.324-0.526-0.472
	c-0.182-0.227-0.193-0.256-0.258-0.54c-0.031-0.131-0.122-0.432-0.202-0.665l-0.145-0.429l0.043-0.378
	c0.224-1.918-0.426-3.796-1.787-5.153c-1.895-1.895-4.79-2.375-7.174-1.191C3.959,3.031,3.013,3.98,2.382,5.258
	C1.919,6.201,1.718,7.142,1.754,8.213c0.017,0.486,0.06,0.818,0.165,1.267l0.057,0.241L1.885,9.977
	c-0.139,0.398-0.318,0.784-0.46,0.997c-0.142,0.213-0.384,0.457-0.523,0.528l-0.085,0.045l-0.134-0.301
	c-0.335-0.758-0.545-1.543-0.645-2.395c-0.045-0.389-0.045-1.324,0-1.719C0.186,5.846,0.646,4.59,1.365,3.525
	c0.56-0.835,1.321-1.597,2.156-2.156C4.729,0.553,6.121,0.09,7.612,0.005c0.281-0.017,1.031,0.014,1.364,0.054
	c0.991,0.119,2.079,0.477,2.935,0.963c1.085,0.614,2.031,1.486,2.716,2.503C15.888,5.397,16.303,7.733,15.766,9.912z M9.288,7.942
	c0.139-0.275,0.134-0.344-0.051-0.585C9.061,7.13,8.933,7.034,8.802,7.034c-0.148,0-0.227,0.043-0.438,0.241
	C8.256,7.377,8.163,7.46,8.154,7.46c-0.026,0-0.548-0.756-0.827-1.193C6.995,5.741,6.717,5.232,6.45,4.673L6.251,4.258L5.611,4.241
	c-0.352-0.011-0.957-0.029-1.341-0.04L3.572,4.184L3.396,4.445C3.3,4.587,3.215,4.721,3.206,4.744
	C3.197,4.769,3.297,4.815,3.544,4.9c0.193,0.065,0.392,0.145,0.443,0.176l0.097,0.057L4.067,5.354
	c-0.02,0.239-0.111,0.557-0.338,1.153C3.652,6.709,3.595,6.903,3.598,6.934C3.604,6.968,3.646,7.005,3.72,7.033
	C3.783,7.056,3.925,7.13,4.033,7.195c0.205,0.122,0.454,0.202,0.54,0.17C4.598,7.354,4.678,7.221,4.749,7.07
	c0.23-0.5,0.247-0.5,0.71-0.031c0.548,0.562,0.858,1.028,1.148,1.727c0.335,0.81,0.543,1.565,0.807,2.915
	c0.111,0.568,0.119,0.719,0.06,0.949c-0.023,0.085-0.04,0.159-0.037,0.159c0.003,0.003,0.153,0.077,0.332,0.168
	c0.193,0.097,0.33,0.151,0.335,0.131c0.006-0.017,0.071-0.125,0.145-0.236c0.185-0.284,0.483-0.565,0.954-0.904
	c0.219-0.159,0.429-0.31,0.466-0.338l0.071-0.048l-0.051-0.185c-0.029-0.099-0.139-0.452-0.247-0.784
	c-0.293-0.901-0.341-1.114-0.358-1.6C9.069,8.63,9.075,8.553,9.129,8.36C9.163,8.238,9.234,8.051,9.288,7.942z M14.152,10.781
	c-0.043-0.088-0.122-0.327-0.176-0.528c-0.173-0.676-0.415-1.27-1.094-2.693c-0.423-0.886-0.685-1.469-0.878-1.946
	c-0.071-0.179-0.074-0.207-0.077-0.79l-0.003-0.608l-0.082-0.054c-0.105-0.068-0.205-0.068-0.509,0.006
	c-0.432,0.102-1.256,0.074-1.696-0.057C9.36,4.027,9.323,4.022,9.24,4.067c-0.079,0.04-0.278,0.341-0.278,0.418
	c0,0.065,0.176,0.199,0.421,0.318c0.295,0.142,0.466,0.253,0.537,0.349c0.054,0.074,0.057,0.097,0.031,0.222
	C9.899,5.618,9.746,5.9,9.49,6.223C9.195,6.593,9.175,6.627,9.2,6.763c0.037,0.188,0.492,0.611,0.656,0.611
	c0.026,0,0.111-0.034,0.19-0.074c0.111-0.057,0.159-0.068,0.205-0.045c0.06,0.026,0.364,0.5,0.509,0.787
	c0.153,0.307,0.872,1.975,0.946,2.188c0.057,0.17,0.077,0.29,0.079,0.469c0.003,0.222-0.006,0.261-0.091,0.432
	c-0.077,0.156-0.153,0.247-0.432,0.506c-0.185,0.173-0.358,0.347-0.384,0.386c-0.043,0.068-0.04,0.074,0.117,0.275
	c0.088,0.111,0.173,0.202,0.188,0.196c0.014-0.003,0.193-0.077,0.398-0.162c0.67-0.284,1.122-0.384,1.73-0.384
	c0.432,0,0.722,0.043,1.162,0.17c0.165,0.045,0.307,0.085,0.315,0.085c0.02,0,0.281-0.449,0.281-0.48
	c0-0.011-0.077-0.074-0.173-0.145C14.649,11.4,14.246,10.965,14.152,10.781z M3.862,12.014l0.114,0.006l0.009-0.176l0.009-0.176
	l-0.151-0.097c-0.168-0.108-0.381-0.324-0.421-0.432c-0.014-0.04-0.02-0.105-0.014-0.148c0.009-0.045,0.034-0.225,0.057-0.404
	c0.051-0.372,0.182-0.815,0.386-1.33C4.197,8.392,4.365,7.912,4.348,7.84c-0.017-0.06-0.085-0.105-0.366-0.239
	c-0.474-0.23-0.483-0.23-0.568-0.094C3.18,7.874,2.967,8.4,2.587,9.525c-0.304,0.901-0.457,1.287-0.631,1.58
	c-0.21,0.361-0.5,0.676-0.756,0.827l-0.134,0.077l0.156,0.247c0.088,0.136,0.17,0.244,0.188,0.239
	c0.017-0.006,0.082-0.043,0.148-0.088c0.239-0.159,0.602-0.293,0.992-0.364C2.785,12,3.376,11.985,3.862,12.014z M13.408,12.471
	c-0.284-0.006-0.497,0.003-0.637,0.031c-0.472,0.088-0.565,0.125-0.821,0.335c-0.844,0.69-1.918,1.17-3.003,1.341
	c-0.404,0.062-1.159,0.085-1.551,0.045c-0.454-0.048-0.966-0.156-1.369-0.29c-0.713-0.239-1.509-0.69-2.091-1.188l-0.27-0.23
	l-0.213-0.003C2.982,12.51,2.791,12.522,2.55,12.57c-0.281,0.06-0.634,0.196-0.761,0.298l-0.082,0.068l0.082,0.108
	c0.187,0.247,0.642,0.719,0.94,0.975c1.835,1.583,4.188,2.256,6.546,1.878c2.017-0.327,3.852-1.429,5.094-3.06
	c0.114-0.148,0.125-0.176,0.085-0.19C14.008,12.514,13.817,12.479,13.408,12.471z" />
</svg>