<svg xmlns="http://www.w3.org/2000/svg" viewBox="0 0 16 16" width="16" height="16" fill="context-fill"
    fill-opacity="context-fill-opacity">
    <path class="st0" d="M8,0.198c-4.42,0-8,3.58-8,8c0,3.541,2.291,6.53,5.47,7.591c0.4,0.07,0.55-0.17,0.55-0.38
	c0-0.191-0.009-0.82-0.009-1.491c-2.009,0.37-2.53-0.491-2.691-0.941c-0.091-0.23-0.48-0.941-0.82-1.13
	c-0.28-0.15-0.68-0.52-0.009-0.53c0.63-0.009,1.08,0.58,1.23,0.82c0.72,1.209,1.87,0.87,2.33,0.659c0.07-0.52,0.28-0.87,0.509-1.07
	c-1.78-0.2-3.641-0.891-3.641-3.95c0-0.87,0.309-1.591,0.82-2.15c-0.08-0.2-0.359-1.02,0.08-2.12c0,0,0.67-0.209,2.2,0.82
	c0.641-0.18,1.32-0.27,2-0.27s1.359,0.091,2,0.27c1.53-1.041,2.2-0.82,2.2-0.82c0.441,1.1,0.159,1.92,0.08,2.12
	c0.509,0.559,0.82,1.27,0.82,2.15c0,3.07-1.87,3.75-3.65,3.95c0.291,0.25,0.541,0.73,0.541,1.48c0,1.07-0.009,1.93-0.009,2.2
	c0,0.209,0.15,0.459,0.55,0.38C13.709,14.728,16,11.728,16,8.198C16,3.778,12.42,0.198,8,0.198z" />
</svg>