<svg xmlns="http://www.w3.org/2000/svg" viewBox="0 0 16 16" width="16" height="16" fill="context-fill"
	fill-opacity="context-fill-opacity">
	<path d="M14.476,15.238H1.524C0.682,15.238,0,14.556,0,13.714V2.286c0-0.842,0.682-1.524,1.524-1.524h12.952
	C15.318,0.762,16,1.444,16,2.286v11.429C16,14.556,15.318,15.238,14.476,15.238z M14.476,3.429c0-0.842-0.301-1.143-1.143-1.143
	H2.667c-0.842,0-1.143,0.301-1.143,1.143v9.143c0,0.842,0.301,1.143,1.143,1.143h10.667c0.842,0,1.143-0.301,1.143-1.143V3.429z
	 M2.286,11.657l2.062-2.095l0.627,0.648l4.034-4.114l2.353,2.743L12.37,7.81l1.345,1.371v3.771H2.286V11.657z M4.47,7.124
	C3.239,7.149,2.221,6.171,2.196,4.94C2.17,3.709,3.148,2.691,4.379,2.666C5.61,2.641,6.628,3.619,6.653,4.85c0,0.015,0,0.03,0,0.045
	C6.666,6.113,5.688,7.111,4.47,7.124z" />
</svg>