<svg xmlns="http://www.w3.org/2000/svg" viewBox="0 0 16 16" width="16" height="16" fill="context-fill"
	fill-opacity="context-fill-opacity">
	<path opacity="0.6" d="M5.572,10.091l2.416,0.022H7.986l-5.161,4.756L5.572,10.091z M7.986,5.918l-2.75-4.762l1.551,6.838L7.986,5.918z
	 M15.945,10.091L15.945,10.091l-0.006-0.014L9.188,8L9.186,7.996L9.183,7.995l1.215,2.11L15.945,10.091L15.945,10.091z" />
	<path d="M5.202,1.082L0,10.091l2.786,4.824h0.013L6.784,8L5.22,1.082L5.202,1.082z M10.772,1.082l-5.562,0L5.206,1.103L9.188,8
	l6.74,2.074l0.01,0.003l0.006,0.014L16,10.097l-0.022-0.031L10.772,1.082z M15.987,10.091l-8.002,0.022l-5.187,4.78v0.022
	l10.418,0.003L16,10.097L15.987,10.091z" />
</svg>