<svg xmlns="http://www.w3.org/2000/svg" viewBox="0 -.2 16 16">
    <path fill="context-fill" fill-opacity="context-fill-opacity"
        d="M8.141 6.997h6.608c.073.407.109.796.109 1.167 0 1.319-.276 2.496-.829 3.532s-1.341 1.846-2.365 2.429S9.466 15 8.141 15a6.891 6.891 0 01-2.725-.551 7.003 7.003 0 01-2.233-1.49 6.986 6.986 0 01-1.49-2.233C1.325 9.862 1.141 8.954 1.141 8s.184-1.862.551-2.725.864-1.607 1.49-2.233 1.37-1.123 2.233-1.49S7.187 1 8.141 1c1.823 0 3.388.611 4.694 1.832L10.93 4.664c-.747-.723-1.677-1.085-2.789-1.085-.784 0-1.508.197-2.174.592s-1.192.932-1.581 1.61S3.803 7.198 3.803 8s.194 1.542.583 2.219.916 1.214 1.581 1.609 1.39.592 2.174.592c.529 0 1.015-.073 1.458-.219.444-.146.808-.328 1.094-.547s.535-.468.747-.747.369-.544.469-.793c.1-.249.169-.486.205-.711H8.141V6.997z" />
</svg>