<svg xmlns="http://www.w3.org/2000/svg" viewBox="0 0 16 16" width="16" height="16" fill="context-fill"
	fill-opacity="context-fill-opacity">
	<path d="M15.158,6.636H8.17v2.898h4.023c-0.202,0.989-0.755,1.742-1.539,2.236c-0.676,0.426-1.521,0.662-2.483,0.662
	c-1.969,0-3.611-1.281-4.192-3.052C3.978,9.379,3.977,9.376,3.976,9.374C3.834,8.939,3.739,8.484,3.739,8
	c0-0.486,0.097-0.944,0.24-1.381c0.58-1.77,2.223-3.051,4.192-3.051c1.057,0,2.011,0.375,2.761,0.989l2.182-2.182
	C11.784,1.216,10.08,0.5,8.17,0.5c-2.964,0-5.506,1.702-6.726,4.182C0.953,5.682,0.67,6.805,0.67,8c0,1.194,0.283,2.317,0.773,3.316
	c0,0.001,0.001,0.002,0.001,0.002C2.664,13.798,5.206,15.5,8.17,15.5c1.829,0,3.574-0.653,4.884-1.871
	c1.377-1.28,2.275-3.184,2.275-5.629C15.329,7.557,15.26,7.079,15.158,6.636z" />
</svg>