<svg xmlns="http://www.w3.org/2000/svg" viewBox="0 0 16 16" width="16" height="16" fill-opacity="context-fill-opacity">
	<path fill="#FBBC05" d="M3.739,8c0-0.486,0.097-0.944,0.24-1.381L1.445,4.682C0.954,5.682,0.671,6.805,0.671,8
	c0,1.194,0.283,2.317,0.773,3.316l2.532-1.942C3.835,8.939,3.739,8.484,3.739,8z" />
	<path fill="#EA4335" d="M8.171,3.568c1.057,0,2.011,0.375,2.761,0.989l2.182-2.182C11.785,1.216,10.08,0.5,8.171,0.5
	c-2.964,0-5.506,1.702-6.726,4.182l2.533,1.937C4.559,4.849,6.202,3.568,8.171,3.568z" />
	<path fill="#34A853" d="M8.171,12.432c-1.969,0-3.611-1.281-4.192-3.051C3.978,9.379,3.977,9.376,3.976,9.374l-2.532,1.942
	c0,0.001,0.001,0.002,0.001,0.002c1.22,2.481,3.761,4.182,6.726,4.182c1.829,0,3.574-0.653,4.884-1.871l-2.4-1.858
	C9.978,12.196,9.133,12.432,8.171,12.432z" />
	<path fill="#4285F4" d="M15.159,6.636H8.171v2.898h4.023c-0.202,0.989-0.755,1.742-1.539,2.236l2.4,1.858
	c1.377-1.28,2.275-3.184,2.275-5.629C15.329,7.557,15.261,7.079,15.159,6.636z" />
</svg>