<svg xmlns="http://www.w3.org/2000/svg" viewBox="0 0 16 16" width="16" height="16" fill="context-fill"
	fill-opacity="context-fill-opacity">
	<path opacity="0.33"
		d="M9.692,0.266C9.16,0.097,8.58,0,7.988,0C6.284,0,4.749,0.773,3.722,1.994l2.634,2.211L9.692,0.266z" />
	<path opacity="0.5" d="M3.722,1.994c-0.81,0.967-1.305,2.224-1.305,3.577c0,1.051,0.205,1.897,0.556,2.659l3.384-4.024
	C6.356,4.205,3.722,1.994,3.722,1.994z" />
	<path opacity="0.67" d="M8,3.444c1.184,0,2.139,0.955,2.139,2.139c0,0.52-0.193,1.003-0.508,1.378c0,0,1.68-2.006,3.323-3.952
	c-0.677-1.305-1.849-2.296-3.263-2.743l-3.335,3.94C6.755,3.746,7.335,3.444,8,3.444" />
	<path opacity="0.83" d="M8,7.71c-1.184,0-2.139-0.955-2.139-2.139c0-0.52,0.181-1.003,0.495-1.366L2.973,8.23
	c0.58,1.281,1.547,2.32,2.538,3.613l4.121-4.894C9.233,7.42,8.653,7.71,8,7.71" />
	<path d="M9.559,13.196c1.861-2.912,4.024-4.23,4.024-7.613c0-0.931-0.23-1.801-0.628-2.574l-7.444,8.834
	c0.314,0.411,0.64,0.882,0.955,1.366C7.601,14.961,7.287,16,8.012,16S8.423,14.949,9.559,13.196" />
</svg>