<svg xmlns="http://www.w3.org/2000/svg" viewBox="0 0 16 16" width="16"
  height="16" fill="context-fill" fill-opacity="context-fill-opacity">
  <path
    d="M14,0H2C0.895,0,0,0.895,0,2v12c0,1.105,0.895,2,2,2h12c1.105,0,2-0.895,2-2V2C16,0.895,15.105,0,14,0z M10.295,14.701
	L9.9,13.987c-0.09-0.142-0.215-0.259-0.362-0.34c-0.147-0.081-0.313-0.123-0.481-0.123l-3.028,0.123
	c-0.4-0.002-0.791-0.116-1.129-0.328c-0.475-0.303-0.942-0.874-1.049-1.424c-0.194-1.004,0.145-1.907,0.884-2.596
	C4.774,9.264,4.81,9.233,4.843,9.208l0.216-0.166c-0.462-0.626-0.711-1.383-0.71-2.161c0.001-0.967,0.386-1.894,1.07-2.578
	c0.684-0.684,1.611-1.069,2.578-1.07c0.346,0,0.691,0.049,1.023,0.147C9.176,2.994,9.443,2.663,9.787,2.43s0.751-0.357,1.167-0.358
	h0.767v1.788l-0.439-0.047c-0.139-0.015-0.28,0.002-0.411,0.049c-0.132,0.047-0.251,0.123-0.349,0.223l-0.084,0.085
	c0.38,0.341,0.685,0.759,0.893,1.226c0.208,0.467,0.316,0.972,0.315,1.484c-0.001,0.967-0.386,1.894-1.069,2.578
	s-1.611,1.069-2.578,1.07c-0.614,0.001-1.218-0.155-1.755-0.451c-0.141,0.179-0.291,0.399-0.357,0.55
	c-0.138,0.32-0.025,1.115,0.717,1.115h2.7c0.536,0,1.061,0.154,1.513,0.443c0.451,0.289,0.81,0.702,1.034,1.189l0.321,0.699
	L10.295,14.701z M6.767,8.112C6.44,7.785,6.256,7.342,6.255,6.88C6.256,6.418,6.44,5.975,6.767,5.648
	c0.327-0.327,0.77-0.511,1.232-0.512c0.462,0.001,0.905,0.185,1.232,0.512s0.511,0.77,0.512,1.232
	C9.742,7.342,9.558,7.785,9.231,8.112s-0.77,0.511-1.232,0.512C7.537,8.623,7.094,8.439,6.767,8.112z" />
</svg>