<svg xmlns="http://www.w3.org/2000/svg" viewBox="0 0 16 16" width="16"
  height="16" fill="context-fill black" fill-opacity="context-fill-opacity">
  <path
    d="M16,4v10.4c0,.88-.72,1.6-1.6,1.6h-6.4l-.8-2.4H1.6c-.88,0-1.6-.72-1.6-1.6V1.6C0,.72.72,0,1.6,0h4.8l.704,2.4h7.296c.88,0,1.6.72,1.6,1.6ZM6.457,10.785l-.211-.46c-.148-.321-.384-.593-.681-.783-.298-.19-.644-.292-.997-.292h-1.779c-.489,0-.563-.524-.472-.735.043-.099.142-.244.235-.362.354.195.752.298,1.156.297.637,0,1.248-.254,1.698-.705.45-.451.704-1.061.704-1.698,0-.337-.071-.67-.208-.978-.137-.308-.338-.583-.588-.808l.055-.056c.065-.066.143-.116.23-.147.086-.031.179-.042.271-.032l.289.031v-1.178h-.505c-.274,0-.542.082-.769.236s-.403.372-.505.626c-.219-.065-.446-.097-.674-.097-.637,0-1.248.254-1.698.705-.451.451-.704,1.061-.705,1.698,0,.513.163,1.011.468,1.424l-.142.109c-.022.016-.045.037-.071.06-.487.454-.71,1.049-.582,1.71.071.362.378.739.691.938.223.14.48.215.744.216l1.995-.081c.111,0,.22.028.317.081.097.053.179.13.238.224l.26.47,1.237-.414ZM2.896,6.858c-.215-.215-.337-.507-.337-.812,0-.304.122-.596.337-.812.215-.215.507-.337.812-.337.304,0,.596.122.812.337.215.215.337.507.337.812,0,.304-.122.596-.337.812s-.507.337-.812.337c-.304,0-.596-.122-.812-.337ZM8.784,8.096h.792c.192.376.488.864.904,1.36.976-1.144,1.248-2.192,1.248-2.192h-3.192l.248.832ZM8.96,8.704l.52,1.784.432-.424c-.36-.416-.688-.88-.952-1.36ZM15.2,4c0-.44-.36-.8-.8-.8h-7.056l.944,3.232h1.568v-.832h.832v.832h2.912v.832h-1.016c-.256,1.008-.816,1.984-1.536,2.808l2.168,2.144-.584.584-2.144-2.152-.736.736.648,2.216-1.6,1.6h5.6c.44,0,.8-.36.8-.8V4Z" />
</svg>