<svg xmlns="http://www.w3.org/2000/svg" viewBox="0 0 16 16" width="16" height="16" fill="context-fill"
	fill-opacity="context-fill-opacity">
	<path d="M0,0v16h16V0H0z M14.942,8.063v0.004c-0.069,0.133-0.144,0.258-0.21,0.39c-0.089,0.197-0.295,0.314-0.51,0.288
	c-0.081-0.003-0.16,0.023-0.223,0.072c-0.197,0.13-0.398,0.258-0.602,0.379c-0.282,0.155-0.618,0.173-0.915,0.049
	c-0.489-0.189-1.008-0.287-1.531-0.288C10.423,8.941,9.919,9.17,9.587,9.579C9.452,9.767,9.348,9.976,9.28,10.197
	c-0.179,0.442-0.331,3.08-0.331,3.753c0,0-2.538-0.493-4.92-2.93L4.65,9.389H2.705l1.406-1.491h-2.42l1.408-1.49H0.8l2.559-2.713
	c0.784-0.777,1.771-1.317,2.848-1.56C7.23,1.959,7.494,2.059,8.125,2.246l0.35,0.105l0.122,0.036l0.447,0.137
	c0.292,0.079,0.6,0.084,0.895,0.013c0.4-0.104,0.825-0.052,1.189,0.144c0.328,0.188,0.548,0.52,0.591,0.896
	c0.038,0.331,0.231,0.625,0.52,0.791c0.43,0.235,0.879,0.433,1.343,0.592c0.327,0.124,0.654,0.265,0.978,0.392
	c0.161,0.061,0.303,0.163,0.412,0.297c0.093,0.111,0.148,0.249,0.159,0.393c0.02,0.288,0.053,0.576,0.068,0.864
	C15.219,7.308,15.131,7.708,14.942,8.063z" />
</svg>