<svg xmlns="http://www.w3.org/2000/svg" viewBox="0 0 121.8 221" fill="context-fill" fill-opacity="context-fill-opacity">
    <path opacity="0.75"
        d="M0 0v110.4C0 171.2.1 220.9.1 221c.1.1 3.8-.3 8.4-.8 4.5-.5 10.8-1.1 13.9-1.4 4.8-.4 19.1-1.3 20.7-1.3.5 0 .5-2.5.6-46.8l.1-46.7L0 0zm121.7 110.5V.1H78.4L78.3 49l-.1 48.8L121.6 221c.1-.1.2-49.9.1-110.5z" />
    <path
        d="M78.2 97.8l-4-11.3c-4-11.1-6.6-18.5-22.4-63.1-4.2-12-7.8-22.2-8-22.6l-.2-.8H0l43.8 124v-.1l3.5 9.8c19.2 54.4 29.6 83.6 29.6 83.7 0 0 2.9.2 6.5.4 10.7.5 23.9 1.7 33.9 2.9 2.3.3 4.3.4 4.4.3L78.2 97.8z" />
</svg>