<svg xmlns="http://www.w3.org/2000/svg" viewBox="0 0 16 16" width="16" height="16" fill="context-fill"
	fill-opacity="context-fill-opacity">
	<path d="M10.07,0.275C5.805-0.867,1.421,1.662,0.275,5.931s1.388,8.653,5.656,9.795c4.268,1.142,8.653-1.388,9.795-5.656
	C16.868,5.801,14.338,1.42,10.07,0.275z M10.375,12.462l-3.394,1.296c-0.123,0.046-0.225,0.141-0.281,0.26
	c-0.053,0.119-0.06,0.256-0.014,0.379l0.011,0.028c0.046,0.123,0.141,0.225,0.26,0.281s0.256,0.06,0.383,0.014l1.887-0.692
	c0.123-0.046,0.26-0.039,0.383,0.014c0.119,0.056,0.214,0.158,0.26,0.281l0.007,0.021c0.081,0.228-0.01,0.481-0.221,0.604
	c-3.64,0.864-7.335-1.201-8.505-4.75C-0.02,6.651,1.723,2.79,5.162,1.325c0.2,0.021,0.372,0.151,0.443,0.341
	c0.102,0.271,0.404,0.411,0.674,0.313l0.615-0.225c0.123-0.046,0.26-0.042,0.383,0.014c0.119,0.056,0.214,0.158,0.26,0.281
	L7.544,2.07C7.59,2.193,7.583,2.33,7.53,2.453c-0.056,0.119-0.158,0.214-0.281,0.26L2.973,4.287C2.85,4.332,2.748,4.427,2.692,4.547
	C2.636,4.666,2.633,4.803,2.678,4.93l0.007,0.021c0.046,0.123,0.141,0.225,0.26,0.281s0.256,0.06,0.383,0.014l3.123-1.149
	c0.123-0.046,0.26-0.039,0.383,0.014c0.119,0.056,0.214,0.158,0.26,0.281l0.007,0.021c0.046,0.123,0.039,0.26-0.014,0.383
	C7.031,4.915,6.929,5.01,6.806,5.056L1.814,6.89C1.691,6.936,1.589,7.03,1.533,7.15s-0.06,0.256-0.014,0.383l0.007,0.021
	c0.046,0.123,0.141,0.225,0.26,0.281s0.256,0.06,0.383,0.014l6.134-2.252c0.123-0.046,0.26-0.042,0.383,0.014
	C8.805,5.667,8.9,5.769,8.946,5.892l0.018,0.049c0.046,0.123,0.039,0.26-0.014,0.383c-0.056,0.119-0.158,0.214-0.281,0.26
	l-4.409,1.62c-0.123,0.046-0.225,0.141-0.281,0.26S3.918,8.72,3.964,8.847l0.007,0.021c0.046,0.123,0.141,0.225,0.26,0.281
	s0.256,0.06,0.383,0.014l2.02-0.745c0.123-0.046,0.26-0.039,0.383,0.014c0.119,0.056,0.214,0.158,0.26,0.281l0.007,0.021
	C7.33,8.857,7.323,8.994,7.27,9.117c-0.056,0.119-0.158,0.214-0.281,0.26l-3.474,1.279c-0.123,0.046-0.225,0.141-0.281,0.26
	s-0.06,0.256-0.014,0.383l0.007,0.021c0.046,0.123,0.141,0.225,0.26,0.281s0.256,0.06,0.383,0.014l4.708-1.732
	C8.7,9.837,8.837,9.844,8.96,9.897c0.119,0.056,0.214,0.158,0.26,0.281l0.007,0.021c0.046,0.123,0.039,0.26-0.014,0.383
	c-0.056,0.119-0.158,0.214-0.281,0.26l-2.933,1.075c-0.123,0.046-0.225,0.141-0.281,0.26s-0.06,0.256-0.014,0.383l0.007,0.021
	c0.046,0.123,0.141,0.225,0.26,0.281s0.256,0.06,0.383,0.014l3.671-1.349c0.123-0.046,0.26-0.039,0.383,0.014
	c0.119,0.056,0.214,0.158,0.26,0.281C10.762,12.079,10.632,12.363,10.375,12.462z" />
</svg>