<svg xmlns="http://www.w3.org/2000/svg" viewBox="0 0 460 460"><path d="M288.9 10.1C167.5-22.4 42.7 49.6 10.1 171.1s39.5 246.3 161 278.8 246.3-39.5 278.8-161-39.5-246.2-161-278.8zm-96.3 402l.3.8c1.3 3.5 4 6.4 7.4 8 3.4 1.6 7.3 1.7 10.9.4l53.7-19.7c3.5-1.3 7.4-1.1 10.9.4 3.4 1.6 6.1 4.5 7.4 8l.2.6c2.3 6.5-.3 13.7-6.3 17.2C173.5 452.4 68.3 393.6 35 292.6S51.3 81.7 149.2 40c5.7.6 10.6 4.3 12.6 9.7 2.9 7.7 11.5 11.7 19.2 8.9l17.5-6.4c3.5-1.3 7.4-1.2 10.9.4 3.4 1.6 6.1 4.5 7.4 8l.2.6c1.3 3.5 1.1 7.4-.4 10.9-1.6 3.4-4.5 6.1-8 7.4L86.9 124.3c-3.5 1.3-6.4 4-8 7.4-1.6 3.4-1.7 7.3-.4 10.9l.2.6c1.3 3.5 4 6.4 7.4 8 3.4 1.6 7.3 1.7 10.9.4l88.9-32.7c3.5-1.3 7.4-1.1 10.9.4 3.4 1.6 6.1 4.5 7.4 8l.2.6c1.3 3.5 1.1 7.4-.4 10.9-1.6 3.4-4.5 6.1-8 7.4L53.9 198.4c-3.5 1.3-6.4 4-8 7.4-1.6 3.4-1.7 7.3-.4 10.9l.2.6c1.3 3.5 4 6.4 7.4 8 3.4 1.6 7.3 1.7 10.9.4l174.6-64.1c3.5-1.3 7.4-1.2 10.9.4 3.4 1.6 6.1 4.5 7.4 8l.5 1.4c1.3 3.5 1.1 7.4-.4 10.9-1.6 3.4-4.5 6.1-8 7.4l-125.5 46.1c-3.5 1.3-6.4 4-8 7.4-1.6 3.4-1.7 7.3-.4 10.9l.2.6c1.3 3.5 4 6.4 7.4 8 3.4 1.6 7.3 1.7 10.9.4l57.5-21.2c3.5-1.3 7.4-1.1 10.9.4 3.4 1.6 6.1 4.5 7.4 8l.2.6c1.3 3.5 1.1 7.4-.4 10.9-1.6 3.4-4.5 6.1-8 7.4l-98.9 36.4c-3.5 1.3-6.4 4-8 7.4-1.6 3.4-1.7 7.3-.4 10.9l.2.6c1.3 3.5 4 6.4 7.4 8 3.4 1.6 7.3 1.7 10.9.4l134-49.3c3.5-1.3 7.4-1.1 10.9.4 3.4 1.6 6.1 4.5 7.4 8l.2.6c1.3 3.5 1.1 7.4-.4 10.9-1.6 3.4-4.5 6.1-8 7.4L173 341.5c-3.5 1.3-6.4 4-8 7.4-1.6 3.4-1.7 7.3-.4 10.9l.2.6c1.3 3.5 4 6.4 7.4 8 3.4 1.6 7.3 1.7 10.9.4l104.5-38.4c3.5-1.3 7.4-1.1 10.9.4 3.4 1.6 6.1 4.5 7.4 8 2.7 7.3-1 15.4-8.3 18.2L201 393.9c-3.5 1.3-6.4 4-8 7.4-1.5 3.4-1.7 7.3-.4 10.8z" fill="context-fill" fill-opacity="context-fill-opacity"/></svg>