<svg xmlns="http://www.w3.org/2000/svg" viewBox="0 0 16 16" width="16" height="16" fill="context-fill"
	fill-opacity="context-fill-opacity">
	<path d="M15.715,5.9c-0.361-1.356-1.089-2.617-2.092-3.598c-0.19-0.195-0.391-0.377-0.602-0.545
	c-0.375-0.317-0.759-0.586-1.213-0.809c-0.708-0.367-1.462-0.644-2.244-0.788C7.653-0.237,5.062,0.237,3.735,1.533
	c0.441-0.27,1.141-0.525,1.605-0.639C7.519,0.345,9.931,0.94,11.57,2.51c1.688,1.508,2.03,4.218,0.988,5.815
	c-0.531,0.906-1.995,1.722-2.844,1.688c-0.581-0.015-1.141-0.16-1.566-0.38c-1.752-0.895-2.013-3.123-0.745-4.2
	C6.982,5.342,6.191,5.519,5.64,6.34C5.146,7.077,5.174,8.216,5.479,9.023C5.293,8.634,5.157,8.239,5.087,7.761
	C4.709,5.144,6.39,2.93,8.049,2.295C8.075,2.286,8.1,2.277,8.126,2.268C8.122,2.265,8.119,2.262,8.115,2.259
	c-0.36-0.312-0.974-0.49-1.63-0.502C4.706,1.728,2.933,2.677,1.957,4.304C1.776,4.601,1.625,4.913,1.499,5.238
	C1.472,5.309,1.445,5.381,1.421,5.454C1.402,5.508,1.384,5.562,1.367,5.617C1.363,5.629,1.359,5.641,1.356,5.653
	C1.351,5.667,1.351,5.663,1.351,5.66C1.354,5.659,1.352,5.665,1.35,5.67c0.049-0.671,0.332-1.637,0.644-2.31
	c0.043-0.096,0.088-0.192,0.135-0.286c0.017-0.035,0.035-0.07,0.052-0.104C2.18,2.97,2.178,2.971,2.176,2.972
	C1.474,3.379,0.889,4.261,0.564,5.023C0.062,6.241-0.104,7.719,0.063,9.07c0.507,3.931,3.958,6.975,8.052,6.905
	C13.234,15.971,17.103,10.826,15.715,5.9z" />
</svg>