<svg xmlns="http://www.w3.org/2000/svg" width="16" height="16"><path fill="context-fill" fill-opacity="context-fill-opacity" d="M15.424 5.366A4.384 4.384 0 0013.817 3.4a7.893 7.893 0 01.811 2.353v.017c-.9-2.185-2.441-3.066-3.7-4.984l-.189-.3a2.813 2.813 0 01-.088-.161 1.341 1.341 0 01-.119-.306.022.022 0 00-.013-.019.026.026 0 00-.019 0h-.006a5.629 5.629 0 00-2.755 4.308c.094-.006.187-.014.282-.014a4.069 4.069 0 013.51 1.983A2.838 2.838 0 009.6 5.824a3.2 3.2 0 01-1.885 6.013 3.651 3.651 0 01-1.042-.2 3.817 3.817 0 01-.37-.155A3.282 3.282 0 014.415 8.95s.369-1.334 2.647-1.334a1.91 1.91 0 00.964-.857 12.756 12.756 0 01-1.941-1.118c-.29-.277-.428-.411-.551-.511a2.362 2.362 0 00-.207-.152 3.481 3.481 0 01-.022-1.894 5.915 5.915 0 00-1.929 1.442A4.108 4.108 0 013.1 2.584a1.561 1.561 0 00-.267.138 5.767 5.767 0 00-.783.649 6.9 6.9 0 00-.748.868 6.446 6.446 0 00-1.08 2.348c0 .009-.076.325-.131.715l-.025.182a5.104 5.104 0 00-.048.444v.023c-.005.076-.011.16-.016.258v.04A7.884 7.884 0 008.011 16a7.941 7.941 0 007.9-6.44l.036-.3a7.724 7.724 0 00-.523-3.894z"/></svg>