<svg xmlns="http://www.w3.org/2000/svg" width="16" height="16" viewBox="0 0 16 16" fill="context-fill"
    fill-opacity="context-fill-opacity">
    <path d="M4.083,10.244C3.041,8.766,2.889,6.952,3.22,2.912c2.03,0.164,4.325-0.195,4.336-1.821C7.558,0.738,7.434,0.36,7.259,0h0
		c-2.41,1.733-5.694,1.312-5.694,1.312C1.59,5.66,1.397,8.929,2.802,11.018c1.449,2.155,2.722,3.33,4.794,4.982l-0.158-2.194
		C5.925,12.563,5.057,11.627,4.083,10.244z" />
    <path d="M8.741,0C8.566,0.36,8.442,0.738,8.444,1.091c0.011,1.626,2.306,1.985,4.336,1.821c0.331,4.039,0.178,5.853-0.863,7.332
		c-0.974,1.383-1.842,2.319-3.355,3.562L8.404,16c2.072-1.652,3.345-2.827,4.794-4.982c1.405-2.089,1.212-5.358,1.238-9.706
		C14.435,1.312,11.151,1.733,8.741,0z" />
    <path d="M9.291,3.717L8.637,12.77c1.189-0.855,1.824-1.435,2.877-3.208c0.773-1.301,0.617-4.474,0.641-6.004
		C12.155,3.558,10.962,4.213,9.291,3.717z" />
    <path d="M4.486,9.562c1.053,1.773,1.688,2.353,2.877,3.208L6.709,3.717C5.038,4.213,3.845,3.558,3.845,3.558
		C3.869,5.087,3.714,8.261,4.486,9.562z" />
</svg>