<?xml version="1.0" encoding="utf-8"?>
<!-- Generator: Adobe Illustrator 25.2.3, SVG Export Plug-In . SVG Version: 6.00 Build 0)  -->
<svg version="1.1" id="Layer_1" xmlns="http://www.w3.org/2000/svg" xmlns:xlink="http://www.w3.org/1999/xlink" x="0px" y="0px"
	 viewBox="0 0 16 16" style="enable-background:new 0 0 16 16;" xml:space="preserve">
<path d="M16,3.103c0,0.056-0.014,0.113-0.056,0.155c-0.042,0.042-0.07,0.07-0.113,0.07c-0.352,0.028-0.633,0.141-0.858,0.338
	c-0.225,0.197-0.45,0.563-0.69,1.098l-3.631,8.19c-0.028,0.07-0.099,0.113-0.211,0.113c-0.084,0-0.155-0.042-0.197-0.113L8.204,8.69
	l-2.336,4.264c-0.042,0.07-0.113,0.113-0.197,0.113c-0.099,0-0.169-0.042-0.211-0.113L1.9,4.777
	C1.675,4.271,1.435,3.919,1.196,3.708c-0.253-0.197-0.591-0.324-1.041-0.38c-0.042,0-0.07-0.014-0.113-0.056
	C0.014,3.23,0,3.187,0,3.131c0-0.127,0.042-0.197,0.113-0.197c0.324,0,0.647,0.014,0.999,0.042c0.324,0.028,0.633,0.042,0.915,0.042
	c0.296,0,0.633-0.014,1.027-0.042c0.408-0.028,0.774-0.042,1.098-0.042c0.07,0,0.113,0.07,0.113,0.197s-0.028,0.197-0.07,0.197
	C3.87,3.356,3.631,3.441,3.448,3.567C3.265,3.708,3.166,3.891,3.166,4.102c0,0.113,0.042,0.253,0.113,0.422l2.955,6.656l1.675-3.166
	L6.332,4.777c-0.281-0.577-0.507-0.957-0.69-1.126s-0.45-0.267-0.816-0.31c-0.028,0-0.07-0.014-0.099-0.056
	C4.7,3.244,4.686,3.201,4.686,3.145c0-0.141,0.028-0.197,0.099-0.197c0.324,0,0.605,0.014,0.872,0.042
	C5.91,3.004,6.192,3.018,6.473,3.018s0.591-0.014,0.901-0.042c0.338-0.028,0.661-0.042,0.971-0.042c0.07,0,0.113,0.07,0.113,0.197
	s-0.028,0.197-0.07,0.197C7.754,3.37,7.43,3.553,7.43,3.863c0,0.141,0.07,0.366,0.225,0.661l1.027,2.097L9.71,4.707
	C9.85,4.44,9.921,4.215,9.921,4.018c0-0.436-0.324-0.675-0.957-0.704c-0.056,0-0.084-0.07-0.084-0.197
	c0-0.042,0.014-0.099,0.042-0.141c0.042-0.014,0.07-0.042,0.099-0.042c0.225,0,0.507,0.014,0.844,0.042
	c0.324,0.028,0.577,0.042,0.788,0.042c0.141,0,0.366-0.014,0.647-0.042c0.352-0.028,0.661-0.042,0.901-0.042
	c0.056,0,0.084,0.056,0.084,0.169c0,0.155-0.056,0.225-0.155,0.225c-0.366,0.042-0.675,0.141-0.887,0.31
	c-0.225,0.169-0.507,0.549-0.844,1.126L9.034,7.296l1.858,3.771l2.73-6.361c0.099-0.239,0.141-0.45,0.141-0.633
	c0-0.464-0.324-0.718-0.957-0.746c-0.056,0-0.084-0.07-0.084-0.197c0-0.141,0.042-0.197,0.127-0.197c0.239,0,0.507,0.014,0.83,0.042
	c0.296,0.028,0.535,0.042,0.746,0.042s0.45-0.014,0.732-0.042c0.281-0.028,0.535-0.042,0.774-0.042C15.972,2.934,16,2.99,16,3.103z"
	/>
</svg>
