<svg xmlns="http://www.w3.org/2000/svg" viewBox="0 0 16 16" width="16" height="16" fill="context-fill"
	fill-opacity="context-fill-opacity">
	<path d="M14,0H2C0.895,0,0,0.895,0,2v12c0,1.105,0.895,2,2,2h12c1.105,0,2-0.895,2-2V2C16,0.895,15.105,0,14,0z M14.951,3.674
	c-0.322,0.057-0.565,0.158-0.73,0.303c-0.237,0.215-0.516,0.545-0.699,0.988l-3.27,7.604h-0.248L8.373,8.934L6.592,12.57H6.344
	l-3.74-7.703C2.429,4.471,2.193,4.23,2.121,4.142c-0.112-0.136-0.249-0.243-0.412-0.32c-0.163-0.077-0.383-0.126-0.66-0.148V3.43
	h3.639v0.244c-0.42,0.04-0.62,0.11-0.745,0.211C3.818,3.986,3.756,4.115,3.756,4.274c0,0.22,0.103,0.562,0.308,1.028l2.762,5.239
	l1.22-2.336L6.549,4.867C6.375,4.471,6.138,4.23,6.066,4.142c-0.112-0.136-0.249-0.243-0.412-0.32
	C5.491,3.745,5.344,3.696,5.067,3.674V3.43h3.567v0.244c-0.42,0.04-0.62,0.11-0.745,0.211C7.764,3.986,7.701,4.115,7.701,4.274
	c0,0.22,0.103,0.562,0.308,1.028l0.738,1.56l0.78-1.494c0.21-0.51,0.384-0.863,0.384-1.061c0-0.127-0.065-0.249-0.194-0.366
	C9.587,3.824,9.44,3.742,9.132,3.694c-0.022-0.004-0.06-0.011-0.114-0.02V3.43h2.728v0.244c-0.322,0.057-0.565,0.158-0.73,0.303
	C10.78,4.192,10.5,4.522,10.317,4.966L9.062,7.528l1.424,3.012l2.245-5.173c0.21-0.51,0.384-0.863,0.384-1.061
	c0-0.127-0.065-0.249-0.194-0.366s-0.348-0.199-0.657-0.247c-0.022-0.004-0.06-0.011-0.114-0.02V3.43h2.8V3.674z" />
</svg>