<svg xmlns="http://www.w3.org/2000/svg" viewBox="0 0 113.7 72"><path d="M113.7 1.2c0 .4-.1.8-.4 1.1-.3.3-.5.5-.8.5-2.5.2-4.5 1-6.1 2.4-1.6 1.4-3.2 4-4.9 7.8L75.7 71.2c-.2.5-.7.8-1.5.8-.6 0-1.1-.3-1.4-.8L58.3 40.9 41.7 71.2c-.3.5-.8.8-1.4.8-.7 0-1.2-.3-1.5-.8L13.5 13.1c-1.6-3.6-3.3-6.1-5-7.6-1.8-1.4-4.2-2.3-7.4-2.7-.3 0-.5-.1-.8-.4-.2-.3-.3-.6-.3-1C0 .5.3 0 .8 0c2.3 0 4.6.1 7.1.3 2.3.2 4.5.3 6.5.3 2.1 0 4.5-.1 7.3-.3 2.9-.2 5.5-.3 7.8-.3.5 0 .8.5.8 1.4 0 .9-.2 1.4-.5 1.4-2.3.2-4 .8-5.3 1.7-1.3 1-2 2.3-2 3.8 0 .8.3 1.8.8 3l21 47.3 11.9-22.5-11.2-23c-2-4.1-3.6-6.8-4.9-8-1.3-1.2-3.2-1.9-5.8-2.2-.2 0-.5-.1-.7-.4-.2-.3-.3-.6-.3-1 0-1 .2-1.4.7-1.4 2.3 0 4.3.1 6.2.3 1.8.1 3.8.2 5.8.2s4.2-.1 6.4-.3c2.4-.2 4.7-.3 6.9-.3.5 0 .8.5.8 1.4 0 .9-.2 1.4-.5 1.4-4.5.3-6.8 1.6-6.8 3.8 0 1 .5 2.6 1.6 4.7l7.3 14.9L69 12.6c1-1.9 1.5-3.5 1.5-4.9 0-3.1-2.3-4.8-6.8-5-.4 0-.6-.5-.6-1.4 0-.3.1-.7.3-1 .3-.1.5-.3.7-.3 1.6 0 3.6.1 6 .3 2.3.2 4.1.3 5.6.3 1 0 2.6-.1 4.6-.3C82.8.1 85 0 86.7 0c.4 0 .6.4.6 1.2 0 1.1-.4 1.6-1.1 1.6-2.6.3-4.8 1-6.3 2.2-1.6 1.2-3.6 3.9-6 8l-9.7 18 13.2 26.8 19.4-45.2c.7-1.7 1-3.2 1-4.5 0-3.3-2.3-5.1-6.8-5.3-.4 0-.6-.5-.6-1.4 0-1 .3-1.4.9-1.4 1.7 0 3.6.1 5.9.3 2.1.2 3.8.3 5.3.3s3.2-.1 5.2-.3c2-.2 3.8-.3 5.5-.3.3 0 .5.4.5 1.2z" fill="context-fill" fill-opacity="context-fill-opacity"/></svg>