<svg xmlns="http://www.w3.org/2000/svg" viewBox="0 0 16 16" width="16" height="16" fill="context-fill"
	fill-opacity="context-fill-opacity">
	<path d="M15.668,4.142c-0.182-0.681-0.72-1.227-1.401-1.401C13.009,2.402,8,2.402,8,2.402s-5.001,0-6.259,0.324
	C1.068,2.916,0.514,3.47,0.324,4.15C0,5.409,0,8.004,0,8.004s0,2.611,0.324,3.846c0.19,0.68,0.728,1.227,1.416,1.416
	C3.007,13.598,8,13.598,8,13.598s5.009,0,6.267-0.324c0.681-0.19,1.227-0.72,1.401-1.416C16,10.615,16,8.012,16,8.012
	S16.008,5.401,15.668,4.142z M6.409,10.402V5.606l4.162,2.406L6.409,10.402z" />
</svg>