<!-- This Source Code Form is subject to the terms of the Mozilla Public
   - License, v. 2.0. If a copy of the MPL was not distributed with this
   - file, You can obtain one at http://mozilla.org/MPL/2.0/. -->
<svg xmlns="http://www.w3.org/2000/svg" viewBox="0 0 16 16" width="16" height="16" fill="context-fill black" fill-opacity="context-fill-opacity">
  <style>
    @media not (prefers-reduced-motion) {
      @keyframes loadingRotate {
        from { rotate: 0; } to { rotate: 360deg }
      }
      #circle-arrows {
        animation: loadingRotate 1.8s linear infinite;
        transform-origin: 50% 50%;
      }
      #hourglass {
        display: none;
      }
    }

    @media (prefers-reduced-motion) {
      #circle-arrows {
        display: none;
      }
    }
  </style>
  <path id="hourglass" fill-rule="evenodd" clip-rule="evenodd" d="M14 2.5H12.5V6C12.5 6.19891 12.421 6.38968 12.2803 6.53033L10.8107 8L12.2803 9.46967C12.421 9.61032 12.5 9.80109 12.5 10V13.5H14V15H2V13.5H3.5V10C3.5 9.80109 3.57902 9.61032 3.71967 9.46967L5.18934 8L3.71967 6.53033C3.57902 6.38968 3.5 6.19891 3.5 6V2.5H2V1H14V2.5ZM5 13.5H11V10.3107L9.21967 8.53033C8.92678 8.23744 8.92678 7.76256 9.21967 7.46967L11 5.68934V2.5H5V5.68934L6.78033 7.46967C7.07322 7.76256 7.07322 8.23744 6.78033 8.53033L5 10.3107V13.5Z"/>
  <path id="circle-arrows" fill-opacity="context-fill-opacity" transform="scale(0.85)" d="M14 1a1 1 0 0 0-1 1v1.146A6.948 6.948 0 0 0 1.227 6.307a1 1 0 1 0 1.94.484A4.983 4.983 0 0 1 8 3a4.919 4.919 0 0 1 3.967 2H10a1 1 0 0 0 0 2h4a1 1 0 0 0 1-1V2a1 1 0 0 0-1-1zm.046 7.481a1 1 0 0 0-1.213.728A4.983 4.983 0 0 1 8 13a4.919 4.919 0 0 1-3.967-2H6a1 1 0 0 0 0-2H2a1 1 0 0 0-1 1v4a1 1 0 0 0 2 0v-1.146a6.948 6.948 0 0 0 11.773-3.161 1 1 0 0 0-.727-1.212z"/>
</svg>