<!-- This Source Code Form is subject to the terms of the Mozilla Public
   - License, v. 2.0. If a copy of the MPL was not distributed with this
   - file, You can obtain one at http://mozilla.org/MPL/2.0/. -->
<svg xmlns="http://www.w3.org/2000/svg" width="16" height="16" viewBox="0 0 16 16">
  <path
    d="M8 1a4 4 0 0 0-4 4v1.984h-.5a1.5 1.5 0 0 0-1.5 1.5V13.5A1.5 1.5 0 0 0 3.5 15h2.535a2.274 2.274 0 0 1 .207-1.318L9.43 7.27a2.266 2.266 0 0 1 .2-.286H6V5a2 2 0 0 1 4 0v1.568A2.255 2.255 0 0 1 11.478 6a2.283 2.283 0 0 1 .522.073V5a4 4 0 0 0-4-4z"
    fill="context-fill" fill-opacity="context-fill-opacity" />
  <path
    d="M15.818 14.127l-3.189-6.411a1.285 1.285 0 0 0-2.3 0l-3.192 6.411A1.294 1.294 0 0 0 8.289 16h6.377a1.294 1.294 0 0 0 1.152-1.873z"
    fill="context-stroke #ffbf00" fill-opacity="context-stroke-opacity" />
  <path
    d="M11.5 12a.5.5 0 0 0 .5-.5v-2a.5.5 0 0 0-1 0v2a.5.5 0 0 0 .5.5zm0 .809a.691.691 0 1 0 .691.691.691.691 0 0 0-.691-.691z"
    fill="context-fill" fill-opacity="context-stroke-opacity" />
</svg>