<svg xmlns="http://www.w3.org/2000/svg" width="16" height="16" viewBox="0 0 16 16" fill="context-fill"
	fill-opacity="context-fill-opacity">
	<path d="M14.85,10.85c-0.2-0.2-0.5-0.2-0.7,0l-1.8,1.8l-1.8-1.8c-0.2-0.2-0.5-0.2-0.7,0c-0.2,0.2-0.2,0.5,0,0.7l1.8,1.8l-1.8,1.8
		c-0.2,0.2-0.2,0.5,0,0.7c0.2,0.2,0.5,0.2,0.7,0l1.8-1.8l1.8,1.8c0.2,0.2,0.5,0.2,0.7,0c0.2-0.2,0.2-0.5,0-0.7l-1.8-1.8l1.8-1.8
		C15.05,11.35,15.05,11.05,14.85,10.85z" />
	<path d="M14.123,3.713l-2.836-2.836C10.725,0.315,9.964,0,9.17,0H4C2.343,0,1,1.343,1,3v10c0,1.657,1.343,3,3,3h3.592
		c0.546,0,0.991-0.438,1-0.983C8.601,14.458,8.151,14,7.592,14H4c-0.552,0-1-0.448-1-1V3c0-0.552,0.448-1,1-1h5v3
		c0,0.552,0.448,1,1,1h3v2.512c0,0.55,0.444,0.996,0.993,1C14.548,9.516,15,9.067,15,8.512V5.83C15,5.036,14.685,4.275,14.123,3.713
		z M10,5V2.41L12.59,5H10z" />
</svg>