<svg xmlns="http://www.w3.org/2000/svg" width="16" height="16" viewBox=".5 0 16 16">
    <path fill="context-fill" fill-opacity="context-fill-opacity"
        d="M3.4 8.8c.3.5 1 .7 1.6.4l1.8-1v2.1c0 .7.5 1.2 1.2 1.2s1.2-.5 1.2-1.2V8.1l1.8 1c.6.3 1.3.1 1.6-.4.3-.6.1-1.3-.4-1.6l-1.8-1 1.8-1c.6-.3.8-1.1.4-1.6-.3-.6-1-.8-1.6-.5L9.2 4V1.9C9.2 1.2 8.7.7 8 .7s-1.2.6-1.2 1.2V4L5 3c-.6-.3-1.3-.1-1.6.4-.3.6-.2 1.3.4 1.6l1.8 1-1.8 1c-.6.5-.7 1.2-.4 1.8zm9.8 4.1H2.8c-.7 0-1.2.5-1.2 1.2s.5 1.2 1.2 1.2h10.4c.7 0 1.2-.5 1.2-1.2s-.5-1.2-1.2-1.2z" />
</svg>