<svg xmlns="http://www.w3.org/2000/svg" width="16" height="16" viewBox="0 0 16 16" fill="context-fill"
	fill-opacity="context-fill-opacity">
	<path d="M13,1H3C1.895,1,1,1.895,1,3v10c0,1.105,0.895,2,2,2h10c1.105,0,2-0.895,2-2V3C15,1.895,14.105,1,13,1z M8,13.25
	c-0.69,0-1.25-0.56-1.25-1.25S7.31,10.75,8,10.75S9.25,11.31,9.25,12S8.69,13.25,8,13.25z M9.484,8.143
	C9.151,8.292,8.919,8.605,8.875,8.967v0.37c0,0.483-0.392,0.875-0.875,0.875S7.125,9.82,7.125,9.337V9
	C7.149,8.002,7.714,7.095,8.6,6.635c0.399-0.166,0.622-0.594,0.53-1.016C8.967,5.142,8.502,4.836,8,4.875
	C7.475,4.875,6.875,5,6.875,6c0,0.483-0.392,0.875-0.875,0.875S5.125,6.483,5.125,6c-0.008-0.121-0.008-0.242,0-0.362
	C5.225,4.15,6.512,3.025,8,3.125c1.294-0.044,2.454,0.793,2.82,2.035C11.119,6.344,10.566,7.578,9.484,8.143z" />
</svg>