<svg xmlns="http://www.w3.org/2000/svg" width="192" height="16" viewBox="0 0 192 16" fill="context-fill"
    fill-opacity="context-fill-opacity">
    <svg>
        <path d="M7 3V1s0-1 1-1 1 1 1 1v2s0 1-1 1-1-1-1-1z" />
        <path opacity=".93"
            d="M4.63 4.1l-1-1.73S3.13 1.5 4 1c.87-.5 1.37.37 1.37.37l1 1.73s.5.87-.37 1.37c-.87.57-1.37-.37-1.37-.37z" />
        <path opacity=".86"
            d="M3.1 6.37l-1.73-1S.5 4.87 1 4c.5-.87 1.37-.37 1.37-.37l1.73 1s.87.5.37 1.37c-.5.87-1.37.37-1.37.37z" />
        <path opacity=".79" d="M3 9H1S0 9 0 8s1-1 1-1h2s1 0 1 1-1 1-1 1z" />
        <path opacity=".72"
            d="M4.1 11.37l-1.73 1S1.5 12.87 1 12c-.5-.87.37-1.37.37-1.37l1.73-1s.87-.5 1.37.37c.5.87-.37 1.37-.37 1.37z" />
        <path opacity=".65"
            d="M3.63 13.56l1-1.73s.5-.87 1.37-.37c.87.5.37 1.37.37 1.37l-1 1.73s-.5.87-1.37.37c-.87-.5-.37-1.37-.37-1.37z" />
        <path opacity=".58" d="M7 15v-2s0-1 1-1 1 1 1 1v2s0 1-1 1-1-1-1-1z" />
        <path opacity=".51"
            d="M10.63 14.56l-1-1.73s-.5-.87.37-1.37c.87-.5 1.37.37 1.37.37l1 1.73s.5.87-.37 1.37c-.87.5-1.37-.37-1.37-.37z" />
        <path opacity=".44"
            d="M13.56 12.37l-1.73-1s-.87-.5-.37-1.37c.5-.87 1.37-.37 1.37-.37l1.73 1s.87.5.37 1.37c-.5.87-1.37.37-1.37.37z" />
        <path opacity=".37" d="M15 9h-2s-1 0-1-1 1-1 1-1h2s1 0 1 1-1 1-1 1z" />
        <path opacity=".3"
            d="M14.56 5.37l-1.73 1s-.87.5-1.37-.37c-.5-.87.37-1.37.37-1.37l1.73-1s.87-.5 1.37.37c.5.87-.37 1.37-.37 1.37z" />
        <path opacity=".23"
            d="M9.64 3.1l.98-1.66s.5-.874 1.37-.37c.87.5.37 1.37.37 1.37l-1 1.73s-.5.87-1.37.37c-.87-.5-.37-1.37-.37-1.37z" />
    </svg>
    <svg x="16">
        <path opacity=".93" d="M7 3V1s0-1 1-1 1 1 1 1v2s0 1-1 1-1-1-1-1z" />
        <path opacity=".86"
            d="M4.63 4.1l-1-1.73S3.13 1.5 4 1c.87-.5 1.37.37 1.37.37l1 1.73s.5.87-.37 1.37c-.87.57-1.37-.37-1.37-.37z" />
        <path opacity=".79"
            d="M3.1 6.37l-1.73-1S.5 4.87 1 4c.5-.87 1.37-.37 1.37-.37l1.73 1s.87.5.37 1.37c-.5.87-1.37.37-1.37.37z" />
        <path opacity=".72" d="M3 9H1S0 9 0 8s1-1 1-1h2s1 0 1 1-1 1-1 1z" />
        <path opacity=".65"
            d="M4.1 11.37l-1.73 1S1.5 12.87 1 12c-.5-.87.37-1.37.37-1.37l1.73-1s.87-.5 1.37.37c.5.87-.37 1.37-.37 1.37z" />
        <path opacity=".58"
            d="M3.63 13.56l1-1.73s.5-.87 1.37-.37c.87.5.37 1.37.37 1.37l-1 1.73s-.5.87-1.37.37c-.87-.5-.37-1.37-.37-1.37z" />
        <path opacity=".51" d="M7 15v-2s0-1 1-1 1 1 1 1v2s0 1-1 1-1-1-1-1z" />
        <path opacity=".44"
            d="M10.63 14.56l-1-1.73s-.5-.87.37-1.37c.87-.5 1.37.37 1.37.37l1 1.73s.5.87-.37 1.37c-.87.5-1.37-.37-1.37-.37z" />
        <path opacity=".37"
            d="M13.56 12.37l-1.73-1s-.87-.5-.37-1.37c.5-.87 1.37-.37 1.37-.37l1.73 1s.87.5.37 1.37c-.5.87-1.37.37-1.37.37z" />
        <path opacity=".3" d="M15 9h-2s-1 0-1-1 1-1 1-1h2s1 0 1 1-1 1-1 1z" />
        <path opacity=".23"
            d="M14.56 5.37l-1.73 1s-.87.5-1.37-.37c-.5-.87.37-1.37.37-1.37l1.73-1s.87-.5 1.37.37c.5.87-.37 1.37-.37 1.37z" />
        <path
            d="M9.64 3.1l.98-1.66s.5-.874 1.37-.37c.87.5.37 1.37.37 1.37l-1 1.73s-.5.87-1.37.37c-.87-.5-.37-1.37-.37-1.37z" />
    </svg>
    <svg x="32">
        <path opacity=".86" d="M7 3V1s0-1 1-1 1 1 1 1v2s0 1-1 1-1-1-1-1z" />
        <path opacity=".79"
            d="M4.63 4.1l-1-1.73S3.13 1.5 4 1c.87-.5 1.37.37 1.37.37l1 1.73s.5.87-.37 1.37c-.87.57-1.37-.37-1.37-.37z" />
        <path opacity=".72"
            d="M3.1 6.37l-1.73-1S.5 4.87 1 4c.5-.87 1.37-.37 1.37-.37l1.73 1s.87.5.37 1.37c-.5.87-1.37.37-1.37.37z" />
        <path opacity=".65" d="M3 9H1S0 9 0 8s1-1 1-1h2s1 0 1 1-1 1-1 1z" />
        <path opacity=".58"
            d="M4.1 11.37l-1.73 1S1.5 12.87 1 12c-.5-.87.37-1.37.37-1.37l1.73-1s.87-.5 1.37.37c.5.87-.37 1.37-.37 1.37z" />
        <path opacity=".51"
            d="M3.63 13.56l1-1.73s.5-.87 1.37-.37c.87.5.37 1.37.37 1.37l-1 1.73s-.5.87-1.37.37c-.87-.5-.37-1.37-.37-1.37z" />
        <path opacity=".44" d="M7 15v-2s0-1 1-1 1 1 1 1v2s0 1-1 1-1-1-1-1z" />
        <path opacity=".37"
            d="M10.63 14.56l-1-1.73s-.5-.87.37-1.37c.87-.5 1.37.37 1.37.37l1 1.73s.5.87-.37 1.37c-.87.5-1.37-.37-1.37-.37z" />
        <path opacity=".3"
            d="M13.56 12.37l-1.73-1s-.87-.5-.37-1.37c.5-.87 1.37-.37 1.37-.37l1.73 1s.87.5.37 1.37c-.5.87-1.37.37-1.37.37z" />
        <path opacity=".23" d="M15 9h-2s-1 0-1-1 1-1 1-1h2s1 0 1 1-1 1-1 1z" />
        <path
            d="M14.56 5.37l-1.73 1s-.87.5-1.37-.37c-.5-.87.37-1.37.37-1.37l1.73-1s.87-.5 1.37.37c.5.87-.37 1.37-.37 1.37z" />
        <path opacity=".93"
            d="M9.64 3.1l.98-1.66s.5-.874 1.37-.37c.87.5.37 1.37.37 1.37l-1 1.73s-.5.87-1.37.37c-.87-.5-.37-1.37-.37-1.37z" />
    </svg>
    <svg x="48">
        <path opacity=".79" d="M7 3V1s0-1 1-1 1 1 1 1v2s0 1-1 1-1-1-1-1z" />
        <path opacity=".72"
            d="M4.63 4.1l-1-1.73S3.13 1.5 4 1c.87-.5 1.37.37 1.37.37l1 1.73s.5.87-.37 1.37c-.87.57-1.37-.37-1.37-.37z" />
        <path opacity=".65"
            d="M3.1 6.37l-1.73-1S.5 4.87 1 4c.5-.87 1.37-.37 1.37-.37l1.73 1s.87.5.37 1.37c-.5.87-1.37.37-1.37.37z" />
        <path opacity=".58" d="M3 9H1S0 9 0 8s1-1 1-1h2s1 0 1 1-1 1-1 1z" />
        <path opacity=".51"
            d="M4.1 11.37l-1.73 1S1.5 12.87 1 12c-.5-.87.37-1.37.37-1.37l1.73-1s.87-.5 1.37.37c.5.87-.37 1.37-.37 1.37z" />
        <path opacity=".44"
            d="M3.63 13.56l1-1.73s.5-.87 1.37-.37c.87.5.37 1.37.37 1.37l-1 1.73s-.5.87-1.37.37c-.87-.5-.37-1.37-.37-1.37z" />
        <path opacity=".37" d="M7 15v-2s0-1 1-1 1 1 1 1v2s0 1-1 1-1-1-1-1z" />
        <path opacity=".3"
            d="M10.63 14.56l-1-1.73s-.5-.87.37-1.37c.87-.5 1.37.37 1.37.37l1 1.73s.5.87-.37 1.37c-.87.5-1.37-.37-1.37-.37z" />
        <path opacity=".23"
            d="M13.56 12.37l-1.73-1s-.87-.5-.37-1.37c.5-.87 1.37-.37 1.37-.37l1.73 1s.87.5.37 1.37c-.5.87-1.37.37-1.37.37z" />
        <path d="M15 9h-2s-1 0-1-1 1-1 1-1h2s1 0 1 1-1 1-1 1z" />
        <path opacity=".93"
            d="M14.56 5.37l-1.73 1s-.87.5-1.37-.37c-.5-.87.37-1.37.37-1.37l1.73-1s.87-.5 1.37.37c.5.87-.37 1.37-.37 1.37z" />
        <path opacity=".86"
            d="M9.64 3.1l.98-1.66s.5-.874 1.37-.37c.87.5.37 1.37.37 1.37l-1 1.73s-.5.87-1.37.37c-.87-.5-.37-1.37-.37-1.37z" />
    </svg>
    <svg x="64">
        <path opacity=".72" d="M7 3V1s0-1 1-1 1 1 1 1v2s0 1-1 1-1-1-1-1z" />
        <path opacity=".65"
            d="M4.63 4.1l-1-1.73S3.13 1.5 4 1c.87-.5 1.37.37 1.37.37l1 1.73s.5.87-.37 1.37c-.87.57-1.37-.37-1.37-.37z" />
        <path opacity=".58"
            d="M3.1 6.37l-1.73-1S.5 4.87 1 4c.5-.87 1.37-.37 1.37-.37l1.73 1s.87.5.37 1.37c-.5.87-1.37.37-1.37.37z" />
        <path opacity=".51" d="M3 9H1S0 9 0 8s1-1 1-1h2s1 0 1 1-1 1-1 1z" />
        <path opacity=".44"
            d="M4.1 11.37l-1.73 1S1.5 12.87 1 12c-.5-.87.37-1.37.37-1.37l1.73-1s.87-.5 1.37.37c.5.87-.37 1.37-.37 1.37z" />
        <path opacity=".37"
            d="M3.63 13.56l1-1.73s.5-.87 1.37-.37c.87.5.37 1.37.37 1.37l-1 1.73s-.5.87-1.37.37c-.87-.5-.37-1.37-.37-1.37z" />
        <path opacity=".3" d="M7 15v-2s0-1 1-1 1 1 1 1v2s0 1-1 1-1-1-1-1z" />
        <path opacity=".23"
            d="M10.63 14.56l-1-1.73s-.5-.87.37-1.37c.87-.5 1.37.37 1.37.37l1 1.73s.5.87-.37 1.37c-.87.5-1.37-.37-1.37-.37z" />
        <path
            d="M13.56 12.37l-1.73-1s-.87-.5-.37-1.37c.5-.87 1.37-.37 1.37-.37l1.73 1s.87.5.37 1.37c-.5.87-1.37.37-1.37.37z" />
        <path opacity=".93" d="M15 9h-2s-1 0-1-1 1-1 1-1h2s1 0 1 1-1 1-1 1z" />
        <path opacity=".86"
            d="M14.56 5.37l-1.73 1s-.87.5-1.37-.37c-.5-.87.37-1.37.37-1.37l1.73-1s.87-.5 1.37.37c.5.87-.37 1.37-.37 1.37z" />
        <path opacity=".79"
            d="M9.64 3.1l.98-1.66s.5-.874 1.37-.37c.87.5.37 1.37.37 1.37l-1 1.73s-.5.87-1.37.37c-.87-.5-.37-1.37-.37-1.37z" />
    </svg>
    <svg x="80">
        <path opacity=".65" d="M7 3V1s0-1 1-1 1 1 1 1v2s0 1-1 1-1-1-1-1z" />
        <path opacity=".58"
            d="M4.63 4.1l-1-1.73S3.13 1.5 4 1c.87-.5 1.37.37 1.37.37l1 1.73s.5.87-.37 1.37c-.87.57-1.37-.37-1.37-.37z" />
        <path opacity=".51"
            d="M3.1 6.37l-1.73-1S.5 4.87 1 4c.5-.87 1.37-.37 1.37-.37l1.73 1s.87.5.37 1.37c-.5.87-1.37.37-1.37.37z" />
        <path opacity=".44" d="M3 9H1S0 9 0 8s1-1 1-1h2s1 0 1 1-1 1-1 1z" />
        <path opacity=".37"
            d="M4.1 11.37l-1.73 1S1.5 12.87 1 12c-.5-.87.37-1.37.37-1.37l1.73-1s.87-.5 1.37.37c.5.87-.37 1.37-.37 1.37z" />
        <path opacity=".3"
            d="M3.63 13.56l1-1.73s.5-.87 1.37-.37c.87.5.37 1.37.37 1.37l-1 1.73s-.5.87-1.37.37c-.87-.5-.37-1.37-.37-1.37z" />
        <path opacity=".23" d="M7 15v-2s0-1 1-1 1 1 1 1v2s0 1-1 1-1-1-1-1z" />
        <path
            d="M10.63 14.56l-1-1.73s-.5-.87.37-1.37c.87-.5 1.37.37 1.37.37l1 1.73s.5.87-.37 1.37c-.87.5-1.37-.37-1.37-.37z" />
        <path opacity=".93"
            d="M13.56 12.37l-1.73-1s-.87-.5-.37-1.37c.5-.87 1.37-.37 1.37-.37l1.73 1s.87.5.37 1.37c-.5.87-1.37.37-1.37.37z" />
        <path opacity=".86" d="M15 9h-2s-1 0-1-1 1-1 1-1h2s1 0 1 1-1 1-1 1z" />
        <path opacity=".79"
            d="M14.56 5.37l-1.73 1s-.87.5-1.37-.37c-.5-.87.37-1.37.37-1.37l1.73-1s.87-.5 1.37.37c.5.87-.37 1.37-.37 1.37z" />
        <path opacity=".72"
            d="M9.64 3.1l.98-1.66s.5-.874 1.37-.37c.87.5.37 1.37.37 1.37l-1 1.73s-.5.87-1.37.37c-.87-.5-.37-1.37-.37-1.37z" />
    </svg>
    <svg x="96">
        <path opacity=".58" d="M7 3V1s0-1 1-1 1 1 1 1v2s0 1-1 1-1-1-1-1z" />
        <path opacity=".51"
            d="M4.63 4.1l-1-1.73S3.13 1.5 4 1c.87-.5 1.37.37 1.37.37l1 1.73s.5.87-.37 1.37c-.87.57-1.37-.37-1.37-.37z" />
        <path opacity=".44"
            d="M3.1 6.37l-1.73-1S.5 4.87 1 4c.5-.87 1.37-.37 1.37-.37l1.73 1s.87.5.37 1.37c-.5.87-1.37.37-1.37.37z" />
        <path opacity=".37" d="M3 9H1S0 9 0 8s1-1 1-1h2s1 0 1 1-1 1-1 1z" />
        <path opacity=".3"
            d="M4.1 11.37l-1.73 1S1.5 12.87 1 12c-.5-.87.37-1.37.37-1.37l1.73-1s.87-.5 1.37.37c.5.87-.37 1.37-.37 1.37z" />
        <path opacity=".23"
            d="M3.63 13.56l1-1.73s.5-.87 1.37-.37c.87.5.37 1.37.37 1.37l-1 1.73s-.5.87-1.37.37c-.87-.5-.37-1.37-.37-1.37z" />
        <path d="M7 15v-2s0-1 1-1 1 1 1 1v2s0 1-1 1-1-1-1-1z" />
        <path opacity=".93"
            d="M10.63 14.56l-1-1.73s-.5-.87.37-1.37c.87-.5 1.37.37 1.37.37l1 1.73s.5.87-.37 1.37c-.87.5-1.37-.37-1.37-.37z" />
        <path opacity=".86"
            d="M13.56 12.37l-1.73-1s-.87-.5-.37-1.37c.5-.87 1.37-.37 1.37-.37l1.73 1s.87.5.37 1.37c-.5.87-1.37.37-1.37.37z" />
        <path opacity=".79" d="M15 9h-2s-1 0-1-1 1-1 1-1h2s1 0 1 1-1 1-1 1z" />
        <path opacity=".72"
            d="M14.56 5.37l-1.73 1s-.87.5-1.37-.37c-.5-.87.37-1.37.37-1.37l1.73-1s.87-.5 1.37.37c.5.87-.37 1.37-.37 1.37z" />
        <path opacity=".65"
            d="M9.64 3.1l.98-1.66s.5-.874 1.37-.37c.87.5.37 1.37.37 1.37l-1 1.73s-.5.87-1.37.37c-.87-.5-.37-1.37-.37-1.37z" />
    </svg>
    <svg x="112">
        <path opacity=".51" d="M7 3V1s0-1 1-1 1 1 1 1v2s0 1-1 1-1-1-1-1z" />
        <path opacity=".44"
            d="M4.63 4.1l-1-1.73S3.13 1.5 4 1c.87-.5 1.37.37 1.37.37l1 1.73s.5.87-.37 1.37c-.87.57-1.37-.37-1.37-.37z" />
        <path opacity=".37"
            d="M3.1 6.37l-1.73-1S.5 4.87 1 4c.5-.87 1.37-.37 1.37-.37l1.73 1s.87.5.37 1.37c-.5.87-1.37.37-1.37.37z" />
        <path opacity=".3" d="M3 9H1S0 9 0 8s1-1 1-1h2s1 0 1 1-1 1-1 1z" />
        <path opacity=".23"
            d="M4.1 11.37l-1.73 1S1.5 12.87 1 12c-.5-.87.37-1.37.37-1.37l1.73-1s.87-.5 1.37.37c.5.87-.37 1.37-.37 1.37z" />
        <path
            d="M3.63 13.56l1-1.73s.5-.87 1.37-.37c.87.5.37 1.37.37 1.37l-1 1.73s-.5.87-1.37.37c-.87-.5-.37-1.37-.37-1.37z" />
        <path opacity=".93" d="M7 15v-2s0-1 1-1 1 1 1 1v2s0 1-1 1-1-1-1-1z" />
        <path opacity=".86"
            d="M10.63 14.56l-1-1.73s-.5-.87.37-1.37c.87-.5 1.37.37 1.37.37l1 1.73s.5.87-.37 1.37c-.87.5-1.37-.37-1.37-.37z" />
        <path opacity=".79"
            d="M13.56 12.37l-1.73-1s-.87-.5-.37-1.37c.5-.87 1.37-.37 1.37-.37l1.73 1s.87.5.37 1.37c-.5.87-1.37.37-1.37.37z" />
        <path opacity=".72" d="M15 9h-2s-1 0-1-1 1-1 1-1h2s1 0 1 1-1 1-1 1z" />
        <path opacity=".65"
            d="M14.56 5.37l-1.73 1s-.87.5-1.37-.37c-.5-.87.37-1.37.37-1.37l1.73-1s.87-.5 1.37.37c.5.87-.37 1.37-.37 1.37z" />
        <path opacity=".58"
            d="M9.64 3.1l.98-1.66s.5-.874 1.37-.37c.87.5.37 1.37.37 1.37l-1 1.73s-.5.87-1.37.37c-.87-.5-.37-1.37-.37-1.37z" />
    </svg>
    <svg x="128">
        <path opacity=".44" d="M7 3V1s0-1 1-1 1 1 1 1v2s0 1-1 1-1-1-1-1z" />
        <path opacity=".37"
            d="M4.63 4.1l-1-1.73S3.13 1.5 4 1c.87-.5 1.37.37 1.37.37l1 1.73s.5.87-.37 1.37c-.87.57-1.37-.37-1.37-.37z" />
        <path opacity=".3"
            d="M3.1 6.37l-1.73-1S.5 4.87 1 4c.5-.87 1.37-.37 1.37-.37l1.73 1s.87.5.37 1.37c-.5.87-1.37.37-1.37.37z" />
        <path opacity=".23" d="M3 9H1S0 9 0 8s1-1 1-1h2s1 0 1 1-1 1-1 1z" />
        <path
            d="M4.1 11.37l-1.73 1S1.5 12.87 1 12c-.5-.87.37-1.37.37-1.37l1.73-1s.87-.5 1.37.37c.5.87-.37 1.37-.37 1.37z" />
        <path opacity=".93"
            d="M3.63 13.56l1-1.73s.5-.87 1.37-.37c.87.5.37 1.37.37 1.37l-1 1.73s-.5.87-1.37.37c-.87-.5-.37-1.37-.37-1.37z" />
        <path opacity=".86" d="M7 15v-2s0-1 1-1 1 1 1 1v2s0 1-1 1-1-1-1-1z" />
        <path opacity=".79"
            d="M10.63 14.56l-1-1.73s-.5-.87.37-1.37c.87-.5 1.37.37 1.37.37l1 1.73s.5.87-.37 1.37c-.87.5-1.37-.37-1.37-.37z" />
        <path opacity=".72"
            d="M13.56 12.37l-1.73-1s-.87-.5-.37-1.37c.5-.87 1.37-.37 1.37-.37l1.73 1s.87.5.37 1.37c-.5.87-1.37.37-1.37.37z" />
        <path opacity=".65" d="M15 9h-2s-1 0-1-1 1-1 1-1h2s1 0 1 1-1 1-1 1z" />
        <path opacity=".58"
            d="M14.56 5.37l-1.73 1s-.87.5-1.37-.37c-.5-.87.37-1.37.37-1.37l1.73-1s.87-.5 1.37.37c.5.87-.37 1.37-.37 1.37z" />
        <path opacity=".51"
            d="M9.64 3.1l.98-1.66s.5-.874 1.37-.37c.87.5.37 1.37.37 1.37l-1 1.73s-.5.87-1.37.37c-.87-.5-.37-1.37-.37-1.37z" />
    </svg>
    <svg x="144">
        <path opacity=".37" d="M7 3V1s0-1 1-1 1 1 1 1v2s0 1-1 1-1-1-1-1z" />
        <path opacity=".3"
            d="M4.63 4.1l-1-1.73S3.13 1.5 4 1c.87-.5 1.37.37 1.37.37l1 1.73s.5.87-.37 1.37c-.87.57-1.37-.37-1.37-.37z" />
        <path opacity=".23"
            d="M3.1 6.37l-1.73-1S.5 4.87 1 4c.5-.87 1.37-.37 1.37-.37l1.73 1s.87.5.37 1.37c-.5.87-1.37.37-1.37.37z" />
        <path d="M3 9H1S0 9 0 8s1-1 1-1h2s1 0 1 1-1 1-1 1z" />
        <path opacity=".93"
            d="M4.1 11.37l-1.73 1S1.5 12.87 1 12c-.5-.87.37-1.37.37-1.37l1.73-1s.87-.5 1.37.37c.5.87-.37 1.37-.37 1.37z" />
        <path opacity=".86"
            d="M3.63 13.56l1-1.73s.5-.87 1.37-.37c.87.5.37 1.37.37 1.37l-1 1.73s-.5.87-1.37.37c-.87-.5-.37-1.37-.37-1.37z" />
        <path opacity=".79" d="M7 15v-2s0-1 1-1 1 1 1 1v2s0 1-1 1-1-1-1-1z" />
        <path opacity=".72"
            d="M10.63 14.56l-1-1.73s-.5-.87.37-1.37c.87-.5 1.37.37 1.37.37l1 1.73s.5.87-.37 1.37c-.87.5-1.37-.37-1.37-.37z" />
        <path opacity=".65"
            d="M13.56 12.37l-1.73-1s-.87-.5-.37-1.37c.5-.87 1.37-.37 1.37-.37l1.73 1s.87.5.37 1.37c-.5.87-1.37.37-1.37.37z" />
        <path opacity=".58" d="M15 9h-2s-1 0-1-1 1-1 1-1h2s1 0 1 1-1 1-1 1z" />
        <path opacity=".51"
            d="M14.56 5.37l-1.73 1s-.87.5-1.37-.37c-.5-.87.37-1.37.37-1.37l1.73-1s.87-.5 1.37.37c.5.87-.37 1.37-.37 1.37z" />
        <path opacity=".44"
            d="M9.64 3.1l.98-1.66s.5-.874 1.37-.37c.87.5.37 1.37.37 1.37l-1 1.73s-.5.87-1.37.37c-.87-.5-.37-1.37-.37-1.37z" />
    </svg>
    <svg x="160">
        <path opacity=".3" d="M7 3V1s0-1 1-1 1 1 1 1v2s0 1-1 1-1-1-1-1z" />
        <path opacity=".23"
            d="M4.63 4.1l-1-1.73S3.13 1.5 4 1c.87-.5 1.37.37 1.37.37l1 1.73s.5.87-.37 1.37c-.87.57-1.37-.37-1.37-.37z" />
        <path d="M3.1 6.37l-1.73-1S.5 4.87 1 4c.5-.87 1.37-.37 1.37-.37l1.73 1s.87.5.37 1.37c-.5.87-1.37.37-1.37.37z" />
        <path opacity=".93" d="M3 9H1S0 9 0 8s1-1 1-1h2s1 0 1 1-1 1-1 1z" />
        <path opacity=".86"
            d="M4.1 11.37l-1.73 1S1.5 12.87 1 12c-.5-.87.37-1.37.37-1.37l1.73-1s.87-.5 1.37.37c.5.87-.37 1.37-.37 1.37z" />
        <path opacity=".79"
            d="M3.63 13.56l1-1.73s.5-.87 1.37-.37c.87.5.37 1.37.37 1.37l-1 1.73s-.5.87-1.37.37c-.87-.5-.37-1.37-.37-1.37z" />
        <path opacity=".72" d="M7 15v-2s0-1 1-1 1 1 1 1v2s0 1-1 1-1-1-1-1z" />
        <path opacity=".65"
            d="M10.63 14.56l-1-1.73s-.5-.87.37-1.37c.87-.5 1.37.37 1.37.37l1 1.73s.5.87-.37 1.37c-.87.5-1.37-.37-1.37-.37z" />
        <path opacity=".58"
            d="M13.56 12.37l-1.73-1s-.87-.5-.37-1.37c.5-.87 1.37-.37 1.37-.37l1.73 1s.87.5.37 1.37c-.5.87-1.37.37-1.37.37z" />
        <path opacity=".51" d="M15 9h-2s-1 0-1-1 1-1 1-1h2s1 0 1 1-1 1-1 1z" />
        <path opacity=".44"
            d="M14.56 5.37l-1.73 1s-.87.5-1.37-.37c-.5-.87.37-1.37.37-1.37l1.73-1s.87-.5 1.37.37c.5.87-.37 1.37-.37 1.37z" />
        <path opacity=".37"
            d="M9.64 3.1l.98-1.66s.5-.874 1.37-.37c.87.5.37 1.37.37 1.37l-1 1.73s-.5.87-1.37.37c-.87-.5-.37-1.37-.37-1.37z" />
    </svg>
    <svg x="176">
        <path opacity=".23" d="M7 3V1s0-1 1-1 1 1 1 1v2s0 1-1 1-1-1-1-1z" />
        <path
            d="M4.63 4.1l-1-1.73S3.13 1.5 4 1c.87-.5 1.37.37 1.37.37l1 1.73s.5.87-.37 1.37c-.87.57-1.37-.37-1.37-.37z" />
        <path opacity=".93"
            d="M3.1 6.37l-1.73-1S.5 4.87 1 4c.5-.87 1.37-.37 1.37-.37l1.73 1s.87.5.37 1.37c-.5.87-1.37.37-1.37.37z" />
        <path opacity=".86" d="M3 9H1S0 9 0 8s1-1 1-1h2s1 0 1 1-1 1-1 1z" />
        <path opacity=".79"
            d="M4.1 11.37l-1.73 1S1.5 12.87 1 12c-.5-.87.37-1.37.37-1.37l1.73-1s.87-.5 1.37.37c.5.87-.37 1.37-.37 1.37z" />
        <path opacity=".72"
            d="M3.63 13.56l1-1.73s.5-.87 1.37-.37c.87.5.37 1.37.37 1.37l-1 1.73s-.5.87-1.37.37c-.87-.5-.37-1.37-.37-1.37z" />
        <path opacity=".65" d="M7 15v-2s0-1 1-1 1 1 1 1v2s0 1-1 1-1-1-1-1z" />
        <path opacity=".58"
            d="M10.63 14.56l-1-1.73s-.5-.87.37-1.37c.87-.5 1.37.37 1.37.37l1 1.73s.5.87-.37 1.37c-.87.5-1.37-.37-1.37-.37z" />
        <path opacity=".51"
            d="M13.56 12.37l-1.73-1s-.87-.5-.37-1.37c.5-.87 1.37-.37 1.37-.37l1.73 1s.87.5.37 1.37c-.5.87-1.37.37-1.37.37z" />
        <path opacity=".44" d="M15 9h-2s-1 0-1-1 1-1 1-1h2s1 0 1 1-1 1-1 1z" />
        <path opacity=".37"
            d="M14.56 5.37l-1.73 1s-.87.5-1.37-.37c-.5-.87.37-1.37.37-1.37l1.73-1s.87-.5 1.37.37c.5.87-.37 1.37-.37 1.37z" />
        <path opacity=".3"
            d="M9.64 3.1l.98-1.66s.5-.874 1.37-.37c.87.5.37 1.37.37 1.37l-1 1.73s-.5.87-1.37.37c-.87-.5-.37-1.37-.37-1.37z" />
    </svg>
</svg>
