<svg xmlns="http://www.w3.org/2000/svg" width="16" height="16" fill="context-fill">
	<path opacity="0.3"
		d="M15,9c0.552,0,1,0.447,1,1v4c0,0.553-0.448,1-1,1H9c-0.552,0-1-0.447-1-1v-4c0-0.553,0.448-1,1-1H15z" />
	<path
		d="M13,1c1.654,0,3,1.346,3,3v2c0,0.553-0.448,1-1,1s-1-0.447-1-1V4c0-0.552-0.449-1-1-1H3C2.449,3,2,3.448,2,4v8c0,0.552,0.449,1,1,1h2c0.552,0,1,0.447,1,1c0,0.553-0.448,1-1,1H3c-1.654,0-3-1.346-3-3V4c0-1.654,1.346-3,3-3H13z M7.185,7.477L5.038,5.331h0.793c0.276,0,0.5-0.224,0.5-0.5s-0.224-0.5-0.5-0.5h-2c-0.065,0-0.13,0.014-0.191,0.038C3.518,4.42,3.42,4.518,3.37,4.64C3.344,4.701,3.331,4.766,3.331,4.831v2c0,0.276,0.224,0.5,0.5,0.5s0.5-0.224,0.5-0.5V6.038l2.146,2.147c0.196,0.195,0.512,0.195,0.708,0C7.38,7.989,7.38,7.673,7.185,7.477z" />
</svg>