<svg xmlns="http://www.w3.org/2000/svg" width="16" height="16" viewBox="0 0 444.819 444.819">
    <path fill="context-fill" fill-opacity="context-fill-opacity"
        d="M434.252 114.203l-21.409-21.416c-7.419-7.04-16.084-10.561-25.975-10.561-10.095 0-18.657 3.521-25.7 10.561L222.41 231.549 83.653 92.791c-7.042-7.04-15.606-10.561-25.697-10.561-9.896 0-18.559 3.521-25.979 10.561l-21.128 21.416C3.615 121.436 0 130.099 0 140.188c0 10.277 3.619 18.842 10.848 25.693l185.864 185.865c6.855 7.23 15.416 10.848 25.697 10.848 10.088 0 18.75-3.617 25.977-10.848l185.865-185.865c7.043-7.044 10.567-15.608 10.567-25.693.001-9.901-3.523-18.559-10.566-25.985z" />
</svg>