<svg xmlns="http://www.w3.org/2000/svg" viewBox="0 0 625.8 512">
    <path
        d="M568.9 0h-512C25.6 0 0 25 0 56.3v398.8C0 486.4 25.6 512 56.9 512h512c31.3 0 56.9-25.6 56.9-56.9V56.3C625.8 25 600.2 0 568.9 0zm-512 425.7V86c0-16.5 13.5-30 30-30h452c16.5 0 30 13.5 30 30v339.6c0 16.5-13.5 30-30 30h-452c-16.5.1-30-13.4-30-29.9zM482 227.6H314.4c-16.5 0-30 13.5-30 30v110.7c0 16.5 13.5 30 30 30H482c16.5 0 30-13.5 30-30V257.6c0-16.5-13.5-30-30-30z"
        fill="context-fill" fill-opacity="context-fill-opacity" />
</svg>