<svg xmlns="http://www.w3.org/2000/svg" viewBox="0 0 114 114" width="16" height="16">
    <circle cx="57" cy="57" fill="context-fill #f25056" r="57" />
    <path fill="context-stroke #9f1d2b"
        d="M83.8 74.3L39.7 30.2c-2.6-2.6-6.9-2.6-9.6 0-2.6 2.6-2.6 6.9 0 9.6l44.1 44.1c2.6 2.6 6.9 2.6 9.6 0 2.7-2.7 2.7-7 0-9.6z" />
    <path fill="context-stroke #9f1d2b"
        d="M39.7 83.8l44.1-44.1c2.6-2.6 2.6-6.9 0-9.6-2.6-2.6-6.9-2.6-9.6 0l-44 44.2c-2.6 2.6-2.6 6.9 0 9.6 2.6 2.6 6.9 2.6 9.5-.1z" />
</svg>