<!-- This Source Code Form is subject to the terms of the Creative Commons
   - Attribution-NonCommercial-ShareAlike International License, v. 4.0.
   - If a copy of the CC BY-NC-SA 4.0 was not distributed with this
   - file, You can obtain one at http://creativecommons.org/licenses/by-nc-sa/4.0/
   - or send a letter to Creative Commons, PO Box 1866, Mountain View, CA 94042, USA. -->

<svg xmlns="http://www.w3.org/2000/svg" fill="context-fill" fill-opacity="context-fill-opacity" viewBox="0 0 16 16">
    <path d="M15.5 11.546H13v-2.5a.5.5 0 00-1 0v2.5H9.5a.5.5 0 000 1H12v2.5a.5.5 0 001 0v-2.5h2.5a.5.5 0 000-1z" />
    <path
        d="M12.5 7.546c.617 0 1.147.375 1.378.908A.985.985 0 0014 8a1 1 0 00-1-1H3a1 1 0 000 2h8.005A1.5 1.5 0 0112.5 7.546z" />
</svg>
