<svg xmlns="http://www.w3.org/2000/svg" viewBox="0 0 16 16" width="16" height="16">
    <path fill="context-fill" fill-opacity="context-fill-opacity"
        d="M15.84 7.416c-.107-.305-.262-.567-.467-.787s-.455-.391-.75-.515-.63-.185-1.007-.185c-1.046 0-1.94.34-2.68 1.017l.283.496c.046.08.107.146.182.2a.449.449 0 00.27.082c.125 0 .24-.03.345-.088.104-.058.218-.124.342-.198a1.922 1.922 0 011.064-.285c.346 0 .611.103.793.31.182.208.273.527.273.957v.377c-.732.017-1.345.088-1.839.213s-.888.284-1.185.474c-.297.19-.51.404-.637.64a1.498 1.498 0 00-.192.718c0 .289.046.542.138.76.092.217.221.399.386.545.165.147.363.257.593.33.23.073.481.11.753.11.23 0 .44-.02.628-.057s.366-.094.533-.17c.167-.075.33-.168.486-.278.157-.111.317-.24.48-.386l.138.458c.042.134.105.222.188.266a.75.75 0 00.346.066H16V8.42a3.02 3.02 0 00-.16-1.004zm-1.352 3.408c-.113.117-.225.218-.336.304s-.226.158-.345.216c-.12.059-.246.103-.38.132s-.28.044-.439.044c-.26 0-.47-.059-.63-.176-.161-.117-.242-.311-.242-.583 0-.138.039-.266.116-.383s.208-.22.392-.307c.184-.088.428-.16.731-.217s.681-.095 1.133-.116v1.086zM3.564 3.413L0 12.486h1.311a.594.594 0 00.558-.383l.678-1.85h3.759l.678 1.85a.57.57 0 00.565.383h1.304L5.29 3.413H3.564zM2.98 9.06l1.105-3.005c.054-.138.11-.3.166-.483.056-.184.114-.383.173-.596a11.556 11.556 0 00.345 1.066L5.873 9.06H2.98z" />
</svg>