<!-- This Source Code Form is subject to the terms of the Creative Commons
   - Attribution-NonCommercial-ShareAlike International License, v. 4.0.
   - If a copy of the CC BY-NC-SA 4.0 was not distributed with this
   - file, You can obtain one at http://creativecommons.org/licenses/by-nc-sa/4.0/
   - or send a letter to Creative Commons, PO Box 1866, Mountain View, CA 94042, USA. -->

<svg xmlns="http://www.w3.org/2000/svg" width="16" height="16" viewBox="0 0 16 16" fill="context-fill"
    fill-opacity="context-fill-opacity">
    <path d="M16,4c0-1.657-1.343-3-3-3H3C1.343,1,0,2.343,0,4v8c0,1.657,1.343,3,3,3h4.519v-0.006c0.549-0.017,0.979-0.476,0.962-1.025
	c-0.017-0.524-0.438-0.945-0.962-0.962V13H3c-0.552,0-1-0.448-1-1V6h12v1.369h0.01C14.01,7.386,14,7.4,14,7.417c0,0.552,0.448,1,1,1
	s1-0.448,1-1c0-0.017-0.009-0.031-0.01-0.048H16V4z M2,5V4c0-0.552,0.448-1,1-1h10c0.552,0,1,0.448,1,1v1H2z" />
    <path d="M14.3,10l-1.8,1.8L10.7,10c-0.2-0.2-0.5-0.2-0.7,0s-0.2,0.5,0,0.7l1.8,1.8L10,14.3c-0.2,0.2-0.2,0.5,0,0.7s0.5,0.2,0.7,0
	l1.8-1.8l1.8,1.8c0.2,0.2,0.5,0.2,0.7,0s0.2-0.5,0-0.7l-1.8-1.8l1.8-1.8c0.2-0.2,0.2-0.5,0-0.7S14.5,9.8,14.3,10z" />
</svg>
