<!-- This Source Code Form is subject to the terms of the Creative Commons
   - Attribution-NonCommercial-ShareAlike International License, v. 4.0.
   - If a copy of the CC BY-NC-SA 4.0 was not distributed with this
   - file, You can obtain one at http://creativecommons.org/licenses/by-nc-sa/4.0/
   - or send a letter to Creative Commons, PO Box 1866, Mountain View, CA 94042, USA. -->

<svg xmlns="http://www.w3.org/2000/svg" width="16" height="16">
    <path fill="context-fill" fill-opacity="context-fill-opacity"
        d="M14.3 10l-1.8 1.8-1.8-1.8c-.2-.2-.5-.2-.7 0s-.2.5 0 .7l1.8 1.8-1.8 1.8c-.2.2-.2.5 0 .7s.5.2.7 0l1.8-1.8 1.8 1.8c.2.2.5.2.7 0s.2-.5 0-.7l-1.8-1.8 1.8-1.8c.2-.2.2-.5 0-.7s-.5-.2-.7 0z" />
    <path fill="context-fill" fill-opacity="context-fill-opacity"
        d="M16 12c0-.2-.1-.5-.2-.6l-1.1 1.1.5.5c.4-.1.8-.5.8-1zm-5.6.5L9 11.1c-.4-.4-.4-1 0-1.4l.7-.7c.4-.4 1-.4 1.4 0l1.4 1.4L13.9 9s.1 0 .1-.1V5c0-1.1-.9-2-2-2H4c-1.1 0-2 .9-2 2v6H1c-.6 0-1 .4-1 1s.4 1 1 1h8.9l.5-.5z" />
</svg>
