<svg xmlns="http://www.w3.org/2000/svg" width="16" height="16" viewBox="0 0 16 16">
    <g fill="context-fill" fill-opacity="context-fill-opacity">
        <rect width="6" height="6" x="1" y="1" rx="1" />
        <rect width="6" height="6" x="1" y="9" rx="1" />
        <rect width="6" height="6" x="9" y="9" rx="1" />
        <path
            d="M14.92 1.62a1 1 0 00-.54-.54A1 1 0 0014 1h-4a1 1 0 000 2h1.59l-2.3 2.29a1 1 0 000 1.42 1 1 0 001.42 0L13 4.41V6a1 1 0 002 0V2a1 1 0 00-.08-.38z" />
    </g>
</svg>