<!-- This Source Code Form is subject to the terms of the Creative Commons
   - Attribution-NonCommercial-ShareAlike International License, v. 4.0.
   - If a copy of the CC BY-NC-SA 4.0 was not distributed with this
   - file, You can obtain one at http://creativecommons.org/licenses/by-nc-sa/4.0/
   - or send a letter to Creative Commons, PO Box 1866, Mountain View, CA 94042, USA. -->

<svg xmlns="http://www.w3.org/2000/svg" width="16" height="16" viewBox="0 0 16 16" fill="context-fill"
    fill-opacity="context-fill-opacity">
    <path d="M15,11h-1V5c0-1.105-0.895-2-2-2H8.252c-1.105,0-2,0.895-2,2v6h-1c-0.552,0-1,0.448-1,1s0.448,1,1,1H15c0.552,0,1-0.448,1-1
	S15.552,11,15,11z" />
    <path d="M5.252,10V5c0-0.771,0.301-1.468,0.78-2H4C2.895,3,2,3.895,2,5v6H1c-0.552,0-1,0.448-1,1s0.448,1,1,1h2.53
	c-0.172-0.295-0.278-0.634-0.278-1C3.252,10.897,4.149,10,5.252,10z" />
</svg>
