<!-- This Source Code Form is subject to the terms of the Mozilla Public
   - License, v. 2.0. If a copy of the MPL was not distributed with this
   - file, You can obtain one at http://mozilla.org/MPL/2.0/. -->
<svg xmlns="http://www.w3.org/2000/svg" width="16" height="16"
  viewBox="0 0 16 16" fill="context-fill" fill-opacity="context-fill-opacity">
  <path
    d="M8.943,15.357c-.391-.391-.391-1.024,0-1.414l1.443-1.443-1.443-1.443c-.286-.286-.358-.701-.225-1.057h-3.718c-.552,0-1-.448-1-1v-4h7v3.905c.018.015.04.021.057.038l1.443,1.443.5-.5v-5.886c0-1.105-.895-2-2-2h-1.05C9.675.647,8.356-.227,7.003.047c-.984.2-1.753.969-1.953,1.953h-1.05c-1.105,0-2,.895-2,2v10c0,1.105.895,2,2,2h5.586l-.643-.643ZM4,3h1.05c.475,0,.885-.334.98-.8.166-.812.959-1.335,1.77-1.169.588.12,1.048.58,1.169,1.169.095.466.505.8.98.8h1.051v1h-7v-1ZM8,2.5c0,.276-.224.5-.5.5s-.5-.224-.5-.5.224-.5.5-.5.5.224.5.5ZM7.5,8c.276,0,.5.224.5.5s-.224.5-.5.5h-2c-.276,0-.5-.224-.5-.5s.224-.5.5-.5h2ZM9.5,7h-4c-.276,0-.5-.224-.5-.5s.224-.5.5-.5h4c.276,0,.5.224.5.5s-.224.5-.5.5ZM14.3,10l-1.8,1.8-1.8-1.8c-.2-.2-.5-.2-.7,0s-.2.5,0,.7l1.8,1.8-1.8,1.8c-.2.2-.2.5,0,.7s.5.2.7,0l1.8-1.8,1.8,1.8c.2.2.5.2.7,0s.2-.5,0-.7l-1.8-1.8,1.8-1.8c.2-.2.2-.5,0-.7s-.5-.2-.7,0Z" />
</svg>
