<svg xmlns="http://www.w3.org/2000/svg" fill="context-fill" fill-opacity="context-fill-opacity" viewBox="0 0 16 16">
    <path
        d="M5.5 8c-.3 0-.5.2-.5.5s.2.5.5.5h2c.3 0 .5-.2.5-.5S7.8 8 7.5 8h-2zM10 6.5c0-.3-.2-.5-.5-.5h-4c-.3 0-.5.2-.5.5s.2.5.5.5h4c.3 0 .5-.2.5-.5z" />
    <path
        d="M11.5 13.8v-.3h-1.1c-.8 0-1.5-.3-2-.9-.5-.6-.8-1.3-.8-2V10H5c-.6 0-1-.4-1-1V5h7v5.3h.6c-.1-.5.1-1 .4-1.4.3-.3.6-.4 1-.5V4c0-1.1-.9-2-2-2h-1C9.7.6 8.4-.2 7 0 6 .2 5.2 1 5 2H4c-1.1 0-2 .9-2 2v10c0 1.1.9 2 2 2h7c.6 0 1.1-.3 1.5-.7-.2-.1-.4-.2-.5-.4-.3-.3-.5-.7-.5-1.1zM4 3h1c.5 0 .9-.3 1-.8.2-.8 1-1.3 1.8-1.2.6.1 1 .6 1.2 1.2.1.5.5.8.9.8H11v1H4V3z" />
    <circle cx="7.5" cy="2.5" r=".5" />
    <path
        d="M15.5 11.5l-1.9-1.9c-.1-.1-.3-.2-.4-.2-.2 0-.3.1-.5.2-.2.2-.2.6 0 .9l.3.3.6.6h-3.1c-.3 0-.5-.2-.6-.5V8.7c0-.4-.3-.6-.6-.6s-.6.3-.6.6V11c.1.5.4.9.7 1.2.3.2.6.3 1 .3h3.2l-.6.6-.3.3c-.3.2-.3.6 0 .9.1.1.2.1.2.2h.2c.2 0 .3-.1.4-.2l1.9-1.9c.4-.3.4-.7.1-.9z" />
</svg>