<svg xmlns="http://www.w3.org/2000/svg" width="16" height="16" fill="context-fill" fill-opacity="context-fill-opacity"
    viewBox="0 0 16 16">
    <path
        d="M8.566 10.21a4.222 4.222 0 014.217-4.217c.426 0 .829.082 1.217.2V5a2 2 0 00-2-2H4a2 2 0 00-2 2v6H1a1 1 0 000 2h8.646a4.121 4.121 0 01-1.08-2.79zM12.783 16a1.29 1.29 0 001.286-1.286h-2.572A1.29 1.29 0 0012.783 16zM14.07 13.427h-2.573c-.236 0-.429.193-.429.429s.193.429.429.429h2.573c.236 0 .429-.193.429-.429s-.193-.429-.429-.429z" />
    <path
        d="M12.783 6.994a3.218 3.218 0 00-3.217 3.217c0 1.638 1.141 2.513 1.617 2.788h3.2c.476-.275 1.617-1.15 1.617-2.789a3.218 3.218 0 00-3.217-3.216z" />
</svg>