<svg xmlns="http://www.w3.org/2000/svg" width="16" height="16" viewBox="0 0 16 16" fill="context-fill"
    fill-opacity="context-fill-opacity">
    <path
        d="M15.854 12.14s-.001 0 0 0l-3.001-3.001a.496.496 0 00-.707.013.5.5 0 000 .695l2.147 2.148H7.5a.5.5 0 000 1h6.793l-2.147 2.146a.5.5 0 10.695.719l.012-.012 3-3a.5.5 0 00.001-.708z" />
    <path
        d="M7.5 10.994h4.38l-.453-.453a1.495 1.495 0 010-2.084 1.503 1.503 0 012.133-.025l.44.44V5a2 2 0 00-2-2H4a2 2 0 00-2 2v6H1a1 1 0 000 2h5.094A1.49 1.49 0 016 12.494c0-.827.673-1.5 1.5-1.5z" />
</svg>