<!-- This Source Code Form is subject to the terms of the Creative Commons
   - Attribution-NonCommercial-ShareAlike International License, v. 4.0.
   - If a copy of the CC BY-NC-SA 4.0 was not distributed with this
   - file, You can obtain one at http://creativecommons.org/licenses/by-nc-sa/4.0/
   - or send a letter to Creative Commons, PO Box 1866, Mountain View, CA 94042, USA. -->

<svg xmlns="http://www.w3.org/2000/svg" width="16" height="16" viewBox="0 0 16 16" fill="context-fill"
    fill-opacity="context-fill-opacity">
    <path d="M8,6c0.552,0,1-0.448,1-1V1c0-0.552-0.448-1-1-1S7,0.448,7,1v4C7,5.552,7.448,6,8,6z" />
    <path d="M15.5,12H13V9.5C13,9.224,12.776,9,12.5,9S12,9.224,12,9.5V12H9.5C9.224,12,9,12.224,9,12.5S9.224,13,9.5,13H12v2.5
	c0,0.276,0.224,0.5,0.5,0.5s0.5-0.224,0.5-0.5V13h2.5c0.276,0,0.5-0.224,0.5-0.5S15.776,12,15.5,12z" />
    <path d="M12.872,6.885c0.087,0.546,0.598,0.912,1.143,0.825c0.532-0.084,0.892-0.575,0.829-1.105
	c-0.148-0.712-0.397-1.415-0.781-2.079c-0.614-1.062-1.496-1.944-2.557-2.557H11.5c-0.48-0.273-1.091-0.105-1.364,0.375
	C9.866,2.819,10.028,3.423,10.5,3.7C11.771,4.423,12.603,5.478,12.872,6.885L12.872,6.885z" />
    <path d="M7.846,14.106c0.121-0.552-0.228-1.099-0.78-1.22l0,0C4.729,12.468,3,10.457,3,8c0-1.779,0.954-3.42,2.5-4.3
	c0.476-0.279,0.636-0.892,0.357-1.368C5.58,1.86,4.976,1.698,4.5,1.968c-3.347,1.935-4.492,6.216-2.557,9.563
	c1.056,1.828,2.815,2.986,4.736,3.356C7.212,14.975,7.729,14.64,7.846,14.106z" />
</svg>
