<!-- This Source Code Form is subject to the terms of the Creative Commons
   - Attribution-NonCommercial-ShareAlike International License, v. 4.0.
   - If a copy of the CC BY-NC-SA 4.0 was not distributed with this
   - file, You can obtain one at http://creativecommons.org/licenses/by-nc-sa/4.0/
   - or send a letter to Creative Commons, PO Box 1866, Mountain View, CA 94042, USA. -->

<svg xmlns="http://www.w3.org/2000/svg" width="16" height="16" viewBox="0 0 16 16" fill="context-fill"
	fill-opacity="context-fill-opacity">
	<path d="M10.19,11H11V9c0-0.111,0.03-0.214,0.063-0.314C10.168,8.59,9.306,8.278,9.306,7.992c0.221-0.963,1.145-1.596,2.123-1.455
	h-0.001c1.619,0.07,2.286,1.035,2.286,1.273c0,0.072-0.106,0.184-0.271,0.305C13.77,8.279,14,8.609,14,9v2h0.616
	c0.838-0.889,1.369-2.341,1.384-4.282c0.015-2.067-0.601-2.727-3.265-2.727S9.291,5.082,8,5.082s-2.07-1.09-4.735-1.09
	C0.6,3.992-0.015,4.651,0,6.719c0.025,3.329,1.54,5.273,3.592,5.273c1.564,0,2.813-2,4.408-2C8.802,9.992,9.491,10.497,10.19,11z
	 M4.408,8.719c-1.049,0-2.122-0.671-2.122-0.909s0.667-1.203,2.286-1.273C5.55,6.396,6.473,7.029,6.694,7.992
	C6.694,8.335,5.457,8.719,4.408,8.719z" />
	<path d="M15.5,12H13V9.5C13,9.224,12.776,9,12.5,9S12,9.224,12,9.5V12H9.5C9.224,12,9,12.224,9,12.5S9.224,13,9.5,13H12v2.5
	c0,0.276,0.224,0.5,0.5,0.5s0.5-0.224,0.5-0.5V13h2.5c0.276,0,0.5-0.224,0.5-0.5S15.776,12,15.5,12z" />
</svg>
