<!-- This Source Code Form is subject to the terms of the Creative Commons
   - Attribution-NonCommercial-ShareAlike International License, v. 4.0.
   - If a copy of the CC BY-NC-SA 4.0 was not distributed with this
   - file, You can obtain one at http://creativecommons.org/licenses/by-nc-sa/4.0/
   - or send a letter to Creative Commons, PO Box 1866, Mountain View, CA 94042, USA. -->
<svg xmlns="http://www.w3.org/2000/svg" width="16" height="16" viewBox="0 0 16 16" fill="context-fill"
	fill-opacity="context-fill-opacity">
	<path d="M14.968,11.87h0.516c0.285,0,0.516,0.231,0.516,0.516v3.097C16,15.769,15.769,16,15.484,16h-5.162
	c-0.285,0-0.516-0.231-0.516-0.516v-3.097c0-0.285,0.231-0.516,0.516-0.516h0.516v-1.032c0-1.14,0.926-2.065,2.065-2.065
	c1.14,0,2.065,0.927,2.065,2.065V11.87z M13.935,11.87v-1.032c0-0.569-0.463-1.033-1.032-1.033c-0.569,0-1.032,0.463-1.032,1.033
	v1.032H13.935z" />
	<path d="M8.805,12.386c0-0.112,0.029-0.216,0.052-0.321L8,11.618l-3.068,1.599l0.5-3.572L2.981,7.01l3.45-0.616L8,3.244l1.569,3.15
	l3.45,0.616l-0.782,0.841c0.215-0.048,0.436-0.078,0.666-0.078c0.618,0,1.191,0.187,1.673,0.503l1.036-1.112
	c0.144-0.155,0.241-0.348,0.278-0.557C15.996,6.009,15.598,5.438,15,5.331L10.911,4.6L8.985,0.734
	C8.878,0.52,8.705,0.347,8.491,0.24C7.947-0.031,7.287,0.19,7.016,0.734L5.089,4.6l-4.08,0.73c-0.21,0.037-0.404,0.133-0.56,0.278
	c-0.445,0.414-0.47,1.11-0.056,1.555l2.926,3.146l-0.609,4.36c-0.007,0.051-0.011,0.102-0.011,0.154c0,0.607,0.493,1.1,1.101,1.099
	c0.177,0.001,0.351-0.041,0.508-0.122L8,13.873l0.805,0.42V12.386z" />
</svg>
