<!-- This Source Code Form is subject to the terms of the Creative Commons
   - Attribution-NonCommercial-ShareAlike International License, v. 4.0.
   - If a copy of the CC BY-NC-SA 4.0 was not distributed with this
   - file, You can obtain one at http://creativecommons.org/licenses/by-nc-sa/4.0/
   - or send a letter to Creative Commons, PO Box 1866, Mountain View, CA 94042, USA. -->

<svg xmlns="http://www.w3.org/2000/svg" width="16" height="16" fill="context-fill" fill-opacity="context-fill-opacity"
  viewBox="0 0 16 16">
  <path
    d="M6.707,2.318C6.323,1.92,5.69,1.909,5.293,2.293l-5,5C0.105,7.48,0,7.735,0,8c0,0.265,0.105,0.52,0.293,0.707l5,5
		c0.388,0.374,1.002,0.374,1.389,0c0.397-0.384,0.408-1.017,0.025-1.414L2.414,8l4.293-4.293C7.081,3.319,7.081,2.705,6.707,2.318z" />
  <path d="M15.707,7.293l-5-5C10.31,1.909,9.677,1.92,9.293,2.318c-0.374,0.388-0.374,1.002,0,1.389L13.586,8l-4.293,4.293
		c-0.384,0.397-0.373,1.03,0.025,1.414c0.388,0.374,1.002,0.374,1.389,0l5-5C15.895,8.52,16,8.265,16,8
		C16,7.735,15.895,7.48,15.707,7.293z" />
</svg>
