<svg xmlns="http://www.w3.org/2000/svg" width="16" height="16" fill="context-fill" fill-opacity="context-fill-opacity"
    viewBox="0 0 16 16">
    <path d="M14.744,4.757l-3.5-3.5c-0.348-0.336-0.902-0.326-1.237,0.021c-0.328,0.339-0.328,0.877,0,1.216l2.006,2.006h-1.387
	C7.244,4.504,4.504,7.245,4.5,10.626c0,0.483,0.392,0.875,0.875,0.875s0.875-0.392,0.875-0.875c0.003-2.415,1.96-4.372,4.375-4.375
	h1.387l-2.006,2.006c-0.348,0.336-0.357,0.89-0.022,1.237c0.336,0.348,0.89,0.357,1.237,0.022c0.007-0.007,0.014-0.014,0.022-0.022
	l3.5-3.5C15.085,5.653,15.085,5.099,14.744,4.757z" />
    <path d="M12.375,10.626c-0.483,0-0.875,0.392-0.875,0.875v0.875c0,0.483-0.392,0.875-0.875,0.875h-7
	c-0.483,0-0.875-0.392-0.875-0.875V6.251c0-0.483,0.392-0.875,0.875-0.875H4.5c0.483,0,0.875-0.392,0.875-0.875
	S4.983,3.626,4.5,3.626H3.625C2.175,3.626,1,4.801,1,6.251v6.125c0,1.45,1.175,2.625,2.625,2.625h7c1.45,0,2.625-1.175,2.625-2.625
	v-0.875C13.25,11.018,12.858,10.626,12.375,10.626z" />
</svg>