<!-- This Source Code Form is subject to the terms of the Creative Commons
   - Attribution-NonCommercial-ShareAlike International License, v. 4.0.
   - If a copy of the CC BY-NC-SA 4.0 was not distributed with this
   - file, You can obtain one at http://creativecommons.org/licenses/by-nc-sa/4.0/
   - or send a letter to Creative Commons, PO Box 1866, Mountain View, CA 94042, USA. -->

<svg xmlns="http://www.w3.org/2000/svg" width="16" height="16" viewBox="0 0 16 16" fill="context-fill"
	fill-opacity="context-fill-opacity">
	<path d="M15.5,9C15.224,9,15,9.224,15,9.5v0.573c-1.326-1.387-3.525-1.436-4.912-0.11c-0.48,0.459-0.818,1.045-0.975,1.69
	c-0.073,0.266,0.084,0.541,0.35,0.614c0.266,0.073,0.541-0.084,0.614-0.35c0.002-0.007,0.004-0.015,0.006-0.022
	c0.274-1.112,1.271-1.894,2.417-1.896c0.783-0.001,1.519,0.37,1.983,1H13.5c-0.276,0-0.5,0.224-0.5,0.5s0.224,0.5,0.5,0.5h2
	c0.276,0,0.5-0.224,0.5-0.5v-2C16,9.224,15.776,9,15.5,9z" />
	<path d="M15.523,12.74c-0.268-0.067-0.539,0.096-0.606,0.364c0,0,0,0,0,0C14.642,14.217,13.645,14.999,12.5,15
	c-0.783,0.001-1.519-0.37-1.983-1H11.5c0.276,0,0.5-0.224,0.5-0.5c0-0.276-0.224-0.5-0.5-0.5h-2C9.224,13,9,13.224,9,13.5v2
	C9,15.776,9.224,16,9.5,16s0.5-0.224,0.5-0.5v-0.573c1.326,1.387,3.525,1.436,4.912,0.11c0.48-0.459,0.818-1.045,0.975-1.69
	C15.953,13.079,15.791,12.808,15.523,12.74z" />
	<path d="M8.01,12.485c0-2.506,2.032-4.538,4.538-4.538c0.511,0,0.994,0.103,1.452,0.259V5c0-1.105-0.895-2-2-2H4
	C2.895,3,2,3.895,2,5v6H1c-0.552,0-1,0.448-1,1s0.448,1,1,1h7.062C8.042,12.829,8.01,12.661,8.01,12.485z" />
</svg>
