<svg xmlns="http://www.w3.org/2000/svg" fill="context-fill" fill-opacity="context-fill-opacity" viewBox="0 0 512 512">
    <path
        d="M512 256v-64c0-35.346-28.654-64-64-64H64c-35.346 0-64 28.654-64 64v64h128v42.667H0v170.667c0 11.782 9.551 21.333 21.333 21.333h469.333c11.782 0 21.333-9.551 21.333-21.333V298.667H384V256h128zm-149.333 85.333H339.2a85.354 85.354 0 01-8.533 21.333l17.067 17.067-29.867 29.867-17.067-17.067-21.333 8.533v25.6h-44.8V403.2l-21.333-8.533-17.067 17.067-29.867-32 17.067-17.067a85.316 85.316 0 01-8.533-21.333h-25.6v-42.667H172.8a85.354 85.354 0 018.533-21.333l-17.067-17.067 29.867-29.867 17.067 17.067 21.333-8.533v-25.6H275.2V236.8l21.333 8.533 17.067-17.067 29.867 29.867L326.4 275.2a85.316 85.316 0 018.533 21.333h27.733v44.8z" />
    <circle cx="256" cy="320" r="42.667" />
    <path
        d="M192 64h128v42.667h42.667v-64c0-11.782-9.551-21.333-21.333-21.333H170.667c-11.782 0-21.333 9.551-21.333 21.333v64H192V64z" />
    </svg>