<svg xmlns="http://www.w3.org/2000/svg" fill="context-fill" fill-opacity="context-fill-opacity" width="16" height="16" viewBox="0 0 16 16">
    <path d="M16,8V6c0-1.105-0.895-2-2-2H2C0.895,4,0,4.895,0,6v2h4v1.333H0v5.333c0,0.368,0.298,0.667,0.667,0.667h14.667
	c0.368,0,0.667-0.298,0.667-0.667V9.333h-4V8H16z M11.333,10.667H10.6c-0.058,0.233-0.148,0.457-0.267,0.667l0.533,0.533L9.933,12.8
	L9.4,12.267l-0.667,0.267v0.8h-1.4V12.6l-0.667-0.267l-0.533,0.533l-0.933-1l0.533-0.533c-0.119-0.209-0.208-0.433-0.267-0.667h-0.8
	V9.333H5.4C5.458,9.1,5.548,8.876,5.667,8.667L5.133,8.133L6.067,7.2L6.6,7.733l0.667-0.267v-0.8H8.6V7.4l0.667,0.267L9.8,7.133
	l0.933,0.933L10.2,8.6c0.119,0.209,0.208,0.433,0.267,0.667h0.867L11.333,10.667L11.333,10.667z" />
    <circle cx="8" cy="10" r="1.333" />
    <path d="M6,2h4v1.333h1.333v-2c0-0.368-0.298-0.667-0.667-0.667H5.333c-0.368,0-0.667,0.298-0.667,0.667v2H6V2z" />
</svg>