<svg xmlns="http://www.w3.org/2000/svg" width="16" height="16" viewBox="0 0 16 16">
    <defs>
        <linearGradient id="color_a" x1="64.065%" x2="27.226%" y1="6.588%" y2="88.848%">
            <stop offset="0%" stop-color="#FF9640" />
            <stop offset="60%" stop-color="#FC4055" />
            <stop offset="100%" stop-color="#E31587" />
        </linearGradient>
        <linearGradient id="color_b" x1="64.065%" x2="27.226%" y1="6.588%" y2="88.848%">
            <stop offset="0%" stop-color="#FFF36E" stop-opacity=".8" />
            <stop offset="9%" stop-color="#FFF36E" stop-opacity=".7" />
            <stop offset="75%" stop-color="#FFF36E" stop-opacity="0" />
        </linearGradient>
        <linearGradient id="color_c" x1="76.537%" x2="33.666%" y1="89.279%" y2="3.042%">
            <stop offset="0%" stop-color="#B833E1" />
            <stop offset="37%" stop-color="#9059FF" />
            <stop offset="61%" stop-color="#5B6DF8" />
            <stop offset="100%" stop-color="#0090ED" />
        </linearGradient>
        <linearGradient id="color_d" x1="83.333%" x2="37.602%" y1="101.626%" y2="42.563%">
            <stop offset="0%" stop-color="#722291" stop-opacity=".5" />
            <stop offset="50%" stop-color="#722291" stop-opacity="0" />
        </linearGradient>
    </defs>
    <g fill="none" fill-opacity="context-fill-opacity" fill-rule="nonzero">
        <path fill="url(#color_a)"
            d="M7.448 8.644h.012a.78.78 0 00-.012 0zm3.012-6.587A6.077 6.077 0 006.05.195C2.654.195 0 2.894 0 6.34c0 3.192 4.917 8.626 5.479 9.237a.795.795 0 001.17-1.076 42.157 42.157 0 01-2.579-3.164C1.91 8.39 1.588 6.939 1.588 6.34c0-2.557 1.952-4.557 4.455-4.557A4.501 4.501 0 019.317 3.16a4.367 4.367 0 011.22 3.221c-.047 1.267-1.321 3.27-2.555 4.808l-.44.459c-.426.363-1.068.224-1.42-.209.337.412.707.855 1.129 1.33a.99.99 0 001.495-.01c.78-.9 3.295-4.018 3.38-6.319a5.94 5.94 0 00-1.666-4.382zM6.804 7.735v.027a.78.78 0 01.03-.14.78.78 0 00-.03.113z"
            transform="translate(1.951)" />
        <path fill="url(#color_b)"
            d="M7.448 8.644h.012a.78.78 0 00-.012 0zm3.012-6.587A6.077 6.077 0 006.05.195C2.654.195 0 2.894 0 6.34c0 3.192 4.917 8.626 5.479 9.237a.795.795 0 001.17-1.076 42.157 42.157 0 01-2.579-3.164C1.91 8.39 1.588 6.939 1.588 6.34c0-2.557 1.952-4.557 4.455-4.557A4.501 4.501 0 019.317 3.16a4.367 4.367 0 011.22 3.221c-.047 1.267-1.321 3.27-2.555 4.808l-.44.459c-.426.363-1.068.224-1.42-.209.337.412.707.855 1.129 1.33a.99.99 0 001.495-.01c.78-.9 3.295-4.018 3.38-6.319a5.94 5.94 0 00-1.666-4.382zM6.804 7.735v.027a.78.78 0 01.03-.14.78.78 0 00-.03.113z"
            transform="translate(1.951)" />
        <path fill="url(#color_c)"
            d="M7.543 11.647c-.425.365-1.067.224-1.42-.21l-.06-.075C3.8 8.56 3.39 7.198 3.316 6.708a2.679 2.679 0 01.667-2.158 2.763 2.763 0 012.147-.901 2.689 2.689 0 011.951.925c.524.606.777 1.4.698 2.199a2.964 2.964 0 01-.548 1.543.792.792 0 11-1.247-.976 1.55 1.55 0 00.217-.716 1.329 1.329 0 00-.318-1 1.114 1.114 0 00-.804-.39 1.182 1.182 0 00-.917.378 1.079 1.079 0 00-.271.882c.119.878 1.606 2.944 3.085 4.683l-.434.47z"
            transform="translate(1.951)" />
        <path fill="url(#color_d)"
            d="M5.104 10.111c.277.39.586.796.958 1.251l.06.074c.354.435.996.574 1.421.21l.441-.458a37.106 37.106 0 01-1.74-2.212l-1.14 1.135z"
            transform="translate(1.951)" />
    </g>
</svg>