<svg xmlns="http://www.w3.org/2000/svg" width="16" height="16" fill="context-fill" fill-opacity="context-fill-opacity"
    viewBox="0 0 16 16">
    <path d="M15.5,10h-6C9.224,10,9,10.224,9,10.5v0.32l3.5,2.1l3.5-2.1V10.5C16,10.224,15.776,10,15.5,10z" />
    <path d="M12.5,14c-0.092,0.002-0.182-0.022-0.26-0.07L9,12v3.5C9,15.776,9.224,16,9.5,16h6c0.276,0,0.5-0.224,0.5-0.5V12
			l-3.24,1.95C12.68,13.991,12.59,14.008,12.5,14z" />
    <path d="M8,15.5v-1.834c-1.123,0.001-2.258-0.326-3.25-1.016c-0.56-0.39-1.05-0.88-1.44-1.44c-0.29-0.44-0.24-1.02,0.13-1.41
	C4.57,8.41,6.26,10.29,8,10.29c0.007,0,0.014-0.001,0.021-0.001C8.125,9.562,8.745,9,9.5,9h6c0.147,0,0.286,0.028,0.421,0.067
	C15.967,8.717,16,8.363,16,8c0-4.42-3.58-8-8-8S0,3.58,0,8s3.58,8,8,8c0.031,0,0.06-0.004,0.091-0.005C8.036,15.84,8,15.674,8,15.5z
	 M8,2.29c1.89,0,3.43,1.54,3.43,3.43c0,1.89-1.54,3.42-3.43,3.42S4.57,7.61,4.57,5.71C4.57,3.81,6.11,2.29,8,2.29z" />
</svg>