<svg xmlns="http://www.w3.org/2000/svg" width="16" height="16" fill="context-fill" fill-opacity="context-fill-opacity"
    viewBox="0 0 16 16">
    <path d="M15.82,14.13l-3.19-6.41c-0.31-0.635-1.077-0.898-1.712-0.588c-0.256,0.125-0.463,0.332-0.588,0.588l-3.19,6.41
		c-0.32,0.636-0.064,1.412,0.572,1.732C7.891,15.953,8.089,16,8.29,16h6.38c0.712-0.001,1.289-0.58,1.288-1.292
		C15.957,14.507,15.91,14.309,15.82,14.13z M11,9.5C11,9.224,11.224,9,11.5,9S12,9.224,12,9.5v2c0,0.276-0.224,0.5-0.5,0.5
		S11,11.776,11,11.5V9.5z M11.5,14.19c-0.381,0-0.69-0.309-0.69-0.69s0.309-0.69,0.69-0.69s0.69,0.309,0.69,0.69
		S11.881,14.19,11.5,14.19z" />
    <path d="M6.118,15.428c-0.192-0.581-0.146-1.202,0.127-1.744l0.127-0.256C5.808,13.26,5.26,13.004,4.75,12.65
	c-0.56-0.39-1.05-0.88-1.44-1.44c-0.29-0.44-0.24-1.02,0.13-1.41c1.116-1.373,2.779,0.441,4.496,0.486l0.597-1.2
	C8.358,9.114,8.182,9.14,8,9.14c-1.89,0-3.43-1.53-3.43-3.43c0-1.9,1.54-3.42,3.43-3.42s3.43,1.54,3.43,3.43
	c0,0.1-0.021,0.193-0.029,0.291c0.027-0.001,0.052-0.009,0.078-0.009c0.878,0,1.664,0.49,2.046,1.273l1.874,3.765
	C15.784,10.102,16,9.077,16,8c0-4.42-3.58-8-8-8S0,3.58,0,8c0,3.832,2.692,7.028,6.288,7.812C6.221,15.69,6.162,15.563,6.118,15.428
	z" />
</svg>