<svg xmlns="http://www.w3.org/2000/svg" width="16" height="16" fill="context-fill" fill-opacity="context-fill-opacity"
    viewBox="0 0 16 16">
    <path d="M12.629,9.806c-1.2-1.394-2.891,0.48-4.629,0.48s-3.429-1.874-4.571-0.48c-0.343,0.397-0.371,0.977-0.069,1.406
	c1.797,2.594,5.357,3.24,7.951,1.443c0.564-0.391,1.052-0.879,1.443-1.443C13.041,10.77,12.989,10.189,12.629,9.806z" />
    <circle cx="8" cy="5.714" r="3.429" />
    <path d="M8,0C3.582,0,0,3.582,0,8s3.582,8,8,8s8-3.582,8-8S12.418,0,8,0z M8,14.857c-3.787,0-6.857-3.07-6.857-6.857
	S4.213,1.143,8,1.143S14.857,4.213,14.857,8S11.787,14.857,8,14.857z" />
</svg>