<?xml version="1.0" encoding="UTF-8" standalone="no"?>
<svg
   xmlns:dc="http://purl.org/dc/elements/1.1/"
   xmlns:cc="http://creativecommons.org/ns#"
   xmlns:rdf="http://www.w3.org/1999/02/22-rdf-syntax-ns#"
   xmlns:svg="http://www.w3.org/2000/svg"
   xmlns="http://www.w3.org/2000/svg"
   viewBox="0 0 114.66667 116"
   height="116"
   width="114.66667"
   xml:space="preserve"
   id="svg2"
   version="1.1"><metadata
     id="metadata8"><rdf:RDF><cc:Work
         rdf:about=""><dc:format>image/svg+xml</dc:format><dc:type
           rdf:resource="http://purl.org/dc/dcmitype/StillImage" /></cc:Work></rdf:RDF></metadata><defs
     id="defs6" /><g
     transform="matrix(1.3333333,0,0,-1.3333333,0,116)"
     id="g10"><g
       transform="scale(0.1)"
       id="g12"><path
         id="path14"
         style="fill:#d52735;fill-opacity:1;fill-rule:evenodd;stroke:none"
         d="m 430.199,7.36719 c 236.063,0 427.426,191.36681 427.426,427.43381 0,236.058 -191.363,427.426 -427.426,427.426 C 194.137,862.227 2.76953,670.859 2.76953,434.801 2.76953,198.734 194.137,7.36719 430.199,7.36719" /><path
         id="path16"
         style="fill:#f25056;fill-opacity:1;fill-rule:evenodd;stroke:none"
         d="m 430.199,43.7227 c 215.985,0 391.074,175.0903 391.074,391.0783 0,215.98 -175.089,391.07 -391.074,391.07 -215.984,0 -391.0779,-175.09 -391.0779,-391.07 0,-215.988 175.0939,-391.0783 391.0779,-391.0783" /></g></g></svg>