<?xml version="1.0" encoding="utf-8"?>
<!-- Generator: Adobe Illustrator 25.0.1, SVG Export Plug-In . SVG Version: 6.00 Build 0)  -->
<svg version="1.1"
	 id="svg2" xmlns:cc="http://creativecommons.org/ns#" xmlns:dc="http://purl.org/dc/elements/1.1/" xmlns:rdf="http://www.w3.org/1999/02/22-rdf-syntax-ns#" xmlns:svg="http://www.w3.org/2000/svg"
	 xmlns="http://www.w3.org/2000/svg" xmlns:xlink="http://www.w3.org/1999/xlink" x="0px" y="0px" viewBox="0 0 114 114"
	 style="enable-background:new 0 0 114 114;" xml:space="preserve">
<style type="text/css">
	.st0{fill-rule:evenodd;clip-rule:evenodd;fill:#F25056;}
	.st1{fill-rule:evenodd;clip-rule:evenodd;fill:#9F1D2B;}
</style>
<path class="st0" d="M57,0C25.5,0,0,25.5,0,57c0,31.5,25.5,57,57,57c31.5,0,57-25.5,57-57C114,25.5,88.5,0,57,0z"/>
<path class="st1" d="M83.8,74.3L39.7,30.2c-2.6-2.6-6.9-2.6-9.6,0l0,0c-2.6,2.6-2.6,6.9,0,9.6l44.1,44.1c2.6,2.6,6.9,2.6,9.6,0l0,0
	C86.5,81.2,86.5,76.9,83.8,74.3z"/>
<path class="st1" d="M39.7,83.8l44.1-44.1c2.6-2.6,2.6-6.9,0-9.6l0,0c-2.6-2.6-6.9-2.6-9.6,0L30.2,74.3c-2.6,2.6-2.6,6.9,0,9.6l0,0
	C32.8,86.5,37.1,86.5,39.7,83.8z"/>
</svg>
