<?xml version="1.0" encoding="utf-8"?>
<!-- Generator: Adobe Illustrator 25.0.1, SVG Export Plug-In . SVG Version: 6.00 Build 0)  -->
<svg version="1.1"
	 id="svg2" xmlns:cc="http://creativecommons.org/ns#" xmlns:dc="http://purl.org/dc/elements/1.1/" xmlns:rdf="http://www.w3.org/1999/02/22-rdf-syntax-ns#" xmlns:svg="http://www.w3.org/2000/svg"
	 xmlns="http://www.w3.org/2000/svg" xmlns:xlink="http://www.w3.org/1999/xlink" x="0px" y="0px" viewBox="0 0 116 114.7"
	 style="enable-background:new 0 0 116 114.7;" xml:space="preserve">
<style type="text/css">
	.st0{fill-rule:evenodd;clip-rule:evenodd;fill:#13C11E;}
	.st1{fill-rule:evenodd;clip-rule:evenodd;fill:#39EA49;}
	.st2{fill-rule:evenodd;clip-rule:evenodd;fill:#0B7407;}
</style>
<g id="g10" transform="matrix(1.3333333,0,0,-1.3333333,0,114.66667)">
	<g id="g12" transform="scale(0.1)">
		<path id="path14" class="st0" d="M437,4.3c236.1,0,427.4,191.4,427.4,427.4c0,236.1-191.4,427.4-427.4,427.4
			C200.9,859.2,9.6,667.8,9.6,431.8C9.6,195.7,200.9,4.3,437,4.3"/>
		<path id="path16" class="st1" d="M437,40.7c216,0,391.1,175.1,391.1,391.1c0,216-175.1,391.1-391.1,391.1
			c-216,0-391.1-175.1-391.1-391.1C45.9,215.8,221,40.7,437,40.7"/>
		<path id="path18" class="st2" d="M790.5,455.2H523.3c-35.6,0-64.7,29.1-64.7,64.7v267.2L790.5,455.2z M82.5,408.4h268.3
			c35.6,0,64.7-29.1,64.7-64.7V75.4L82.5,408.4"/>
	</g>
</g>
</svg>
