<?xml version="1.0" encoding="utf-8"?>
<!-- Generator: Adobe Illustrator 25.0.1, SVG Export Plug-In . SVG Version: 6.00 Build 0)  -->
<svg version="1.1" id="Layer_1" xmlns="http://www.w3.org/2000/svg" xmlns:xlink="http://www.w3.org/1999/xlink" x="0px" y="0px"
	 viewBox="0 0 114 114" style="enable-background:new 0 0 114 114;" xml:space="preserve">
<style type="text/css">
	.st0{fill-rule:evenodd;clip-rule:evenodd;fill:#39EA49;}
	.st1{fill:#0B7407;}
</style>
<path class="st0" d="M57,0C25.5,0,0,25.5,0,57s25.5,57,57,57s57-25.5,57-57S88.5,0,57,0z"/>
<path class="st1" d="M77.5,27.1h-9.4H46.8h-9.4c-6.3,0-11.4,5.1-11.4,11.4v8.3v22.4v8.3c0,6.3,5.1,11.4,11.4,11.4h9.4h21.3h9.4
	c6.3,0,11.4-5.1,11.4-11.4v-8.3V46.8v-8.3C88.9,32.2,83.8,27.1,77.5,27.1z M72.1,75.5H42.9c-1.6,0-2.9-1.3-2.9-2.9V43.4
	c0-1.6,1.3-2.9,2.9-2.9h29.2c1.6,0,2.9,1.3,2.9,2.9v29.2C75,74.2,73.7,75.5,72.1,75.5z"/>
</svg>
