<?xml version="1.0" encoding="utf-8"?>
<!-- Generator: Adobe Illustrator 25.0.1, SVG Export Plug-In . SVG Version: 6.00 Build 0)  -->
<svg version="1.1" id="Layer_1" xmlns="http://www.w3.org/2000/svg" xmlns:xlink="http://www.w3.org/1999/xlink" x="0px" y="0px"
	 viewBox="0 0 114 114" style="enable-background:new 0 0 114 114;" xml:space="preserve">
<style type="text/css">
	.st0{fill-rule:evenodd;clip-rule:evenodd;fill:#39EA49;}
	.st1{fill:#0B7407;}
</style>
<path class="st0" d="M57,0C25.5,0,0,25.5,0,57s25.5,57,57,57s57-25.5,57-57S88.5,0,57,0z"/>
<g>
	<path class="st1" d="M31.4,46.1c-1.2-1.3-3.4-0.4-3.4,1.4v30.9c0,4.7,3.9,8.6,8.6,8.6h30.9c1.8,0,2.7-2.2,1.4-3.4L31.4,46.1z"/>
	<path class="st1" d="M87,37.6c0-4.7-3.9-8.6-8.6-8.6H47.5c-1.8,0-2.7,2.2-1.4,3.4l37.5,37.5c1.2,1.3,3.4,0.4,3.4-1.4V37.6z"/>
</g>
</svg>
