<?xml version="1.0" encoding="UTF-8" standalone="no"?>
<svg
   xmlns:dc="http://purl.org/dc/elements/1.1/"
   xmlns:cc="http://creativecommons.org/ns#"
   xmlns:rdf="http://www.w3.org/1999/02/22-rdf-syntax-ns#"
   xmlns:svg="http://www.w3.org/2000/svg"
   xmlns="http://www.w3.org/2000/svg"
   viewBox="0 0 116 114.66667"
   height="114.66667"
   width="116"
   xml:space="preserve"
   id="svg2"
   version="1.1"><metadata
     id="metadata8"><rdf:RDF><cc:Work
         rdf:about=""><dc:format>image/svg+xml</dc:format><dc:type
           rdf:resource="http://purl.org/dc/dcmitype/StillImage" /></cc:Work></rdf:RDF></metadata><defs
     id="defs6" /><g
     transform="matrix(1.3333333,0,0,-1.3333333,0,114.66667)"
     id="g10"><g
       transform="scale(0.1)"
       id="g12"><path
         id="path14"
         style="fill:#b4b4b4;fill-opacity:1;fill-rule:evenodd;stroke:none"
         d="m 433.035,4.57031 c 236.063,0 427.43,191.36369 427.43,427.42969 0,236.059 -191.367,427.426 -427.43,427.426 C 196.973,859.426 5.60547,668.059 5.60547,432 5.60547,195.934 196.973,4.57031 433.035,4.57031" /><path
         id="path16"
         style="fill:#c7c7c7;fill-opacity:1;fill-rule:evenodd;stroke:none"
         d="M 433.035,40.9219 C 649.02,40.9219 824.109,216.012 824.109,432 824.109,647.98 649.02,823.074 433.035,823.074 217.051,823.074 41.957,647.98 41.957,432 41.957,216.012 217.051,40.9219 433.035,40.9219" /></g></g></svg>