<?xml version="1.0" encoding="UTF-8" standalone="no"?>
<svg
   xmlns:dc="http://purl.org/dc/elements/1.1/"
   xmlns:cc="http://creativecommons.org/ns#"
   xmlns:rdf="http://www.w3.org/1999/02/22-rdf-syntax-ns#"
   xmlns:svg="http://www.w3.org/2000/svg"
   xmlns="http://www.w3.org/2000/svg"
   viewBox="0 0 116 114.66667"
   height="114.66667"
   width="116"
   xml:space="preserve"
   id="svg2"
   version="1.1"><metadata
     id="metadata8"><rdf:RDF><cc:Work
         rdf:about=""><dc:format>image/svg+xml</dc:format><dc:type
           rdf:resource="http://purl.org/dc/dcmitype/StillImage" /></cc:Work></rdf:RDF></metadata><defs
     id="defs6" /><g
     transform="matrix(1.3333333,0,0,-1.3333333,0,114.66667)"
     id="g10"><g
       transform="scale(0.1)"
       id="g12"><path
         id="path14"
         style="fill:#13c11e;fill-opacity:1;fill-rule:evenodd;stroke:none"
         d="m 437.004,4.34766 c 236.059,0 427.426,191.36734 427.426,427.42934 0,236.063 -191.367,427.43 -427.426,427.43 C 200.938,859.207 9.57031,667.84 9.57031,431.777 9.57031,195.715 200.938,4.34766 437.004,4.34766" /><path
         id="path16"
         style="fill:#39ea49;fill-opacity:1;fill-rule:evenodd;stroke:none"
         d="m 437.004,40.6992 c 215.984,0 391.074,175.0938 391.074,391.0778 0,215.985 -175.09,391.075 -391.074,391.075 -215.988,0 -391.0782,-175.09 -391.0782,-391.075 0,-215.984 175.0902,-391.0778 391.0782,-391.0778" /><path
         id="path18"
         style="fill:#0b7407;fill-opacity:1;fill-rule:evenodd;stroke:none"
         d="m 321.367,649.883 h 267.199 c 35.579,0 64.692,-29.113 64.692,-64.695 V 317.992 Z M 553.691,213.672 H 285.438 c -35.583,0 -64.692,29.109 -64.692,64.691 V 546.617 L 553.691,213.672" /></g></g></svg>