<?xml version="1.0" encoding="UTF-8" standalone="no"?>
<svg
   xmlns:dc="http://purl.org/dc/elements/1.1/"
   xmlns:cc="http://creativecommons.org/ns#"
   xmlns:rdf="http://www.w3.org/1999/02/22-rdf-syntax-ns#"
   xmlns:svg="http://www.w3.org/2000/svg"
   xmlns="http://www.w3.org/2000/svg"
   viewBox="0 0 116 114.66667"
   height="114.66667"
   width="116"
   xml:space="preserve"
   id="svg2"
   version="1.1"><metadata
     id="metadata8"><rdf:RDF><cc:Work
         rdf:about=""><dc:format>image/svg+xml</dc:format><dc:type
           rdf:resource="http://purl.org/dc/dcmitype/StillImage" /></cc:Work></rdf:RDF></metadata><defs
     id="defs6" /><g
     transform="matrix(1.3333333,0,0,-1.3333333,0,114.66667)"
     id="g10"><g
       transform="scale(0.1)"
       id="g12"><path
         id="path14"
         style="fill:#b4b4b4;fill-opacity:1;fill-rule:evenodd;stroke:none"
         d="m 434.199,4.57031 c 236.067,0 427.43,191.36369 427.43,427.42969 0,236.059 -191.363,427.426 -427.43,427.426 C 198.137,859.426 6.76953,668.059 6.76953,432 6.76953,195.934 198.137,4.57031 434.199,4.57031" /><path
         id="path16"
         style="fill:#c7c7c7;fill-opacity:1;fill-rule:evenodd;stroke:none"
         d="m 434.199,40.9219 c 215.989,0 391.078,175.0901 391.078,391.0781 0,215.98 -175.089,391.074 -391.078,391.074 C 218.215,823.074 43.125,647.98 43.125,432 43.125,216.012 218.215,40.9219 434.199,40.9219" /></g></g></svg>