<?xml version="1.0" encoding="UTF-8" standalone="no"?>
<svg
   xmlns:dc="http://purl.org/dc/elements/1.1/"
   xmlns:cc="http://creativecommons.org/ns#"
   xmlns:rdf="http://www.w3.org/1999/02/22-rdf-syntax-ns#"
   xmlns:svg="http://www.w3.org/2000/svg"
   xmlns="http://www.w3.org/2000/svg"
   viewBox="0 0 116 114.66667"
   height="114.66667"
   width="116"
   xml:space="preserve"
   id="svg2"
   version="1.1"><metadata
     id="metadata8"><rdf:RDF><cc:Work
         rdf:about=""><dc:format>image/svg+xml</dc:format><dc:type
           rdf:resource="http://purl.org/dc/dcmitype/StillImage" /></cc:Work></rdf:RDF></metadata><defs
     id="defs6" /><g
     transform="matrix(1.3333333,0,0,-1.3333333,0,114.66667)"
     id="g10"><g
       transform="scale(0.1)"
       id="g12"><path
         id="path14"
         style="fill:#da9e10;fill-opacity:1;fill-rule:evenodd;stroke:none"
         d="m 433.035,1.94922 c 236.063,0 427.43,191.36678 427.43,427.42978 0,236.059 -191.367,427.426 -427.43,427.426 C 196.973,856.805 5.60547,665.438 5.60547,429.379 5.60547,193.316 196.973,1.94922 433.035,1.94922" /><path
         id="path16"
         style="fill:#fac536;fill-opacity:1;fill-rule:evenodd;stroke:none"
         d="m 433.035,38.3008 c 215.985,0 391.074,175.0902 391.074,391.0782 0,215.984 -175.089,391.074 -391.074,391.074 -215.984,0 -391.078,-175.09 -391.078,-391.074 0,-215.988 175.094,-391.0782 391.078,-391.0782" /><path
         id="path18"
         style="fill:#975914;fill-opacity:1;fill-rule:evenodd;stroke:none"
         d="m 183.508,464.957 h 499.055 c 19.316,0 35.117,-15.797 35.117,-35.117 v -0.926 c 0,-19.32 -15.801,-35.117 -35.117,-35.117 H 183.508 c -19.317,0 -35.117,15.797 -35.117,35.117 v 0.926 c 0,19.32 15.8,35.117 35.117,35.117" /></g></g></svg>