<svg xmlns="http://www.w3.org/2000/svg" width="340" height="20">
  <defs>
    <path d="M9.293,14.725c0.391,0.39,1.024,0.39,1.414,0l5-5c0.378-0.403,0.357-1.036-0.045-1.413c-0.385-0.361-0.984-0.361-1.369,0
	L11,11.605V3.019c0-0.552-0.448-1-1-1c-0.552,0-1,0.448-1,1v8.586L5.707,8.312C5.304,7.934,4.672,7.954,4.293,8.356
	c-0.361,0.385-0.361,0.984,0,1.369L9.293,14.725z" id="arrow" />
    <path d="M15,16c0.552,0,1,0.448,1,1s-0.448,1-1,1H5c-0.552,0-1-0.448-1-1s0.448-1,1-1H15z" id="tray" />
  </defs>
  <defs>
    <path stroke-linecap="round" stroke="context-fill"
      d="M4.869 16.933A8.624 8.624 0 0 1 9.875 1.376M10 1.375A8.624 8.624 0 0 1 18.625 10 8.624 8.624 0 0 1 10 18.625a8.59 8.59 0 0 1-5.131-1.692"
      fill="none" stroke-width="2" id="q" />
    <path fill="#fff" d="M2.688 12.75c0 0 0 5.562 0 5.562 0 0 .062 0 .062 0 0 0 0-5.562 0-5.562 0 0-.062 0-.062 0"
      id="h" />
  </defs>
  <svg viewBox="0 0 20 20" width="20" height="20">
    <use fill="context-stroke" href="#tray" />
    <use fill="context-stroke" href="#arrow" />
  </svg>
  <svg viewBox="0 0 20 20" width="20" height="20" x="20">
    <defs>
      <clipPath id="b">
        <path fill="#fff"
          d="M2.688 12.75c0 0 0 5.562 0 5.562 0 0 13.41 0 13.41 0 0 0 0-5.562 0-5.562 0 0-13.41 0-13.41 0" />
      </clipPath>
    </defs>
    <g clip-path="url(#b)">
      <use fill="context-stroke" href="#tray" />
    </g>
    <use fill="context-stroke" href="#arrow" transform="scale(0.9)" transform-origin="center" />
  </svg>
  <svg viewBox="0 0 20 20" width="20" height="20" x="40">
    <defs>
      <clipPath id="c">
        <path fill="#fff"
          d="M2.688 12.75c0 0 0 5.562 0 5.562 0 0 11.167 0 11.167 0 0 0 0-5.562 0-5.562 0 0-11.167 0-11.167 0" />
      </clipPath>
    </defs>
    <g clip-path="url(#c)">
      <use fill="context-stroke" href="#tray" />
    </g>
    <use fill="context-stroke" href="#arrow" transform="scale(0.84)" transform-origin="center" />
  </svg>
  <svg viewBox="0 0 20 20" width="20" height="20" x="60">
    <defs>
      <clipPath id="d">
        <path fill="#fff" d="M2.688 12.75c0 0 0 5.562 0 5.562 0 0 8.7 0 8.7 0 0 0 0-5.562 0-5.562 0 0-8.7 0-8.7 0" />
      </clipPath>
    </defs>
    <g clip-path="url(#d)">
      <use fill="context-stroke" href="#tray" />
    </g>
    <use fill="context-stroke" href="#arrow" transform="scale(0.78)" transform-origin="center" />
  </svg>
  <svg viewBox="0 0 20 20" width="20" height="20" x="80">
    <defs>
      <clipPath id="e">
        <path fill="#fff"
          d="M2.688 12.75c0 0 0 5.562 0 5.562 0 0 6.174 0 6.174 0 0 0 0-5.562 0-5.562 0 0-6.174 0-6.174 0" />
      </clipPath>
    </defs>
    <path stroke-linecap="round" stroke="context-fill" d="M4.869 16.933a8.628 8.628 0 0 1-1.38-1.275" fill="none"
      stroke-width="2" />
    <g clip-path="url(#e)">
      <use fill="context-stroke" href="#tray" />
    </g>
    <use fill="context-stroke" href="#arrow" transform="scale(0.58)" transform-origin="center" />
  </svg>
  <svg viewBox="0 0 20 20" width="20" height="20" x="100">
    <defs>
      <clipPath id="f">
        <path fill="#fff"
          d="M2.688 12.75c0 0 0 5.562 0 5.562 0 0 3.707 0 3.707 0 0 0 0-5.562 0-5.562 0 0-3.707 0-3.707 0" />
      </clipPath>
    </defs>
    <path stroke-linecap="round" stroke="context-fill" d="M4.869 16.933a8.648 8.648 0 0 1-3.016-4.091" fill="none"
      stroke-width="2" />
    <g clip-path="url(#f)">
      <use fill="context-stroke" href="#tray" />
    </g>
    <use fill="context-stroke" href="#arrow" transform="scale(0.35)" transform-origin="center" />
  </svg>
  <svg viewBox="0 0 20 20" width="20" height="20" x="120">
    <defs>
      <clipPath id="g">
        <path fill="#fff"
          d="M2.688 12.75c0 0 0 5.562 0 5.562 0 0 1.464 0 1.464 0 0 0 0-5.562 0-5.562 0 0-1.464 0-1.464 0" />
      </clipPath>
    </defs>
    <path stroke-linecap="round" stroke="context-fill"
      d="M4.869 16.933A8.612 8.612 0 0 1 1.375 10a8.58 8.58 0 0 1 1.569-4.961" fill="none" stroke-width="2" />
    <g clip-path="url(#g)">
      <use fill="context-stroke" href="#tray" />
    </g>
    <use fill="context-stroke" href="#arrow" transform="scale(0.2)" transform-origin="center" />
  </svg>
  <svg viewBox="0 0 20 20" width="20" height="20" x="140">
    <defs>
      <clipPath id="i">
        <use fill="#fff" href="#h" />
      </clipPath>
    </defs>
    <path stroke-linecap="round" stroke="context-fill"
      d="M4.869 16.933A8.624 8.624 0 0 1 9.875 1.376M10 1.375a8.623 8.623 0 0 1 7.542 4.437" fill="none"
      stroke-width="2" />
    <use fill="context-stroke" href="#arrow" transform="scale(0.12)" transform-origin="center" />
  </svg>
  <svg viewBox="0 0 20 20" width="20" height="20" x="160">
    <defs>
      <clipPath id="j">
        <use fill="#fff" href="#h" />
      </clipPath>
    </defs>
    <path stroke-linecap="round" stroke="context-fill"
      d="M4.869 16.933A8.624 8.624 0 0 1 9.875 1.376M10 1.375A8.624 8.624 0 0 1 18.625 10c0 1.918-.626 3.69-1.685 5.122"
      fill="none" stroke-width="2" />
    <use fill="context-stroke" href="#arrow" transform="scale(0.07)" transform-origin="center" />
  </svg>
  <svg viewBox="0 0 20 20" width="20" height="20" x="180">
    <defs>
      <clipPath id="k">
        <use fill="#fff" href="#h" />
      </clipPath>
    </defs>
    <path stroke-linecap="round" stroke="context-fill"
      d="M4.869 16.933A8.624 8.624 0 0 1 9.875 1.376M10 1.375A8.624 8.624 0 0 1 18.625 10a8.626 8.626 0 0 1-5.747 8.133"
      fill="none" stroke-width="2" />
    <g clip-path="url(#k)">
      <use fill="context-fill" href="#tray" />
    </g>
    <use fill="context-stroke" href="#arrow" transform="scale(0.04)" transform-origin="center" />
  </svg>
  <svg viewBox="0 0 20 20" width="20" height="20" x="200">
    <path stroke-linecap="round" stroke="context-fill"
      d="M4.869 16.933A8.624 8.624 0 0 1 9.875 1.376M10 1.375A8.624 8.624 0 0 1 18.625 10a8.624 8.624 0 0 1-8.865 8.622"
      fill="none" stroke-width="2" />
  </svg>
  <svg viewBox="0 0 20 20" width="20" height="20" x="220">
    <defs>
      <clipPath id="m">
        <use fill="#fff" href="#h" />
      </clipPath>
    </defs>
    <path stroke-linecap="round" stroke="context-fill"
      d="M4.869 16.933A8.624 8.624 0 0 1 9.875 1.376M10 1.375A8.624 8.624 0 0 1 18.625 10 8.624 8.624 0 0 1 10 18.625c-.8 0-1.574-.11-2.31-.313"
      fill="none" stroke-width="2" />
    <g clip-path="url(#m)">
      <use fill="context-fill" href="#tray" />
    </g>
  </svg>
  <svg viewBox="0 0 20 20" width="20" height="20" x="240">
    <path stroke-linecap="round" stroke="context-fill"
      d="M4.869 16.933A8.624 8.624 0 0 1 9.875 1.376M10 1.375A8.624 8.624 0 0 1 18.625 10 8.624 8.624 0 0 1 10 18.625a8.582 8.582 0 0 1-3.633-.8"
      fill="none" stroke-width="2" />
  </svg>
  <svg viewBox="0 0 20 20" width="20" height="20" x="260">
    <path stroke-linecap="round" stroke="context-fill"
      d="M4.869 16.933A8.624 8.624 0 0 1 9.875 1.376M10 1.375A8.624 8.624 0 0 1 18.625 10 8.624 8.624 0 0 1 10 18.625a8.578 8.578 0 0 1-4.444-1.232"
      fill="none" stroke-width="2" />
  </svg>
  <svg viewBox="0 0 20 20" width="20" height="20" x="280">
    <path stroke-linecap="round" stroke="context-fill"
      d="M4.869 16.933A8.624 8.624 0 0 1 9.875 1.376M10 1.375A8.624 8.624 0 0 1 18.625 10 8.624 8.624 0 0 1 10 18.625a8.586 8.586 0 0 1-4.912-1.534"
      fill="none" stroke-width="2" />
  </svg>
  <svg viewBox="0 0 20 20" width="20" height="20" x="300">
    <use stroke-linecap="round" stroke="context-fill" fill="none" stroke-width="2" href="#q" />
  </svg>
  <svg viewBox="0 0 20 20" width="20" height="20" x="320">
    <use stroke-linecap="round" stroke="context-fill" fill="none" stroke-width="2" href="#q" />
  </svg>
</svg>