<svg xmlns="http://www.w3.org/2000/svg" viewBox="0 0 1280 128">
    <g fill="var(--uc-parent-primary-button-background)">
        <path
            d="M0 0v128h53.208c19.138 0 36.236-7.049 47.792-20 10.689-11.98 15.894-28.22 16-45 .107-17.001-4.984-33.465-16-45C89.317 5.767 71.795 0 52.204 0H0zm36 30h16c17.228 0 28.526 14.713 29 33 .501 19.32-11.088 35-29 35H36V30zM159 0l-42 128h39l6-20h48l6 20h38L211 0h-52zm25 28h3l15 54h-32l14-54zM265 0v128h36l.031-38H316l19 38h39.428L349 82c5.013-4.212 8.961-9.345 12-15 5.382-10.016 7.922-21.124 6.4-32-1.094-7.814-4.146-15.18-9.4-21-8.336-9.233-21.49-14-36-14h-57zm36 27h17c5.243 0 9.884 2.233 13 6 2.964 3.584 4.332 8.295 4 13-.44 6.238-3.728 11.845-9 15-3.67 2.197-8.147 3-13 3h-12.004L301 27zM389 0v128h33.482V77h13l30 51h39.973l-41.973-67L501.44 0h-36.957l-31 49h-11V0H389zM688 0v128h84V98h-50V79h45V49h-45V30h46.988V0H688zM1171 0v128h36l.031-38H1222l19 38h39.428L1255 82c5.013-4.212 8.961-9.345 12-15 5.382-10.016 7.922-21.124 6.4-32-1.094-7.814-4.146-15.18-9.4-21-8.336-9.233-21.49-14-36-14h-57zm36 27h17c5.243 0 9.884 2.233 13 6 2.964 3.584 4.332 8.295 4 13-.44 6.238-3.728 11.845-9 15-3.67 2.197-8.147 3-13 3h-12.004l.004-37zM565 0v128h36l.031-38H616l19 38h39.428L649 82c5.013-4.212 8.961-9.345 12-15 5.382-10.016 7.922-21.124 6.4-32-1.094-7.814-4.146-15.18-9.4-21-8.336-9.233-21.49-14-36-14h-57zm36 27h17c5.242 0 9.884 2.233 13 6 2.964 3.584 4.332 8.295 4 13-.44 6.238-3.728 11.845-9 15-3.67 2.197-8.147 3-13 3h-12.004L601 27zM822 0l-42 128h39l6-20h48l6 20h38L874 0h-52zm25 28h3l15 54h-32l14-54zM930 0v128h53.208c19.138 0 36.236-7.049 47.792-20 10.689-11.98 15.894-28.22 16-45 .107-17.001-4.984-33.465-16-45-11.683-12.233-29.205-18-48.796-18H930zm36 30h16c17.228 0 28.526 14.713 29 33 .501 19.32-11.088 35-29 35h-16V30zM1066 0v128h84V98h-50V79h45V49h-45V30h46.988V0H1066z" />
    </g>
</svg>