<svg xmlns="http://www.w3.org/2000/svg" viewBox="0 0 16 16" width="16" height="16" fill="context-fill"
	stroke="context-stroke" stroke-width="0.5" fill-opacity="context-fill-opacity">
	<path d="M8.505,1.02C4.241,0.719,0.719,4.241,1.02,8.505c0.252,3.704,3.487,6.497,7.198,6.497h2.584c0.385,0,0.7-0.315,0.7-0.7
	c0-0.385-0.315-0.7-0.7-0.7h-2.57c-2.612,0-5.006-1.694-5.657-4.222C1.531,5.319,5.312,1.531,9.373,2.581
	c2.535,0.644,4.229,3.039,4.229,5.65v0.77c0,0.553-0.497,1.099-1.05,1.099c-0.553,0-1.05-0.546-1.05-1.099V8.127
	c0-1.757-1.246-3.34-2.983-3.585c-2.381-0.343-4.39,1.715-3.963,4.11c0.238,1.337,1.281,2.444,2.605,2.759
	c1.288,0.301,2.514-0.112,3.319-0.931c0.623,0.854,1.869,1.302,3.011,0.847c0.938-0.371,1.512-1.33,1.512-2.339V8.225
	C15.002,4.507,12.209,1.272,8.505,1.02z M8.001,10.101c-1.162,0-2.1-0.938-2.1-2.1s0.938-2.1,2.1-2.1s2.1,0.938,2.1,2.1
	S9.163,10.101,8.001,10.101z" />
</svg>