<svg xmlns="http://www.w3.org/2000/svg" width="16" height="16" viewBox="0 0 16 16" fill="context-fill"
	fill-opacity="context-fill-opacity">
	<path d="M13.821,4.371l0.438-0.947l0.947-0.438c0.348-0.161,0.348-0.652,0-0.813l-0.947-0.438l-0.438-0.938
	c-0.161-0.348-0.652-0.348-0.813,0L12.57,1.745l-0.938,0.438c-0.348,0.161-0.348,0.652,0,0.813l0.947,0.438l0.438,0.938
	C13.168,4.72,13.669,4.72,13.821,4.371z" />
	<path d="M5.888,4.371l0.438-0.947l0.947-0.438c0.348-0.161,0.348-0.652,0-0.813L6.325,1.745L5.888,0.798
	c-0.152-0.348-0.652-0.348-0.804,0L4.646,1.745L3.699,2.183c-0.348,0.161-0.348,0.652,0,0.813l0.947,0.438l0.438,0.938
	C5.235,4.72,5.736,4.72,5.888,4.371z" />
	<path d="M13.017,8.731l-0.438,0.947l-0.947,0.438c-0.348,0.161-0.348,0.652,0,0.813l0.947,0.438l0.438,0.947
	c0.161,0.348,0.652,0.348,0.813,0l0.438-0.947l0.938-0.447c0.348-0.161,0.348-0.652,0-0.813l-0.947-0.438l-0.438-0.947
	C13.669,8.382,13.168,8.382,13.017,8.731z" />
	<path d="M11.876,5.72l-1.592-1.592c-0.219-0.219-0.574-0.219-0.793,0l-8.371,8.366c-0.219,0.219-0.219,0.574,0,0.793l1.592,1.592
	c0.219,0.219,0.574,0.219,0.793,0l8.366-8.366C12.095,6.299,12.095,5.939,11.876,5.72z M11.204,6.219l-0.755,0.755
	c-0.051,0.051-0.134,0.051-0.186,0L9.035,5.745c-0.051-0.051-0.051-0.134,0-0.186L9.79,4.805c0.051-0.051,0.134-0.051,0.186,0
	l1.229,1.229C11.256,6.084,11.256,6.168,11.204,6.219z" />
</svg>