<svg xmlns="http://www.w3.org/2000/svg" width="16" height="16" viewBox="0 0 16 16" fill="context-fill"
	fill-opacity="context-fill-opacity">
	<path d="M14.655,1.948H4.569c-0.464,0-0.827,0.235-1.069,0.592L0.111,7.63c-0.148,0.229-0.148,0.518,0,0.746L3.5,13.46
	c0.242,0.35,0.605,0.592,1.069,0.592h10.086c0.74,0,1.345-0.605,1.345-1.345V3.293C16,2.553,15.395,1.948,14.655,1.948z
	 M12.167,10.891c-0.262,0.262-0.686,0.262-0.948,0L9.276,8.948l-1.943,1.943c-0.262,0.262-0.686,0.262-0.948,0
	c-0.262-0.262-0.262-0.686,0-0.948L8.328,8L6.385,6.057c-0.262-0.262-0.262-0.686,0-0.948c0.262-0.262,0.686-0.262,0.948,0
	l1.943,1.943l1.943-1.943c0.262-0.262,0.686-0.262,0.948,0c0.262,0.262,0.262,0.686,0,0.948L10.224,8l1.943,1.943
	C12.423,10.199,12.423,10.629,12.167,10.891z" />
</svg>