<!-- This Source Code Form is subject to the terms of the Creative Commons
   - Attribution-NonCommercial-ShareAlike International License, v. 4.0.
   - If a copy of the CC BY-NC-SA 4.0 was not distributed with this
   - file, You can obtain one at http://creativecommons.org/licenses/by-nc-sa/4.0/
   - or send a letter to Creative Commons, PO Box 1866, Mountain View, CA 94042, USA. -->

<svg xmlns="http://www.w3.org/2000/svg" width="16" height="16" viewBox="0 0 16 16" fill="context-fill"
	fill-opacity="context-fill-opacity">
	<path d="M14.796,10.778L12.01,8l2.778-2.778c0.272-0.272,0.272-0.712,0-0.984l-3.03-3.03c-0.272-0.272-0.712-0.272-0.984,0
	L7.997,3.986L5.218,1.208c-0.14-0.133-0.314-0.202-0.496-0.202c-0.175,0-0.356,0.07-0.489,0.202l-3.03,3.03
	c-0.272,0.272-0.272,0.712,0,0.984L3.983,8l-2.778,2.778c-0.272,0.272-0.272,0.712,0,0.984l3.03,3.03
	c0.272,0.272,0.712,0.272,0.984,0l2.778-2.778l2.778,2.778c0.14,0.14,0.314,0.202,0.496,0.202s0.356-0.07,0.496-0.202l3.03-3.03
	C15.068,11.49,15.068,11.051,14.796,10.778z M9.833,6.986c0.55,0,1,0.45,1,1s-0.45,1-1,1c-0.55,0-1-0.45-1-1
	S9.283,6.986,9.833,6.986z M8.01,5.163c0.55,0,1,0.45,1,1s-0.45,1-1,1c-0.55,0-1-0.45-1-1S7.46,5.163,8.01,5.163z M4.581,7.119
	L2.33,4.874c-0.078-0.078-0.078-0.204,0-0.282L4.581,2.34c0.078-0.078,0.204-0.078,0.282,0l2.245,2.245
	c0.078,0.078,0.078,0.204,0,0.282L4.863,7.119C4.786,7.197,4.659,7.197,4.581,7.119z M6.187,8.986c-0.55,0-1-0.45-1-1s0.45-1,1-1
	c0.55,0,1,0.45,1,1S6.737,8.986,6.187,8.986z M8.01,10.809c-0.55,0-1-0.45-1-1c0-0.55,0.45-1,1-1c0.55,0,1,0.45,1,1
	C9.01,10.359,8.56,10.809,8.01,10.809z M11.122,13.667l-2.251-2.245c-0.078-0.078-0.078-0.204,0-0.282l2.252-2.252
	c0.078-0.078,0.204-0.078,0.282,0l2.245,2.245c0.078,0.078,0.078,0.204,0,0.282l-2.245,2.252
	C11.327,13.745,11.2,13.745,11.122,13.667z" />
</svg>