<!-- This Source Code Form is subject to the terms of the Mozilla Public
   - License, v. 2.0. If a copy of the MPL was not distributed with this
   - file, You can obtain one at http://mozilla.org/MPL/2.0/. -->
<svg xmlns="http://www.w3.org/2000/svg" width="16" height="16"
	viewBox="0 0 16 16" fill="context-fill" fill-opacity="context-fill-opacity">
	<path d="M13.577,1H2.423C1.085,1.002,0.002,2.085,0,3.423v6.154C0.002,10.915,1.085,11.998,2.423,12H8.26l2.966,3.633
	c0.35,0.427,0.98,0.491,1.407,0.141C12.865,15.584,13,15.3,13,15v-3h0.577c1.338-0.002,2.421-1.085,2.423-2.423V3.423
	C15.998,2.085,14.915,1.002,13.577,1z M14,9.577C14,9.811,13.811,10,13.577,10c0,0,0,0,0,0H12c-0.552,0-1,0.448-1,1v1.194
	l-1.491-1.827C9.319,10.134,9.034,10,8.734,10H2.423C2.189,10,2,9.811,2,9.577l0,0V3.423C2,3.189,2.189,3,2.423,3h0h11.154
	C13.811,3,14,3.189,14,3.423c0,0,0,0,0,0L14,9.577z" />
	<path
		d="M11.5,8H8.39c-0.276,0-0.5-0.224-0.5-0.5v0c0-0.276,0.224-0.5,0.5-0.5h3.11C11.776,7,12,7.224,12,7.5v0
	C12,7.776,11.776,8,11.5,8z M8.11,5.5L8.11,5.5c0-0.276-0.224-0.5-0.5-0.5H4.5C4.224,5,4,5.224,4,5.5v0C4,5.776,4.224,6,4.5,6h3.11
	C7.886,6,8.11,5.776,8.11,5.5z M12,5.5L12,5.5C12,5.224,11.776,5,11.5,5H9.61c-0.276,0-0.5,0.224-0.5,0.5v0
	c0,0.276,0.224,0.5,0.5,0.5h1.89C11.776,6,12,5.776,12,5.5z M6.89,7.5L6.89,7.5c0-0.276-0.224-0.5-0.5-0.5H4.5
	C4.224,7,4,7.224,4,7.5v0C4,7.776,4.224,8,4.5,8h1.89C6.666,8,6.89,7.776,6.89,7.5z" />
</svg>
