<svg xmlns="http://www.w3.org/2000/svg" viewBox="0 0 16 16" width="16" height="16" fill="context-fill"
	fill-opacity="context-fill-opacity">
	<path d="M14,5.333V4.667L12,6l-2-1.333v0.667l1.813,1.213c0.113,0.073,0.26,0.073,0.367,0L14,5.333z M14.667,2H1.333
	C0.6,2,0,2.6,0,3.333v9.333C0,13.4,0.6,14,1.333,14h13.333c0.733,0,1.327-0.6,1.327-1.333L16,3.333C16,2.6,15.4,2,14.667,2z
	 M5.333,4c1.107,0,2,0.893,2,2s-0.893,2-2,2s-2-0.893-2-2S4.227,4,5.333,4z M9.333,12h-8v-0.667c0-1.333,2.667-2.067,4-2.067
	s4,0.733,4,2.067V12z M14.333,8H9.667C9.48,8,9.333,7.853,9.333,7.667V4.333C9.333,4.147,9.48,4,9.667,4h4.667
	c0.187,0,0.333,0.147,0.333,0.333v3.333C14.667,7.853,14.52,8,14.333,8z" />
</svg>