<svg xmlns="http://www.w3.org/2000/svg" width="16" height="16" viewBox="0 0 523.854 523.854">
    <path fill="context-fill" fill-opacity="context-fill-opacity"
        d="M506.51 347.083c-7.057-7.037-15.245-8.531-24.571-4.424-25.031 11.597-50.968 17.398-77.81 17.398-33.673 0-64.726-8.292-93.165-24.914-28.439-16.598-50.961-39.125-67.571-67.559-16.609-28.434-24.915-59.493-24.915-93.166 0-26.169 5.171-51.016 15.527-74.572 10.349-23.543 25.306-44.192 44.878-61.935 7.509-7.05 9.217-15.238 5.116-24.565-3.874-9.333-10.808-13.758-20.82-13.317-34.811 1.371-67.797 9.156-98.966 23.379-31.175 14.223-57.963 32.925-80.368 56.132-22.411 23.207-40.159 50.68-53.238 82.412-13.072 31.732-19.608 65.006-19.608 99.811 0 35.502 6.94 69.401 20.82 101.697 13.874 32.313 32.534 60.189 55.967 83.611 23.434 23.445 51.304 42.087 83.611 55.974 32.301 13.861 66.206 20.808 101.696 20.808 50.962 0 98-13.825 141.115-41.457 43.109-27.65 75.361-64.56 96.751-110.735 1.817-4.106 2.326-8.427 1.536-12.968-.813-4.547-2.803-8.415-5.985-11.61z" />
</svg>