<svg xmlns="http://www.w3.org/2000/svg" width="16" height="16" viewBox="0 0 16 16">
	<path fill="context-fill" fill-opacity="context-fill-opacity" d="M2.667,14.222C2.667,15.2,3.467,16,4.444,16h7.111c0.978,0,1.778-0.8,1.778-1.778V5.333c0-0.978-0.8-1.778-1.778-1.778
	H4.444c-0.978,0-1.778,0.8-1.778,1.778V14.222z M13.333,0.889h-2.222L10.48,0.258C10.32,0.098,10.089,0,9.858,0H6.142
	C5.911,0,5.68,0.098,5.52,0.258L4.889,0.889H2.667c-0.489,0-0.889,0.4-0.889,0.889s0.4,0.889,0.889,0.889h10.667
	c0.489,0,0.889-0.4,0.889-0.889S13.822,0.889,13.333,0.889z" />
</svg>