<svg xmlns="http://www.w3.org/2000/svg" width="16" height="16" viewBox="0 0 16 16" fill="context-fill"
	fill-opacity="context-fill-opacity">
	<path d="M2.167,1C1.523,1,1,1.523,1,2.167V4.5C1,6.668,2.493,8.479,4.5,9v1.333C4.5,12.907,6.593,15,9.167,15
	s4.667-2.093,4.667-4.667v-0.107C14.511,9.986,15,9.344,15,8.583c0-0.966-0.784-1.75-1.75-1.75s-1.75,0.784-1.75,1.75v1.75
	c0,1.287-1.047,2.333-2.333,2.333s-2.333-1.047-2.333-2.333V9c2.007-0.521,3.5-2.333,3.5-4.5V2.167C10.333,1.523,9.811,1,9.167,1H8
	C7.356,1,6.833,1.523,6.833,2.167S7.356,3.333,8,3.333V4.5c0,1.287-1.047,2.333-2.333,2.333S3.333,5.787,3.333,4.5V3.333
	c0.644,0,1.167-0.523,1.167-1.167S3.977,1,3.333,1H2.167z" />
</svg>