<svg xmlns="http://www.w3.org/2000/svg" width="16" height="16" viewBox="0 0 16 16" fill="context-fill"
	fill-opacity="context-fill-opacity">
	<path d="M8.225,14.586c0.296-0.027,0.559-0.243,0.629-0.554l0.388-1.712l1.898-2.108c0.232-0.257,0.36-0.591,0.36-0.937V2.812
	c0-0.773-0.627-1.4-1.4-1.4H4.478c-0.519,0-0.988,0.305-1.199,0.779L1.178,6.92C1.061,7.182,1,7.466,1,7.753v0.659
	c0,0.77,0.63,1.4,1.4,1.4h4.9c0,0-0.7,1.66-0.7,2.896c0,1.129,0.726,1.623,1.325,1.839C8.025,14.583,8.127,14.594,8.225,14.586z
	 M13.95,9.812c0.58,0,1.05-0.47,1.05-1.05v-6.3c0-0.58-0.47-1.05-1.05-1.05s-1.05,0.47-1.05,1.05l0,6.3
	C12.9,9.342,13.37,9.812,13.95,9.812z" />
</svg>