<svg xmlns="http://www.w3.org/2000/svg" width="16" height="16" viewBox="0 0 16 16" fill="context-fill"
	fill-opacity="context-fill-opacity">
	<path
		d="M12.9,6.097l2.1-2.1v4.765c0,0.58-0.47,1.05-1.05,1.05s-1.05-0.47-1.05-1.05V6.097z M6.6,12.708
	c0,1.129,0.726,1.623,1.325,1.839c0.1,0.036,0.202,0.047,0.301,0.038c0.295-0.027,0.559-0.242,0.629-0.554l0.388-1.712l1.898-2.108
	c0.232-0.257,0.36-0.591,0.36-0.937V7.497l-4.879,4.879C6.611,12.488,6.6,12.601,6.6,12.708z M14.716,1.296
	c-0.002-0.002-0.004-0.004-0.006-0.006c-0.389-0.392-1.022-0.395-1.414-0.006c-0.002,0.002-0.004,0.004-0.006,0.006L11.5,3.081
	V2.812c0-0.773-0.627-1.4-1.4-1.4H4.478c-0.519,0-0.988,0.305-1.199,0.779L1.178,6.92C1.061,7.182,1,7.466,1,7.753v0.659
	c0,0.77,0.63,1.4,1.4,1.4h2.375L1.3,13.29c-0.392,0.389-0.395,1.022-0.006,1.414c0.002,0.002,0.004,0.004,0.006,0.006
	c0.389,0.392,1.022,0.395,1.414,0.006c0.002-0.002,0.004-0.004,0.006-0.006l12-12C15.109,2.318,15.108,1.685,14.716,1.296z" />
</svg>