<svg xmlns="http://www.w3.org/2000/svg" width="16" height="16" viewBox="0 0 16 16" fill="context-fill"
	fill-opacity="context-fill-opacity">
	<path d="M11.889,1H4.111C3.683,1,3.333,1.35,3.333,1.778l0,0c0,0.428,0.35,0.778,0.778,0.778h7.778
			c0.428,0,0.778-0.35,0.778-0.778l0,0C12.667,1.35,12.317,1,11.889,1z" />
	<path d="M11.889,3.333H4.111c-0.856,0-1.556,0.7-1.556,1.556v8.556C2.556,14.3,3.256,15,4.111,15h7.778
			c0.856,0,1.556-0.7,1.556-1.556V4.889C13.444,4.033,12.744,3.333,11.889,3.333z M9.944,10.333H9.167v0.778
			c0,0.646-0.521,1.167-1.167,1.167l0,0c-0.646,0-1.167-0.521-1.167-1.167v-0.778H6.056c-0.646,0-1.167-0.521-1.167-1.167l0,0
			C4.889,8.521,5.41,8,6.056,8h0.778V7.222c0-0.646,0.521-1.167,1.167-1.167l0,0c0.646,0,1.167,0.521,1.167,1.167V8h0.778
			c0.646,0,1.167,0.521,1.167,1.167l0,0C11.111,9.812,10.59,10.333,9.944,10.333z" />
</svg>