<!-- This Source Code Form is subject to the terms of the Creative Commons
   - Attribution-NonCommercial-ShareAlike International License, v. 4.0.
   - If a copy of the CC BY-NC-SA 4.0 was not distributed with this
   - file, You can obtain one at http://creativecommons.org/licenses/by-nc-sa/4.0/
   - or send a letter to Creative Commons, PO Box 1866, Mountain View, CA 94042, USA. -->

<svg xmlns="http://www.w3.org/2000/svg" width="16" height="16" viewBox="0 0 16 16" fill="context-fill"
	fill-opacity="context-fill-opacity">
	<path d="M0,1.778h1.778V0C0.8,0,0,0.8,0,1.778z M0,8.889h1.778V7.111H0V8.889z M3.556,16h1.778v-1.778H3.556V16z M0,5.333h1.778
	V3.556H0V5.333z M8.889,0H7.111v1.778h1.778V0z M14.222,0v1.778H16C16,0.8,15.2,0,14.222,0z M1.778,16v-1.778H0
	C0,15.2,0.8,16,1.778,16z M0,12.444h1.778v-1.778H0V12.444z M5.333,0H3.556v1.778h1.778V0z M7.111,16h1.778v-1.778H7.111V16z
	 M14.222,8.889H16V7.111h-1.778V8.889z M14.222,16C15.2,16,16,15.2,16,14.222h-1.778V16z M14.222,5.333H16V3.556h-1.778V5.333z
	 M14.222,12.444H16v-1.778h-1.778V12.444z M10.667,16h1.778v-1.778h-1.778V16z M10.667,1.778h1.778V0h-1.778V1.778z" />
</svg>