<svg xmlns="http://www.w3.org/2000/svg" width="16" height="16" viewBox="0 0 16 16" fill="context-fill" fill-opacity="context-fill-opacity">
	<path
		d="M14.699 1.301a.998.998 0 00-1.412 0L11.79 2.797h-1.1a1.794 1.794 0 00-3.587 0H4.232a1.44 1.44 0 00-1.435 1.435v2.871a1.795 1.795 0 000 3.588v1.1l-1.495 1.495a.998.998 0 101.387 1.437l.025-.025L14.699 2.713a.998.998 0 000-1.412zM14.997 6.96V4.233c0-.197-.04-.386-.113-.557L3.68 14.879c.17.071.356.112.552.112h2.727c0-1.931 1.55-2.146 1.938-2.146s1.938.208 1.938 2.153h2.727a1.44 1.44 0 001.435-1.435v-2.727c-1.945 0-2.153-1.55-2.153-1.938s.208-1.938 2.153-1.938z" />
</svg>