<svg xmlns="http://www.w3.org/2000/svg" width="16" height="16" viewBox="0 0 16 16" fill="context-fill" fill-opacity="context-fill-opacity">
	<path
		d="M1 8.897c0 .991.804 1.795 1.795 1.795v2.865c0 .79.646 1.436 1.436 1.436h2.728c0-1.931 1.551-2.147 1.938-2.147s1.938.208 1.938 2.154h2.728A1.44 1.44 0 0015 13.564v-2.728c-1.946 0-2.154-1.551-2.154-1.938S13.054 6.959 15 6.959V4.231a1.44 1.44 0 00-1.436-1.436h-2.872a1.795 1.795 0 00-3.589 0H4.231a1.44 1.44 0 00-1.436 1.436v2.872C1.804 7.103 1 7.907 1 8.897z" />
</svg>