<svg xmlns="http://www.w3.org/2000/svg" width="16" height="16" viewBox="0 0 16 16" fill="context-fill" fill-opacity="context-fill-opacity">
	<path
		d="M15.659.341a1.142 1.142 0 00-1.615 0l-1.711 1.711h-1.257a2.05 2.05 0 10-4.102-.001H3.692c-.903 0-1.641.738-1.641 1.641v3.282a2.052 2.052 0 000 4.103v1.257L.342 14.043a1.142 1.142 0 101.587 1.643l.028-.028L15.659 1.955a1.14 1.14 0 000-1.614zM16 6.81V3.692c0-.226-.046-.441-.129-.637L3.062 15.864c.194.082.407.128.631.128H6.81c0-2.207 1.772-2.453 2.215-2.453s2.215.238 2.215 2.462h3.118A1.647 1.647 0 0016 14.359v-3.118c-2.224 0-2.462-1.772-2.462-2.215S13.776 6.81 16 6.81z" />
</svg>