<svg xmlns="http://www.w3.org/2000/svg" width="16" height="16" viewBox="-1 0 18 16" fill="context-fill" fill-opacity="context-fill-opacity">
	<path
		d="M0 9.026c0 1.132.919 2.051 2.051 2.051v3.274c0 .903.738 1.641 1.641 1.641H6.81c0-2.207 1.772-2.453 2.215-2.453.443 0 2.215.238 2.215 2.462h3.118A1.647 1.647 0 0016 14.359v-3.118c-2.224 0-2.462-1.772-2.462-2.215 0-.443.238-2.215 2.462-2.215V3.692c0-.903-.738-1.641-1.641-1.641h-3.282a2.052 2.052 0 00-4.103 0H3.692c-.903 0-1.641.738-1.641 1.641v3.282A2.052 2.052 0 000 9.026z" />
</svg>