<svg xmlns="http://www.w3.org/2000/svg" width="16" height="16" viewBox="0 0 16 16" fill="context-fill"
	fill-opacity="context-fill-opacity">
	<path d="M13.833,7.167h-1V4.5c0-0.733-0.6-1.333-1.333-1.333H8.833v-1c0-0.92-0.747-1.667-1.667-1.667S5.5,1.247,5.5,2.167v1H2.833
	c-0.733,0-1.327,0.6-1.327,1.333v2.533H2.5c0.993,0,1.8,0.807,1.8,1.8s-0.807,1.8-1.8,1.8h-1v2.533C1.5,13.9,2.1,14.5,2.833,14.5
	h2.533v-1c0-0.993,0.807-1.8,1.8-1.8s1.8,0.807,1.8,1.8v1H11.5c0.733,0,1.333-0.6,1.333-1.333V10.5h1
	c0.92,0,1.667-0.747,1.667-1.667S14.753,7.167,13.833,7.167z" />
</svg>