<svg xmlns="http://www.w3.org/2000/svg" width="16" height="16" viewBox="0 0 16 16" fill="context-fill"
	fill-opacity="context-fill-opacity">
	<path d="M14.182,3.232l-12,12c-0.008,0.008-0.016,0.016-0.025,0.025c-0.397,0.384-1.03,0.373-1.414-0.025
	c-0.384-0.397-0.373-1.03,0.025-1.414L1.5,13.086v-2.453h1c0.993,0,1.8-0.807,1.8-1.8c0-0.993-0.807-1.8-1.8-1.8H1.507V4.5
	c0-0.733,0.593-1.333,1.327-1.333H5.5v-1C5.5,1.247,6.247,0.5,7.167,0.5c0.92,0,1.667,0.747,1.667,1.667v1h2.586l1.349-1.349
	c0.391-0.39,1.023-0.39,1.414,0C14.573,2.208,14.573,2.841,14.182,3.232z M13.833,7.167h-1V6.172l-5.541,5.541
	c0.934,0.066,1.674,0.837,1.674,1.787v1H11.5c0.733,0,1.333-0.6,1.333-1.333V10.5h1c0.92,0,1.667-0.747,1.667-1.667
	C15.5,7.913,14.753,7.167,13.833,7.167z" />
</svg>