<svg xmlns="http://www.w3.org/2000/svg" width="16" height="16" fill="context-fill" fill-opacity="context-fill-opacity"
    viewBox="0 0 32 32">
    <path
        d="M11.001 18a5 5 0 0110 0 13.004 13.004 0 01-8.666 12.26 1 1 0 01-.667-1.886A11.004 11.004 0 0019.001 18a3 3 0 00-6 0 5 5 0 01-10 0c0-7.18 5.821-13 13-13 7.18 0 13 5.82 13 13 0 1.421-.141 2.826-.42 4.199a1 1 0 11-1.96-.398c.252-1.242.38-2.514.38-3.801 0-6.075-4.925-11-11-11-6.074 0-11 4.925-11 11a3 3 0 006 0z" />
    <path d="M8.001 27a1 1 0 010-2 7 7 0 007-7 1 1 0 012 0 9 9 0 01-9 9z" />
    <path
        d="M9.001 18a1 1 0 01-2 0 9 9 0 0118 0 16.98 16.98 0 01-2.244 8.498 1 1 0 11-1.735-.995 14.934 14.934 0 001.98-7.453c0-3.916-3.135-7.05-7-7.05a7 7 0 00-7 7zM4.75 8.08a1 1 0 11-1.5-1.324A16.96 16.96 0 0116 1a16.96 16.96 0 0112.753 5.756 1 1 0 11-1.5 1.324A14.96 14.96 0 0016.002 3C11.639 3 7.58 4.872 4.75 8.08z" />
</svg>