<svg xmlns="http://www.w3.org/2000/svg" width="16" height="16" viewBox="0 0 16 16" fill="context-fill"
	fill-opacity="context-fill-opacity">
	<path d="M14.545,3.636H1.455C0.655,3.636,0,4.291,0,5.091v5.818c0,0.8,0.655,1.455,1.455,1.455h13.091
	c0.8,0,1.455-0.655,1.455-1.455V5.091C16,4.291,15.345,3.636,14.545,3.636z M6.545,8.727H5.091v1.455c0,0.4-0.327,0.727-0.727,0.727
	s-0.727-0.327-0.727-0.727V8.727H2.182C1.782,8.727,1.455,8.4,1.455,8s0.327-0.727,0.727-0.727h1.455V5.818
	c0-0.4,0.327-0.727,0.727-0.727s0.727,0.327,0.727,0.727v1.455h1.455c0.4,0,0.727,0.327,0.727,0.727S6.945,8.727,6.545,8.727z
	 M10.545,10.182c-0.604,0-1.091-0.487-1.091-1.091C9.455,8.487,9.942,8,10.545,8c0.604,0,1.091,0.487,1.091,1.091
	C11.636,9.695,11.149,10.182,10.545,10.182z M13.455,8c-0.604,0-1.091-0.487-1.091-1.091s0.487-1.091,1.091-1.091
	c0.604,0,1.091,0.487,1.091,1.091S14.058,8,13.455,8z" />
</svg>