<svg xmlns="http://www.w3.org/2000/svg" width="16" height="16" viewBox="0 0 16 16" fill="context-fill"
	fill-opacity="context-fill-opacity">
	<path d="M16,5.091v5.818c0,0.8-0.655,1.455-1.455,1.455H6.638l2.893-2.893c0.155,0.414,0.546,0.711,1.014,0.711
	c0.604,0,1.091-0.487,1.091-1.091c0-0.469-0.297-0.86-0.711-1.014l1.506-1.506c-0.036,0.108-0.068,0.219-0.068,0.339
	C12.364,7.513,12.851,8,13.455,8s1.091-0.487,1.091-1.091s-0.487-1.091-1.091-1.091c-0.12,0-0.231,0.032-0.339,0.068l2.086-2.086
	C15.672,4.042,16,4.528,16,5.091z M14.714,2.701l-12,12c-0.008,0.008-0.016,0.017-0.025,0.025c-0.397,0.384-1.03,0.373-1.414-0.025
	c-0.384-0.397-0.373-1.03,0.025-1.414l0.923-0.923H1.455c-0.8,0-1.455-0.655-1.455-1.455V5.091c0-0.8,0.655-1.455,1.455-1.455h9.496
	L13.3,1.287c0.39-0.39,1.023-0.39,1.414,0C15.104,1.677,15.104,2.31,14.714,2.701z M3.875,10.712l1.216-1.216V8.727H5.86
	l1.216-1.216c-0.133-0.144-0.32-0.238-0.53-0.238H5.091V5.818c0-0.4-0.327-0.727-0.727-0.727c-0.4,0-0.727,0.327-0.727,0.727v1.455
	H2.182C1.782,7.273,1.455,7.6,1.455,8s0.327,0.727,0.727,0.727h1.455v1.455C3.636,10.393,3.73,10.579,3.875,10.712z" />
</svg>