<svg xmlns="http://www.w3.org/2000/svg" viewBox="0 0 16 16" width="16" height="16" fill="context-fill"
	fill-opacity="context-fill-opacity">
	<path d="M9.18,10.95l1.18,4.13H5.64l1.18-4.13L5.935,9.18h4.13L9.18,10.95z M11.54,5.64H4.46L2.1,6.82h11.8L11.54,5.64z M10.36,0.92
	L8,2.1L5.64,0.92L4.46,4.46h7.08L10.36,0.92z M15.117,10.065L11.54,9.18l1.18,2.36l-2.36,3.54h3.798c0.27,0,0.51-0.083,0.719-0.249
	s0.35-0.378,0.424-0.636l0.664-2.692c0.074-0.32,0.031-0.615-0.129-0.885C15.676,10.348,15.437,10.163,15.117,10.065z M4.46,9.18
	l-3.577,0.885c-0.32,0.098-0.559,0.283-0.719,0.553c-0.16,0.27-0.203,0.565-0.129,0.885l0.664,2.692
	c0.074,0.258,0.215,0.47,0.424,0.636c0.209,0.166,0.449,0.249,0.719,0.249H5.64l-2.36-3.54L4.46,9.18z" />
</svg>