<svg xmlns="http://www.w3.org/2000/svg" viewBox="0 0 16 16" width="16" height="16" fill="context-fill"
	fill-opacity="context-fill-opacity">
	<path d="M3.697,9.006H1.017c-0.012,0-0.023,0-0.035,0C0.43,8.997-0.009,8.541,0,7.989s0.465-0.992,1.017-0.982h2.675
		C3.619,7.327,3.571,7.657,3.571,8C3.571,8.348,3.621,8.682,3.697,9.006z M15,7.006h-2.693c0.074,0.32,0.121,0.651,0.121,0.994
		c0,0.348-0.05,0.682-0.125,1.006H15c0.552,0,1-0.448,1-1C16,7.454,15.552,7.006,15,7.006z M7.612,11.389
		C7.741,11.404,7.867,11.429,8,11.429c1.894,0,3.429-1.535,3.429-3.429c0-0.133-0.024-0.259-0.039-0.388
		C10.172,8.83,8.827,10.174,7.612,11.389z M14.385,3.03L3.049,14.366c-0.008,0.008-0.016,0.017-0.025,0.025
		c-0.397,0.384-1.03,0.373-1.414-0.025c-0.384-0.397-0.373-1.03,0.025-1.414L4.987,9.6C4.73,9.121,4.571,8.582,4.571,8
		c0-1.894,1.535-3.429,3.429-3.429c0.582,0,1.121,0.159,1.601,0.415l3.37-3.37c0.391-0.39,1.023-0.39,1.414,0
		C14.775,2.006,14.775,2.639,14.385,3.03z M6.573,8.014l1.441-1.441C8.009,6.573,8.005,6.571,8,6.571
		c-0.789,0-1.429,0.64-1.429,1.429C6.571,8.005,6.573,8.009,6.573,8.014z" />
</svg>