<!-- This Source Code Form is subject to the terms of the Creative Commons
   - Attribution-NonCommercial-ShareAlike International License, v. 4.0.
   - If a copy of the CC BY-NC-SA 4.0 was not distributed with this
   - file, You can obtain one at http://creativecommons.org/licenses/by-nc-sa/4.0/
   - or send a letter to Creative Commons, PO Box 1866, Mountain View, CA 94042, USA. -->

<svg xmlns="http://www.w3.org/2000/svg" viewBox="0 0 16 16" width="16" height="16" fill="context-fill"
	fill-opacity="context-fill-opacity">
	<path
		d="M16,12.218c0,0.552-0.448,1-1,1h-2.697c0.075-0.324,0.125-0.658,0.125-1.006c0-0.343-0.047-0.674-0.121-0.994H15
	C15.552,11.218,16,11.666,16,12.218z M14.064,10.229L14.064,10.229c0.451,0,0.816-0.365,0.816-0.816V4.121l-1.633,1.633v3.658
	C13.248,9.863,13.614,10.229,14.064,10.229z M9.733,9.269l-1.534,1.534c0.694,0.098,1.23,0.688,1.23,1.409
	c0,0.789-0.64,1.429-1.429,1.429c-0.721,0-1.311-0.536-1.409-1.23l-1.534,1.534C5.653,14.956,6.741,15.641,8,15.641
	c1.894,0,3.429-1.535,3.429-3.429C11.429,10.954,10.744,9.865,9.733,9.269z M15.708,0.293c-0.391-0.39-1.024-0.39-1.414,0
	l-0.965,0.965c-0.355-0.173-0.75-0.276-1.172-0.276H3.843c-1.504,0-2.723,1.219-2.723,2.723v5.707c0,0.451,0.365,0.816,0.816,0.816
	s0.816-0.365,0.816-0.816V3.705c0-0.602,0.488-1.091,1.091-1.091h8.13l-8.604,8.604H1.017C0.465,11.209,0.01,11.649,0,12.201
	c-0.01,0.552,0.43,1.008,0.982,1.017c0.012,0,0.023,0,0.035,0h0.352l-1.062,1.062c-0.398,0.384-0.409,1.017-0.025,1.414
	c0.384,0.398,1.017,0.409,1.414,0.025c0.009-0.008,0.017-0.017,0.025-0.025L15.708,1.707C16.098,1.316,16.098,0.683,15.708,0.293z" />
</svg>