<!-- This Source Code Form is subject to the terms of the Creative Commons
   - Attribution-NonCommercial-ShareAlike International License, v. 4.0.
   - If a copy of the CC BY-NC-SA 4.0 was not distributed with this
   - file, You can obtain one at http://creativecommons.org/licenses/by-nc-sa/4.0/
   - or send a letter to Creative Commons, PO Box 1866, Mountain View, CA 94042, USA. -->

<svg xmlns="http://www.w3.org/2000/svg" viewBox="0 0 16 16" width="16" height="16" fill="context-fill"
	fill-opacity="context-fill-opacity">
	<path d="M15.227,14.594L9.212,8.58L7.996,7.363v0.001L5.297,4.664l0.001-0.001L4.116,3.48L4.114,3.482L1.938,1.305
	c-0.322-0.322-0.842-0.322-1.164,0s-0.322,0.842,0,1.164l2.182,2.183C1.934,5.811,1.31,7.318,1.31,8.964
	c0,3.635,2.993,6.577,6.687,6.577c1.639,0,3.133-0.585,4.294-1.548l1.764,1.765c0.322,0.322,0.842,0.322,1.164,0
	C15.549,15.437,15.549,14.916,15.227,14.594z M7.996,13.87c-2.766,0-5.015-2.198-5.015-4.906c0-1.152,0.425-2.234,1.172-3.113
	l3.843,3.845V13.87z M5.29,2.325l2.121-2.087c0.326-0.318,0.844-0.318,1.17,0l4.137,4.07c1.212,1.196,1.964,2.842,1.964,4.656
	c0,0.818-0.158,1.597-0.435,2.319L7.996,5.031V2.01L6.473,3.508L5.29,2.325z" />
</svg>
