<svg xmlns="http://www.w3.org/2000/svg" width="16" height="16" viewBox="0 0 16 16" fill="context-fill"
	fill-opacity="context-fill-opacity">
	<path d="M12.278,1c-1.501,0-2.722,1.221-2.722,2.722v1.167H6.444V3.722C6.444,2.221,5.223,1,3.722,1S1,2.221,1,3.722
			s1.221,2.722,2.722,2.722h1.167v3.111H3.722C2.221,9.556,1,10.777,1,12.278S2.221,15,3.722,15s2.722-1.221,2.722-2.722v-1.167
			h3.111v1.167c0,1.501,1.221,2.722,2.722,2.722S15,13.779,15,12.278s-1.221-2.722-2.722-2.722h-1.167V6.444h1.167
			C13.779,6.444,15,5.223,15,3.722S13.779,1,12.278,1L12.278,1z M11.111,4.889V3.722c0-0.646,0.521-1.167,1.167-1.167
			s1.167,0.521,1.167,1.167s-0.521,1.167-1.167,1.167H11.111L11.111,4.889z M3.722,4.889c-0.646,0-1.167-0.521-1.167-1.167
			s0.521-1.167,1.167-1.167s1.167,0.521,1.167,1.167v1.167H3.722L3.722,4.889z M6.444,9.556V6.444h3.111v3.111H6.444L6.444,9.556z
			 M12.278,13.444c-0.646,0-1.167-0.521-1.167-1.167v-1.167h1.167c0.646,0,1.167,0.521,1.167,1.167S12.923,13.444,12.278,13.444
			L12.278,13.444z M3.722,13.444c-0.646,0-1.167-0.521-1.167-1.167s0.521-1.167,1.167-1.167h1.167v1.167
			C4.889,12.923,4.368,13.444,3.722,13.444L3.722,13.444z" />
</svg>