<svg xmlns="http://www.w3.org/2000/svg" viewBox="0 0 16 16" width="16"
    height="16" fill="context-fill" fill-opacity="context-fill-opacity">
    <path
        d="M0.282,11.887c0.413,0.033,1.498,0,1.498,0h2.393h0.156h0.01H5.32h7.859h0.01c1.547,0,2.811-1.585,2.811-3.142
	s-1.284-3.054-2.811-3.054c-0.462,0-0.948,0.023-1.522,0.246c-0.387-1.034-1.378-1.569-2.369-1.773
	C8.715,4.048,8.073,4.077,7.421,4.311C5.593,4.972,4.98,7.053,5.32,8.483c0.069,0.29,0.193,0.578,0.381,0.856
	C5.307,9.053,4.913,8.853,4.328,8.853c-0.788,0-1.459,0.768-1.459,1.576c0,0.439,0.197,0.832,0.505,1.099
	c-0.044-0.037-0.087-0.076-0.126-0.116c-0.768-0.292-0.895-0.749-1.469-0.749c-0.321,0-0.584,0.311-0.584,0.632
	c0,0.22,0.123,0.416,0.304,0.519c-0.132-0.02-0.263-0.044-0.362-0.071c-0.486-0.136-0.535-0.477-0.846-0.477
	C0.136,11.265,0,11.421,0,11.586c0,0.086,0.04,0.157,0.09,0.218C0.122,11.843,0.219,11.882,0.282,11.887z M4.254,11.885
	c0.013,0.001,0.026,0.001,0.04,0.001C4.281,11.886,4.267,11.886,4.254,11.885z" />
</svg>