<svg xmlns="http://www.w3.org/2000/svg" width="16" height="16" viewBox="0 0 16 16" fill="context-fill"
	fill-opacity="context-fill-opacity">
	<path d="M7.774,1.415C7.479,1.442,7.216,1.657,7.146,1.969L6.757,3.68L4.86,5.789C4.628,6.046,4.5,6.379,4.5,6.725v6.463
	c0,0.773,0.627,1.4,1.4,1.4h5.622c0.519,0,0.988-0.305,1.199-0.779l2.101-4.729C14.939,8.818,15,8.534,15,8.247V7.588
	c0-0.77-0.63-1.4-1.4-1.4H8.7c0,0,0.7-1.66,0.7-2.896c0-1.129-0.726-1.623-1.325-1.839C7.975,1.417,7.873,1.406,7.774,1.415z
	 M2.05,6.188C1.47,6.188,1,6.658,1,7.238v6.3c0,0.58,0.47,1.05,1.05,1.05s1.05-0.47,1.05-1.05v-6.3C3.1,6.658,2.63,6.188,2.05,6.188
	z" />
</svg>