<svg xmlns="http://www.w3.org/2000/svg" viewBox="0 0 16 16" width="16"
	height="16" fill="context-fill" fill-opacity="context-fill-opacity">
	<path
		d="M10,9.76l1.791,1.05c0.29,0.17,0.384,0.546,0.208,0.832l-0.005,0.009c-0.173,0.282-0.542,0.37-0.824,0.198l-2.13-1.301
	c-0.149-0.091-0.24-0.253-0.24-0.428V7c0-0.331,0.269-0.6,0.6-0.6h0C9.731,6.4,10,6.669,10,7V9.76z M15.873,10.891
	c-0.506,2.57-2.628,4.602-5.214,5.022c-2.027,0.33-3.905-0.309-5.275-1.514H1.6c-0.884,0-1.6-0.716-1.6-1.6V5.6
	C0,4.704,0.712,4.032,1.6,4l0-0.218c0-1.828,1.473-3.619,3.295-3.77c2.01-0.166,3.688,1.321,3.873,3.251
	C9.04,3.224,9.32,3.2,9.6,3.2C13.55,3.2,16.678,6.801,15.873,10.891z M3.2,4h4V3.408C7.092,2.263,6.009,1.403,4.797,1.639
	C3.845,1.825,3.2,2.731,3.2,3.701L3.2,4z M14.228,10.904c0.966-3.65-2.281-6.898-5.931-5.931C6.693,5.397,5.397,6.693,4.972,8.296
	c-0.966,3.65,2.281,6.898,5.931,5.931C12.507,13.803,13.803,12.507,14.228,10.904z" />
</svg>
