<svg xmlns="http://www.w3.org/2000/svg" width="16" height="16" viewBox="0 0 16 16" fill="context-fill"
	fill-opacity="context-fill-opacity">
	<path d="M9.684,0C9.219,0,8.842,0.376,8.842,0.842v2.526H3.789c-0.465,0-0.842,0.377-0.842,0.842v3.515
	c-1.009,0.357-1.683,1.31-1.684,2.38c0.002,1.069,0.676,2.022,1.684,2.378v1.832H2.105c-0.465-0.007-0.847,0.365-0.854,0.83
	C1.245,15.611,1.616,15.993,2.081,16c0.008,0,0.016,0,0.024,0h11.789c0.465,0.007,0.847-0.365,0.854-0.83
	c0.007-0.465-0.365-0.847-0.83-0.854c-0.008,0-0.016,0-0.024,0H4.632v-1.831c0.718-0.255,1.282-0.82,1.536-1.538h7.727
	c0.465,0.007,0.847-0.365,0.854-0.83c0.007-0.465-0.365-0.847-0.83-0.854c-0.008,0-0.016,0-0.024,0H6.169
	C5.915,8.545,5.35,7.981,4.632,7.727V5.053h4.211v1.684c0,0.466,0.377,0.842,0.842,0.842h3.368c0.465,0,0.842-0.376,0.842-0.842
	V0.842C13.895,0.376,13.517,0,13.053,0H9.684z" />
</svg>