<svg xmlns="http://www.w3.org/2000/svg" width="16" height="16" viewBox="0 0 16 16" fill="context-fill"
	fill-opacity="context-fill-opacity">
	<path d="M9.474,1C9.067,1,8.737,1.329,8.737,1.737v2.211H4.316c-0.407,0-0.737,0.33-0.737,0.737V7.76
	C2.696,8.072,2.106,8.906,2.105,9.842c0.001,0.936,0.592,1.769,1.474,2.081v1.603H2.842c-0.407-0.006-0.742,0.319-0.747,0.726
	C2.089,14.66,2.414,14.994,2.821,15c0.007,0,0.014,0,0.021,0h10.316c0.407,0.006,0.742-0.319,0.747-0.726s-0.319-0.742-0.726-0.747
	c-0.007,0-0.014,0-0.021,0H5.053v-1.602c0.628-0.223,1.122-0.717,1.344-1.346h6.761c0.407,0.006,0.742-0.319,0.747-0.726
	c0.006-0.407-0.319-0.742-0.726-0.747c-0.007,0-0.014,0-0.021,0h-6.76C6.175,8.477,5.681,7.983,5.053,7.761v-2.34h3.684v1.474
	c0,0.407,0.33,0.737,0.737,0.737h2.947c0.407,0,0.737-0.329,0.737-0.737V1.737c0-0.407-0.33-0.737-0.737-0.737H9.474z" />
</svg>