<!-- This Source Code Form is subject to the terms of the Creative Commons
   - Attribution-NonCommercial-ShareAlike International License, v. 4.0.
   - If a copy of the CC BY-NC-SA 4.0 was not distributed with this
   - file, You can obtain one at http://creativecommons.org/licenses/by-nc-sa/4.0/
   - or send a letter to Creative Commons, PO Box 1866, Mountain View, CA 94042, USA. -->

<svg xmlns="http://www.w3.org/2000/svg" width="16" height="16"
		 viewBox="0 0 16 16" fill="context-fill"
		 fill-opacity="context-fill-opacity">
	<path d="M15,8c0-3.3-2.3-6-5.3-6.8v1.7H6.3V1.2C3.3,2,1,4.7,1,8c0,3.9,3.1,7,7,7S15,11.8,15,8 M3.7,6.8c0.6,0,1.2,0.5,1.2,1.2
	S4.4,9.1,3.7,9.1C3.1,9.1,2.6,8.6,2.6,8S3.1,6.8,3.7,6.8 M12.3,6.8c0.6,0,1.2,0.5,1.2,1.2l0,0c0,0.6-0.5,1.2-1.2,1.2l0,0
	c-0.6,0-1.2-0.5-1.2-1.2S11.6,6.8,12.3,6.8 M4.9,9.9c0.6,0,1.2,0.5,1.2,1.2c0,0.6-0.5,1.2-1.2,1.2c-0.6,0-1.2-0.5-1.2-1.2
	C3.7,10.4,4.2,9.9,4.9,9.9 M11.1,9.9c0.6,0,1.2,0.5,1.2,1.2c0,0.6-0.5,1.2-1.2,1.2c-0.7,0-1.2-0.5-1.2-1.2
	C9.9,10.4,10.5,9.9,11.1,9.9 M8,11.1c0.6,0,1.2,0.5,1.2,1.2c0,0.6-0.5,1.2-1.2,1.2l0,0c-0.6,0-1.2-0.5-1.2-1.2l0,0
	C6.8,11.6,7.4,11.1,8,11.1z" />
</svg>
