<!-- This Source Code Form is subject to the terms of the Mozilla Public
   - License, v. 2.0. If a copy of the MPL was not distributed with this
   - file, You can obtain one at http://mozilla.org/MPL/2.0/. -->
<svg xmlns="http://www.w3.org/2000/svg" width="16" height="16"
		 viewBox="0 0 16 16" fill="context-fill"
		 fill-opacity="context-fill-opacity">
	<path d="M12.18,6.822C12.222,6.818,12.256,6.8,12.3,6.8c0.6,0,1.2,0.5,1.2,1.2c0,0.6-0.5,1.2-1.2,1.2c-0.6,0-1.2-0.5-1.2-1.2
	c0-0.044,0.018-0.078,0.022-0.12l-3.245,3.245C7.919,11.12,7.958,11.1,8,11.1c0.6,0,1.2,0.5,1.2,1.2c0,0.6-0.5,1.2-1.2,1.2
	c-0.6,0-1.2-0.5-1.2-1.2c0-0.045,0.022-0.081,0.027-0.125l-2.049,2.049C5.74,14.718,6.833,15,8,15c3.9,0,7-3.2,7-7
	c0-1.162-0.298-2.243-0.798-3.2L12.18,6.822z M11.1,12.3c-0.7,0-1.2-0.5-1.2-1.2c0-0.7,0.6-1.2,1.2-1.2c0.6,0,1.2,0.5,1.2,1.2
	C12.3,11.7,11.8,12.3,11.1,12.3z M14.714,1.287c-0.391-0.39-1.024-0.39-1.414,0L12.167,2.42C11.437,1.865,10.605,1.441,9.7,1.2v1.7
	H6.3V1.2C3.3,2,1,4.7,1,8c0,1.585,0.519,3.032,1.389,4.198L1.3,13.287c-0.398,0.384-0.409,1.017-0.025,1.414
	c0.384,0.398,1.017,0.409,1.414,0.025c0.009-0.008,0.017-0.017,0.025-0.025l12-12C15.104,2.31,15.104,1.677,14.714,1.287z M3.7,6.8
	c0.6,0,1.2,0.5,1.2,1.2S4.4,9.1,3.7,9.1C3.1,9.1,2.6,8.6,2.6,8S3.1,6.8,3.7,6.8z M4.639,9.948l-0.891,0.891
	C3.843,10.372,4.172,10.043,4.639,9.948z" />
</svg>
