<!-- This Source Code Form is subject to the terms of the Creative Commons
   - Attribution-NonCommercial-ShareAlike International License, v. 4.0.
   - If a copy of the CC BY-NC-SA 4.0 was not distributed with this
   - file, You can obtain one at http://creativecommons.org/licenses/by-nc-sa/4.0/
   - or send a letter to Creative Commons, PO Box 1866, Mountain View, CA 94042, USA. -->

<svg xmlns="http://www.w3.org/2000/svg" viewBox="0 0 16 16" width="16" height="16" fill="context-fill"
	fill-opacity="context-fill-opacity">
	<path d="M15.253,8.225l-0.001,0.017c-0.022,0.348-0.25,1.003-0.942,1.003c-0.003,0-0.006,0-0.009-0.001
	c-0.278-0.002-0.513-0.096-0.68-0.271c-0.28-0.294-0.271-0.707-0.27-0.753c0-2.569-1.661-4.793-4.04-5.397
	C7.49,2.354,5.597,2.881,4.241,4.236C2.88,5.595,2.348,7.494,2.817,9.317c0.611,2.375,2.838,4.034,5.415,4.034H8.3
	c0.524,0,0.95,0.426,0.95,0.95s-0.426,0.95-0.95,0.95H8.218c-3.919,0-7.19-2.956-7.447-6.73C0.622,6.418,1.389,4.359,2.874,2.874
	S6.416,0.62,8.522,0.771C12.295,1.027,15.252,4.302,15.253,8.225z M11.444,9.336l-0.115,0.265c-0.567,1.307-1.946,2.153-3.38,2.153
	c-0.232,0-0.466-0.022-0.699-0.068l-0.07-0.015c-1.426-0.303-2.58-1.475-2.859-2.914C4.083,7.528,4.434,6.311,5.284,5.418
	c0.849-0.891,2.042-1.301,3.271-1.124C9.461,4.423,10.287,4.9,10.881,5.64C11.722,6.689,11.948,8.174,11.444,9.336z M8.001,6.151
	c-1.02,0-1.85,0.83-1.85,1.85c0,1.02,0.83,1.85,1.85,1.85c1.02,0,1.85-0.83,1.85-1.85C9.851,6.981,9.021,6.151,8.001,6.151z
	 M16,12.5c0,0.276-0.224,0.5-0.5,0.5H13v2.5c0,0.276-0.224,0.5-0.5,0.5S12,15.776,12,15.5V13H9.5C9.224,13,9,12.776,9,12.5
	S9.224,12,9.5,12H12V9.5C12,9.224,12.224,9,12.5,9S13,9.224,13,9.5V12h2.5C15.776,12,16,12.224,16,12.5z" />
</svg>
