<!-- This Source Code Form is subject to the terms of the Creative Commons
	 - Attribution-NonCommercial-ShareAlike International License, v. 4.0.
	 - If a copy of the CC BY-NC-SA 4.0 was not distributed with this
	 - file, You can obtain one at http://creativecommons.org/licenses/by-nc-sa/4.0/
	 - or send a letter to Creative Commons, PO Box 1866, Mountain View, CA 94042, USA. -->
<svg xmlns="http://www.w3.org/2000/svg" width="16" height="16"
		 viewBox="0 0 16 16" fill="context-fill"
		 fill-opacity="context-fill-opacity">
	<path d="M1.275,14.701C1.076,14.495,0.988,14.227,1,13.962V2.003C1,1.449,1.449,1,2.003,1h3.994c0.553,0,1.001,0.449,1,1.002
	C6.996,2.554,6.548,3,5.997,3H3.331C3.148,3,3,3.148,3,3.331v8.256l6.276-6.276C9.282,5.305,9.284,5.296,9.29,5.29l1.603-1.596
	L11.587,3H10C9.448,3,9,2.552,9,2s0.448-1,1-1h3.978c0.266-0.008,0.533,0.085,0.736,0.287c0.102,0.102,0.175,0.22,0.222,0.345
	c0.002,0.004,0.001,0.009,0.002,0.013C14.983,1.768,15.004,1.898,15,2.027l0,0c-0.008,0.244-0.1,0.487-0.286,0.674L13,4.415
	l-1.138,1.138l-1.173,1.173L4.415,13l-1.701,1.701c-0.008,0.008-0.016,0.017-0.025,0.025C2.5,14.908,2.258,14.995,2.015,15l0,0
	c-0.131,0.003-0.262-0.021-0.386-0.067c-0.003-0.001-0.007-0.001-0.01-0.002C1.493,14.881,1.376,14.805,1.275,14.701z M13.998,9.003
	L13.998,9.003C13.446,9.004,13,9.451,13,10.003v2.666C13,12.852,12.852,13,12.669,13H6.002l-2,2h9.995
	C14.551,15,15,14.551,15,13.997v-3.994C15,9.45,14.551,9.002,13.998,9.003z M13,6.002C13.001,6.553,13.448,7,14,7
	c0.552,0,1-0.448,1-1V4.002L13,6.002z" />
</svg>
