<!-- This Source Code Form is subject to the terms of the Creative Commons
	 - Attribution-NonCommercial-ShareAlike International License, v. 4.0.
	 - If a copy of the CC BY-NC-SA 4.0 was not distributed with this
	 - file, You can obtain one at http://creativecommons.org/licenses/by-nc-sa/4.0/
	 - or send a letter to Creative Commons, PO Box 1866, Mountain View, CA 94042, USA. -->
<svg xmlns="http://www.w3.org/2000/svg" width="16" height="16"
		 viewBox="0 0 16 16" fill="context-fill"
		 fill-opacity="context-fill-opacity">
	<path
				d="M14.92,1.62c-0.101-0.244-0.296-0.439-0.54-0.54C14.26,1.029,14.131,1.002,14,1h-4C9.448,1,9,1.448,9,2s0.448,1,1,1h1.59
	l-2.3,2.29C8.898,5.679,8.895,6.312,9.284,6.704C9.286,6.706,9.288,6.708,9.29,6.71c0.389,0.392,1.022,0.395,1.414,0.006
	c0.002-0.002,0.004-0.004,0.006-0.006L13,4.41V6c0,0.552,0.448,1,1,1s1-0.448,1-1V2C14.998,1.869,14.971,1.74,14.92,1.62z" />
	<path
				d="M13,10.003v2.666C13,12.852,12.852,13,12.669,13H3.331C3.148,13,3,12.852,3,12.669V3.331C3,3.148,3.148,3,3.331,3h2.666
	c0.551,0,0.999-0.446,1-0.998v0C6.998,1.449,6.55,1,5.997,1H2.003C1.449,1,1,1.449,1,2.003v11.994C1,14.551,1.449,15,2.003,15
	h11.994C14.551,15,15,14.551,15,13.997v-3.994c0-0.553-0.449-1.001-1.002-1h0C13.446,9.004,13,9.451,13,10.003z" />
</svg>
