<!-- This Source Code Form is subject to the terms of the Creative Commons
   - Attribution-NonCommercial-ShareAlike International License, v. 4.0.
   - If a copy of the CC BY-NC-SA 4.0 was not distributed with this
   - file, You can obtain one at http://creativecommons.org/licenses/by-nc-sa/4.0/
   - or send a letter to Creative Commons, PO Box 1866, Mountain View, CA 94042, USA. -->

<svg xmlns="http://www.w3.org/2000/svg" width="16" height="16" viewBox="0 0 16 16" fill-opacity="context-fill-opacity">
	<path fill="context-fill" d="M13.6,6c0-1.04-0.672-1.92-1.6-2.256V1.2c0-0.44-0.36-0.8-0.8-0.8l0,0c-0.44,0-0.8,0.36-0.8,0.8v2.544
		C9.472,4.08,8.8,4.96,8.8,6s0.672,1.92,1.6,2.256v2.408c0,1.672-1.216,3.168-2.88,3.328C5.616,14.168,4,12.672,4,10.8V10h1.432
		c0.36,0,0.536-0.432,0.28-0.68L3.08,6.68C2.832,6.432,2.4,6.608,2.4,6.968v3.664c0,2.44,1.752,4.616,4.168,4.928
		C9.496,15.936,12,13.656,12,10.8V8.256C12.928,7.92,13.6,7.04,13.6,6z M11.2,6.8c-0.44,0-0.8-0.36-0.8-0.8s0.36-0.8,0.8-0.8
		S12,5.56,12,6S11.64,6.8,11.2,6.8z" />
	<path fill="context-stroke" d="M12.4,3.479V1.2c0-0.662-0.538-1.2-1.2-1.2C10.538,0,10,0.538,10,1.2v2.279C9.033,3.944,8.4,4.924,8.4,6
		S9.033,8.056,10,8.521v2.143c0,1.507-1.106,2.794-2.517,2.93c-0.794,0.074-1.549-0.175-2.139-0.699
		C4.713,12.333,4.4,11.494,4.4,10.649V10.4c0,0,0.774,0,1.032,0l0.958,0.002c0.36,0,0.571-0.473,0.28-0.68
		C6.217,9.4,5.806,9.147,5.135,8.528C4.069,7.545,3.755,7.147,2.68,5.489C2.432,5.241,2,5.417,2,5.777v1.191v3.664
		c0,2.702,1.942,4.991,4.517,5.325C6.741,15.986,6.965,16,7.188,16c2.02,0,3.946-1.164,4.81-3.198
		c0.29-0.683,0.402-1.429,0.402-2.171v-2.11C13.367,8.056,14,7.076,14,6S13.367,3.944,12.4,3.479z M11.864,7.88L11.6,7.975V10.8
		c0,1.263-0.545,2.468-1.497,3.305c-0.962,0.848-2.198,1.226-3.484,1.059C4.442,14.882,2.8,12.934,2.8,10.632l-0.003-3.67L5.432,9.6
		H3.6v1.2c0,1.009,0.429,1.978,1.178,2.661c0.75,0.684,1.763,1.02,2.78,0.93c1.818-0.175,3.242-1.812,3.242-3.727V7.975L10.536,7.88
		C9.737,7.591,9.2,6.835,9.2,6s0.537-1.591,1.336-1.88L10.8,4.025V1.2c0-0.221,0.18-0.4,0.4-0.4c0.22,0,0.4,0.179,0.4,0.4v2.825
		l0.264,0.096C12.663,4.409,13.2,5.165,13.2,6S12.663,7.591,11.864,7.88z" />
</svg>
