<svg xmlns="http://www.w3.org/2000/svg" width="16" height="16" viewBox="0 0 16 16" fill="context-fill"
	fill-opacity="context-fill-opacity">
	<path d="M9.968,13.622c0.255-0.255,0.276-0.645,0.098-0.965c-0.499-0.878-0.374-2.011,0.374-2.759l2.711-2.711
	l0.542,0.542c0.298,0.298,0.786,0.298,1.084,0s0.298-0.786,0-1.084L9.355,1.224c-0.298-0.298-0.786-0.298-1.084,0
	s-0.298,0.786,0,1.084L8.813,2.85L6.103,5.561C5.355,6.309,4.221,6.433,3.343,5.935c-0.32-0.179-0.71-0.157-0.965,0.098l-0.07,0.07
	c-0.298,0.298-0.298,0.786,0,1.084l2.7,2.7l-3.784,3.806c-0.298,0.298-0.298,0.786,0,1.084s0.786,0.298,1.084,0l3.784-3.806
	l2.721,2.721c0.298,0.298,0.786,0.298,1.084,0L9.968,13.622z" />
</svg>