<svg xmlns="http://www.w3.org/2000/svg" width="16" height="16" viewBox="0 0 16 16" fill="context-fill"
	fill-opacity="context-fill-opacity">
	<path d="M14.777,13.693l-3.784-3.806l2.7-2.7c0.298-0.298,0.298-0.786,0-1.084l-0.07-0.07c-0.255-0.255-0.645-0.277-0.965-0.098
	c-0.878,0.498-2.012,0.374-2.76-0.374L7.188,2.85L7.73,2.308c0.298-0.298,0.298-0.786,0-1.084c-0.298-0.298-0.786-0.298-1.084,0
	L1.224,6.645c-0.298,0.298-0.298,0.786,0,1.084c0.298,0.298,0.786,0.298,1.084,0L2.85,7.187l2.711,2.711
	c0.748,0.748,0.873,1.881,0.374,2.759c-0.178,0.32-0.157,0.71,0.098,0.965l0.071,0.07c0.298,0.298,0.786,0.298,1.084,0l2.721-2.721
	l3.784,3.806c0.298,0.298,0.786,0.298,1.084,0C15.075,14.479,15.075,13.991,14.777,13.693z" />
</svg>