<svg xmlns="http://www.w3.org/2000/svg" width="16" height="16" viewBox="0 0 16 16" fill="context-fill"
	fill-opacity="context-fill-opacity">
	<path d="M13.6,4.8H2.4C1.072,4.8,0,5.872,0,7.2v3.2C0,11.28,0.72,12,1.6,12h1.6v1.6c0,0.88,0.72,1.6,1.6,1.6h6.4
	c0.88,0,1.6-0.72,1.6-1.6V12h1.6c0.88,0,1.6-0.72,1.6-1.6V7.2C16,5.872,14.928,4.8,13.6,4.8z M10.4,13.6H5.6
	c-0.44,0-0.8-0.36-0.8-0.8V9.6h6.4v3.2C11.2,13.24,10.84,13.6,10.4,13.6z M13.6,8c-0.44,0-0.8-0.36-0.8-0.8c0-0.44,0.36-0.8,0.8-0.8
	c0.44,0,0.8,0.36,0.8,0.8C14.4,7.64,14.04,8,13.6,8z M12,0.8H4c-0.44,0-0.8,0.36-0.8,0.8v1.6C3.2,3.64,3.56,4,4,4h8
	c0.44,0,0.8-0.36,0.8-0.8V1.6C12.8,1.16,12.44,0.8,12,0.8z" />
</svg>