<svg xmlns="http://www.w3.org/2000/svg" viewBox="0 0 16 16" width="16"
	height="16" fill="context-fill" fill-opacity="context-fill-opacity">
	<path
		d="M10.787,1.563V6.63c0,0.31,0.253,0.563,0.563,0.563h1.126v4.026c0,0.287,0.377,0.388,0.524,0.141l2.922-5.011
	c0.22-0.377-0.051-0.845-0.484-0.845h-1.272l1.402-3.744C15.708,1.394,15.438,1,15.044,1H11.35C11.041,1,10.787,1.253,10.787,1.563z
	 M16,8.2V13c0,1.105-0.895,2-2,2H3c-1.657,0-3-1.343-3-3V4c0-1.657,1.343-3,3-3h6.896C9.828,1.175,9.787,1.364,9.787,1.563V3H3
	C2.448,3,2,3.448,2,4v1h7.787v1H2v6c0,0.552,0.448,1,1,1h10c0.552,0,1-0.448,1-1v-0.37L16,8.2z" />
</svg>
