<svg xmlns="http://www.w3.org/2000/svg" fill-opacity="context-fill-opacity" stroke-opacity="context-fill-opacity"
    viewBox="0 0 37.6 55" width="16" height="16">
    <path fill="none" stroke="context-fill" stroke-linecap="round" stroke-linejoin="round" stroke-width="3"
        d="M36.1 37.3c0 8.9-7.8 16.1-17.3 16.1S1.5 46.2 1.5 37.3c0-8.9 17.3-35.8 17.3-35.8s17.3 26.9 17.3 35.8z"
        clip-rule="evenodd" />
    <path fill="context-fill" fill-rule="evenodd"
        d="M18.7 35.7c-8.5-6.3-11.6 0-11.6 0-.1.5-.2.9-.2 1.3 0 6.1 5.3 11.1 11.9 11.1 6.6 0 11.9-5 11.9-11.1 0-.4-.1-.8-.1-1.3 0 0-4.7 5.3-11.9 0z"
        clip-rule="evenodd" /></svg>