<svg xmlns="http://www.w3.org/2000/svg" width="16" height="16" viewBox="0 0 16 16" fill="context-fill"
	fill-opacity="context-fill-opacity">
	<path d="M13.6,2.4H2.4C1.63,2.4,1,3.03,1,3.8v10.913c0,0.623,0.756,0.938,1.197,0.497L3.8,13.6h9.8c0.77,0,1.4-0.63,1.4-1.4V3.8
	C15,3.03,14.37,2.4,13.6,2.4z M10.807,8.315L9.099,9.099l-0.784,1.708c-0.126,0.273-0.511,0.273-0.637,0L6.894,9.099L5.186,8.315
	c-0.273-0.126-0.273-0.511,0-0.637l1.708-0.784l0.784-1.708c0.126-0.273,0.511-0.273,0.637,0l0.784,1.708l1.708,0.784
	C11.08,7.804,11.08,8.189,10.807,8.315z" />
</svg>