<svg xmlns="http://www.w3.org/2000/svg" width="16" height="16" viewBox="0 0 16 16" fill="context-fill"
	fill-opacity="context-fill-opacity">
	<path d="M13.6,2.4H2.4C1.63,2.4,1,3.03,1,3.8v10.913c0,0.623,0.756,0.938,1.197,0.497L3.8,13.6h9.8c0.77,0,1.4-0.63,1.4-1.4V3.8
	C15,3.03,14.37,2.4,13.6,2.4z M3.8,10.8V9.071l4.816-4.816c0.14-0.14,0.357-0.14,0.497,0l1.239,1.239c0.14,0.14,0.14,0.357,0,0.497
	L5.529,10.8H3.8z M11.5,10.8H6.95l1.4-1.4h3.15c0.385,0,0.7,0.315,0.7,0.7C12.2,10.485,11.885,10.8,11.5,10.8z" />
</svg>