<svg xmlns="http://www.w3.org/2000/svg" viewBox="0 0 16 16" width="16"
	height="16" fill="context-fill" fill-opacity="context-fill-opacity">
	<path
		d="M2.612,11.277c1.166,0,2.111,0.945,2.111,2.111S3.778,15.5,2.612,15.5s-2.111-0.945-2.111-2.111S1.446,11.277,2.612,11.277z
	 M2.041,6.038c-0.814-0.136-1.54,0.533-1.54,1.356c0,0.688,0.513,1.24,1.191,1.356c2.828,0.494,5.055,2.731,5.559,5.559
	C7.367,14.987,7.919,15.5,8.607,15.5c0.823,0,1.491-0.726,1.366-1.54C9.314,9.892,6.108,6.687,2.041,6.038z M2.012,0.508
	C1.208,0.421,0.501,1.07,0.501,1.873c0,0.707,0.533,1.288,1.23,1.356C7.551,3.81,12.181,8.44,12.762,14.26
	c0.068,0.707,0.649,1.24,1.356,1.24c0.814,0,1.453-0.707,1.375-1.511C14.786,6.88,9.13,1.215,2.012,0.508z" />
</svg>
