<svg xmlns="http://www.w3.org/2000/svg" viewBox="0 0 16 16" width="16"
  height="16" fill="context-fill" fill-opacity="context-fill-opacity">
  <path
    d="M8.004 3.141c-.29 0-.542-.105-.755-.316-.213-.212-.319-.463-.319-.754s.105-.542.316-.754c.21-.211.46-.317.75-.317s.542.105.755.314c.213.21.319.459.319.748s-.105.541-.316.756c-.21.215-.46.323-.75.323zm2.979 0c-.29 0-.542-.105-.755-.316a1.023 1.023 0 0 1-.319-.753c0-.291.105-.542.316-.754.21-.212.46-.318.75-.318s.542.105.755.314c.213.21.319.459.319.748s-.105.541-.316.756a1.01 1.01 0 0 1-.75.323zm2.955 0c-.289 0-.541-.105-.756-.316-.215-.211-.323-.462-.323-.753s.105-.542.316-.754A1.03 1.03 0 0 1 13.929 1c.291 0 .542.105.754.314.211.21.317.459.317.748s-.105.541-.314.756a1.01 1.01 0 0 1-.748.323zM8.004 15c-.29 0-.542-.105-.755-.314a1.014 1.014 0 0 1-.319-.748c0-.289.105-.541.316-.756.21-.215.461-.323.751-.323s.542.105.755.316.319.462.319.753-.105.542-.316.754a1.023 1.023 0 0 1-.751.318zm2.979 0c-.29 0-.542-.105-.755-.314a1.014 1.014 0 0 1-.319-.748c0-.289.105-.541.316-.756.21-.215.461-.323.751-.323s.542.105.755.316.319.462.319.753-.105.542-.316.754a1.02 1.02 0 0 1-.751.318zm2.955 0a1.05 1.05 0 0 1-.756-.314 1.01 1.01 0 0 1-.323-.748c0-.289.105-.541.316-.756a1.02 1.02 0 0 1 .753-.323c.291 0 .542.105.754.316.212.212.318.463.318.754s-.105.542-.314.754a1.02 1.02 0 0 1-.748.317zM2.07 15c-.301 0-.555-.103-.761-.308-.206-.206-.309-.457-.309-.753s.103-.551.309-.762c.206-.212.46-.317.761-.317h.587V3.141H2.07c-.301 0-.555-.105-.761-.316A1.036 1.036 0 0 1 1 2.074c0-.3.103-.554.309-.762.207-.208.46-.312.761-.312h3.285c.301 0 .555.103.761.308s.309.456.309.753-.102.551-.308.762c-.206.212-.46.317-.761.317h-.558v9.719h.558c.301 0 .555.105.761.316.206.21.309.461.309.751 0 .3-.103.554-.309.762a1.03 1.03 0 0 1-.761.312H2.07zm9.19-5.93H8.679a1.03 1.03 0 0 1-.754-.316 1.024 1.024 0 0 1-.317-.751c0-.29.106-.542.317-.755a1.03 1.03 0 0 1 .754-.318h2.581l.056.045c-.22-.22-.323-.462-.311-.728.012-.266.129-.512.349-.737.228-.227.48-.341.758-.341s.531.114.76.342l1.726 1.742c.211.213.317.462.317.75 0 .287-.107.536-.321.746l-1.75 1.75c-.221.221-.473.324-.754.308-.281-.016-.536-.139-.765-.369-.22-.22-.33-.461-.33-.725s.11-.506.33-.725l-.065.082z" />
</svg>