<!-- This Source Code Form is subject to the terms of the Creative Commons
   - Attribution-NonCommercial-ShareAlike International License, v. 4.0.
   - If a copy of the CC BY-NC-SA 4.0 was not distributed with this
   - file, You can obtain one at http://creativecommons.org/licenses/by-nc-sa/4.0/
   - or send a letter to Creative Commons, PO Box 1866, Mountain View, CA 94042, USA. -->

<svg xmlns="http://www.w3.org/2000/svg" viewBox="0 0 16 16" width="16" height="16" fill="context-fill"
	fill-opacity="context-fill-opacity">
	<path d="M11.429,12.212c0,1.894-1.535,3.429-3.429,3.429s-3.429-1.535-3.429-3.429S6.106,8.783,8,8.783S11.429,10.318,11.429,12.212
	z M9.429,12.212c0-0.789-0.64-1.429-1.429-1.429c-0.789,0-1.429,0.64-1.429,1.429c0,0.789,0.64,1.429,1.429,1.429
	C8.789,13.641,9.429,13.001,9.429,12.212z M3.571,12.212c0-0.343,0.048-0.673,0.121-0.994H1.017C0.465,11.209,0.01,11.649,0,12.201
	c-0.01,0.552,0.43,1.008,0.982,1.017c0.012,0,0.023,0,0.035,0h2.679C3.621,12.894,3.571,12.56,3.571,12.212z M15,11.218h-2.693
	c0.074,0.32,0.121,0.651,0.121,0.994c0,0.348-0.05,0.682-0.125,1.006H15c0.552,0,1-0.448,1-1C16,11.666,15.552,11.218,15,11.218z
	 M2.752,9.412V3.705c0-0.602,0.488-1.091,1.091-1.091h8.314c0.602,0,1.091,0.488,1.091,1.091v5.707c0,0.451,0.365,0.816,0.816,0.816
	h0c0.451,0,0.816-0.365,0.816-0.816V3.705c0-1.504-1.219-2.723-2.723-2.723H3.843c-1.504,0-2.723,1.219-2.723,2.723v5.707
	c0,0.451,0.365,0.816,0.816,0.816h0C2.387,10.228,2.752,9.863,2.752,9.412z" />
</svg>
