<svg xmlns="http://www.w3.org/2000/svg" viewBox="0 0 16 16" width="16" height="16" fill="context-fill"
	fill-opacity="context-fill-opacity">
	<path d="M11.429,8c0,1.894-1.535,3.429-3.429,3.429S4.571,9.894,4.571,8S6.106,4.571,8,4.571S11.429,6.106,11.429,8z M9.429,8
	c0-0.789-0.64-1.429-1.429-1.429c-0.789,0-1.429,0.64-1.429,1.429S7.211,9.429,8,9.429C8.789,9.429,9.429,8.789,9.429,8z M3.571,8
	c0-0.343,0.048-0.673,0.121-0.994H1.017C0.465,6.997,0.01,7.437,0,7.989s0.43,1.008,0.982,1.017c0.012,0,0.023,0,0.035,0h2.679
	C3.621,8.682,3.571,8.348,3.571,8z M15,7.006h-2.693c0.074,0.32,0.121,0.651,0.121,0.994c0,0.348-0.05,0.682-0.125,1.006H15
	c0.552,0,1-0.448,1-1C16,7.454,15.552,7.006,15,7.006z" />
</svg>