<svg xmlns="http://www.w3.org/2000/svg" height="16px" width="16px"
  viewBox="0 0 16 16" fill="context-fill" fill-opacity="context-fill-opacity">
  <path
    d="M11.778,16h-7.556c-.556,0-1.022-.188-1.398-.565-.377-.377-.565-.843-.565-1.398V1.963c0-.556.188-1.022.565-1.398S3.667,0,4.222,0h7.556C12.333,0,12.799.188,13.176.565s.565.843.565,1.398v12.074c0,.556-.188,1.022-.565,1.398-.377.377-.843.565-1.398.565ZM8,5.889c.469,0,.864-.16,1.185-.481s.481-.716.481-1.185-.16-.864-.481-1.185-.716-.481-1.185-.481-.864.16-1.185.481-.481.716-.481,1.185.16.864.481,1.185.716.481,1.185.481ZM8,13.519c.896,0,1.664-.319,2.302-.957s.957-1.406.957-2.302-.319-1.664-.957-2.302c-.638-.638-1.406-.957-2.302-.957s-1.664.319-2.302.957c-.638.638-.957,1.406-.957,2.302,0,.896.319,1.664.957,2.302.638.638,1.406.957,2.302.957ZM7.998,11.556c-.357,0-.662-.127-.915-.381-.253-.254-.38-.56-.38-.917s.127-.662.381-.915c.254-.253.56-.38.917-.38s.662.127.915.381c.253.254.38.56.38.917s-.127.662-.381.915-.56.38-.917.38Z" />
</svg>