<svg xmlns="http://www.w3.org/2000/svg" viewBox="0 0 16 16" width="16" height="16" fill="context-fill"
  fill-opacity="context-fill-opacity">
  <path d="M13.706,14.08c-0.62,0.63-1.55,0.92-2.7,0.92c-0.552,0-1-0.448-1-1s0.448-1,1-1c0.85,0,1.17-0.21,1.3-0.33
	c0.11-0.12,0.2-0.32,0.2-0.67v-1.9c-0.018-0.799,0.315-1.566,0.91-2.1c-0.595-0.534-0.928-1.301-0.91-2.1V4
	c0-0.35-0.09-0.55-0.2-0.67c-0.13-0.12-0.45-0.33-1.3-0.33c-0.552,0-1-0.448-1-1s0.448-1,1-1c1.15,0,2.08,0.29,2.7,0.92
	c0.64,0.63,0.8,1.43,0.8,2.08v1.9c0,0.41,0.27,0.65,0.57,0.89l0.55,0.43c0.431,0.346,0.5,0.975,0.154,1.406
	c-0.046,0.057-0.097,0.109-0.154,0.154l-0.55,0.43c-0.3,0.24-0.57,0.48-0.57,0.89V12C14.506,12.65,14.346,13.45,13.706,14.08z
	 M2.294,14.08c0.62,0.63,1.55,0.92,2.7,0.92c0.552,0,1-0.448,1-1s-0.448-1-1-1c-0.85,0-1.17-0.21-1.3-0.33
	c-0.11-0.12-0.2-0.32-0.2-0.67v-1.9C3.512,9.301,3.179,8.534,2.584,8l0.18-0.2c0.43-0.46,0.73-1.07,0.73-1.9V4
	c0-0.35,0.09-0.55,0.2-0.67C3.824,3.21,4.144,3,4.994,3c0.552,0,1-0.448,1-1s-0.448-1-1-1c-1.15,0-2.08,0.29-2.7,0.92
	c-0.65,0.63-0.8,1.43-0.8,2.08v1.9c0,0.41-0.27,0.65-0.57,0.89l-0.55,0.43c-0.431,0.346-0.5,0.975-0.154,1.406
	C0.266,8.683,0.317,8.734,0.374,8.78c0.2,0.17,0.4,0.3,0.55,0.43c0.3,0.24,0.57,0.48,0.57,0.89V12
	C1.494,12.65,1.654,13.45,2.294,14.08z" />
  <path d="M4.708,10.776c-0.06-0.153-0.095-0.319-0.095-0.479c0-0.474,0.326-0.787,0.787-0.787c0.367,0,0.61,0.142,0.823,0.521
	c0.278,0.651,0.947,0.947,1.764,0.947c0.959,0,1.61-0.462,1.61-1.089c0-0.562-0.402-0.882-1.474-1.101L7.219,8.61
	c-1.705-0.337-2.54-1.155-2.54-2.428c0-1.563,1.362-2.599,3.262-2.599c1.563,0,2.741,0.657,3.12,1.77
	c0.042,0.118,0.065,0.243,0.065,0.396c0,0.426-0.308,0.716-0.764,0.716c-0.402,0-0.651-0.16-0.853-0.527
	C9.225,5.295,8.675,5.028,7.941,5.028c-0.882,0-1.468,0.415-1.468,1.042c0,0.527,0.408,0.853,1.421,1.054l0.9,0.184
	c1.812,0.361,2.593,1.089,2.593,2.386c0,1.669-1.309,2.724-3.44,2.724C6.182,12.417,5.052,11.712,4.708,10.776z" />
</svg>
