<svg xmlns="http://www.w3.org/2000/svg" viewBox="0 0 16 16" width="16" height="16" fill="context-fill"
    fill-opacity="context-fill-opacity">
    <path d="M4.644,9.184H1.937c-0.572,0-1.038,0.466-1.038,1.038v2.641c0,0.572,0.465,1.038,1.038,1.038h2.707
	c0.572,0,1.038-0.466,1.038-1.038v-2.641C5.682,9.649,5.216,9.184,4.644,9.184z" />
    <path d="M13.934,9.09h-2.706c-0.572,0-1.038,0.466-1.038,1.038v2.64c0,0.572,0.466,1.038,1.038,1.038h2.706
	c0.572,0,1.038-0.466,1.038-1.038v-2.64C14.972,9.556,14.506,9.09,13.934,9.09z" />
    <path d="M9.405,2.1H6.698c-0.572,0-1.038,0.466-1.038,1.038v2.64c0,0.572,0.465,1.038,1.038,1.038h2.707
	c0.572,0,1.038-0.466,1.038-1.038v-2.64C10.443,2.566,9.978,2.1,9.405,2.1z" />
    <g opacity="0.5">
        <path d="M14.735,3.175c-0.532,0-0.984,0.325-1.17,0.782h-3.122v1.82c0,0.047-0.021,0.088-0.027,0.134
		c0.837,0.88,1.228,2.161,1.407,3.178h0.906c-0.252-1.513-0.882-3.24-2.169-4.242h2.998c0.179,0.472,0.633,0.812,1.176,0.812
		C15.434,5.66,16,5.104,16,4.418C16,3.731,15.434,3.175,14.735,3.175z" />
        <path d="M2.441,4.848h3.024C4.152,5.87,3.519,7.649,3.277,9.184h0.907c0.176-1.056,0.58-2.437,1.489-3.343
		C5.672,5.819,5.661,5.8,5.661,5.778v-1.82H2.435C2.248,3.5,1.797,3.175,1.265,3.175C0.566,3.175,0,3.731,0,4.418
		C0,5.104,0.566,5.66,1.265,5.66C1.808,5.66,2.262,5.32,2.441,4.848z" />
    </g>
</svg>