<svg xmlns="http://www.w3.org/2000/svg" viewBox="0 0 96 96" height="16" width="16" fill="context-fill">
    <path
        d="m 6,42 v 30 c 0,12 6,18 18,18 H 72 C 84,90 90,84 90,72 V 42 c 0,0 0,-6 -6,-6 -6,0 -6,6 -6,6 V 78 H 18 V 42 c 0,0 0,-6 -6,-6 -6,0 -6,6 -6,6 z" />
    <path d="m 27,66 a 3,3 0 1 0 0,6 h 42 a 3,3 0 1 0 0,-6 z" />
    <path
        d="M 74.373047,-0.11328125 A 3.7138296,3.7138296 0 0 0 71.759766,0.86132812 L 48,22.027344 24.240234,0.86132812 A 3.7138296,3.7138296 0 1 0 19.300781,6.40625 l 26.228516,23.367188 a 3.7138296,3.7138296 0 0 0 4.941406,0 L 76.699219,6.40625 a 3.7138296,3.7138296 0 0 0 -2.326172,-6.51953125 z" />
</svg>