<svg xmlns="http://www.w3.org/2000/svg" viewBox="0 0 96 96" height="16" width="16" fill="context-fill">
    <path
        d="M 74.25,24 H 70.5 V 6 A 7.5,6 0 0 0 63,0 H 33 a 7.5,6 0 0 0 -7.5,6 v 18 h -3.75 a 3.75,3 0 0 0 0,6 h 52.5 a 3.75,3 0 1 0 0,-6 z" />
    <path id="path8" d="m 27,54 a 3,3 0 1 0 0,6 h 42 a 3,3 0 1 0 0,-6 z" />
    <path
        d="m 6,42 v 30 c 0,12 6,18 18,18 H 72 C 84,90 90,84 90,72 V 42 c 0,0 0,-6 -6,-6 -6,0 -6,6 -6,6 V 78 H 18 V 42 c 0,0 0,-6 -6,-6 -6,0 -6,6 -6,6 z" />
    <path d="m 27,66 a 3,3 0 1 0 0,6 h 42 a 3,3 0 1 0 0,-6 z" id="path3702" />
    <path d="m 27,42 a 3,3 0 1 0 0,6 h 42 a 3,3 0 1 0 0,-6 z" id="path832" />
</svg>