<!-- This Source Code Form is subject to the terms of the Creative Commons
   - Attribution-NonCommercial-ShareAlike International License, v. 4.0.
   - If a copy of the CC BY-NC-SA 4.0 was not distributed with this
   - file, You can obtain one at http://creativecommons.org/licenses/by-nc-sa/4.0/
   - or send a letter to Creative Commons, PO Box 1866, Mountain View, CA 94042, USA. -->

<svg xmlns="http://www.w3.org/2000/svg" width="16" height="16" viewBox="0 0 16 16" fill="context-fill"
    fill-opacity="context-fill-opacity">
    <path
        d="M13.718 12.439H4.596v-1.484a.41.41 0 00-.705-.29l-2.314 2.314a.41.41 0 000 .589l2.314 2.314a.415.415 0 00.705-.299v-1.484h9.122a.831.831 0 00.829-.829.832.832 0 00-.829-.831zM6.254 6.634v3.317c0 .456.373.829.829.829a.831.831 0 00.829-.829V1.659h1.659v8.292c0 .456.373.829.829.829a.831.831 0 00.829-.829V1.659h.829A.83.83 0 0012.059 0H6.395C4.662 0 3.12 1.269 2.954 2.994a3.315 3.315 0 003.3 3.64z" />
</svg>
