<svg xmlns="http://www.w3.org/2000/svg" viewBox="0 0 16 16">
    <path fill="context-fill" fill-opacity="context-fill-opacity"
        d="M7.597 14.936c.262.085.545.085.806 0 3.041-.976 5.255-4.18 5.255-7.602V4.973l-8.534 8.534a6.96 6.96 0 002.473 1.429zm6.207-13.404l-.005-.005a.875.875 0 00-1.237-.005l-.005.005-.794.794-3.268-1.225a1.37 1.37 0 00-.99-.007L3.261 2.681a1.424 1.424 0 00-.919 1.329v3.324a8.25 8.25 0 00.834 3.573l-.979.979a.875.875 0 00-.005 1.237l.005.005a.875.875 0 001.237.005l.005-.005L13.798 2.77a.875.875 0 00.006-1.238z" />
</svg>