<svg xmlns="http://www.w3.org/2000/svg" width="16" height="16" viewBox="1.5 1.5 21.5 21.5">
    <path fill="context-fill" fill-opacity="context-fill-opacity"
        d="M4 2a2 2 0 00-2 2v9a2 2 0 002 2h1v2l2 2h2v1a2 2 0 002 2h9a2 2 0 002-2v-9a2 2 0 00-2-2h-5V4a2 2 0 00-2-2H4zm0 2h9v5h-2c-.658 0-1.23.322-1.594.813-.161-.109-.296-.239-.437-.344A10.617 10.617 0 0010.75 7H12V6H9V5H8v1H5v1h1.125a.5.5 0 00-.094.5s.168.508.688 1.188c.188.246.45.52.75.812-1.145.974-2.125 1.406-2.125 1.406a.505.505 0 00.375.938s1.196-.49 2.531-1.656c.233.18.5.347.781.53-.013.093-.031.186-.031.282v2H4V4zm2.875 3h2.688a9.87 9.87 0 01-1.376 1.844 6.688 6.688 0 01-.687-.75c-.436-.57-.5-.875-.5-.875A.5.5 0 006.875 7zm7.969 5h1.312L19 20h-1.156l-.75-2.188h-3.25L13.125 20H12l2.844-8zm.594.906c-.125.475-1.282 4.094-1.282 4.094h2.656s-1.22-3.63-1.343-4.094h-.031zM7 15h2v2H7v-2z" />
</svg>