<!-- This Source Code Form is subject to the terms of the Mozilla Public
   - License, v. 2.0. If a copy of the MPL was not distributed with this
   - file, You can obtain one at http://mozilla.org/MPL/2.0/. -->
<svg xmlns="http://www.w3.org/2000/svg" viewBox="0 0 16 16" width="16" height="16" fill="context-fill"
    fill-opacity="context-fill-opacity">
    <path d="M8.924,4.062H1.729C1.326,4.062,1,3.736,1,3.333s0.326-0.729,0.729-0.729h7.194V4.062z M14.271,2.604H11.84V1.729
	C11.84,1.326,11.514,1,11.111,1c-0.403,0-0.729,0.326-0.729,0.729v0.875v1.458v0.875c0,0.403,0.326,0.729,0.729,0.729
	c0.403,0,0.729-0.326,0.729-0.729V4.062h2.431C14.674,4.062,15,3.736,15,3.333S14.674,2.604,14.271,2.604z" />
    <path d="M5.618,13.396H1.729C1.326,13.396,1,13.069,1,12.667s0.326-0.729,0.729-0.729h3.889V13.396z M14.271,11.938H8.535v-0.875
	c0-0.403-0.326-0.729-0.729-0.729c-0.403,0-0.729,0.326-0.729,0.729v0.875v1.458v0.875C7.076,14.674,7.403,15,7.806,15
	c0.403,0,0.729-0.326,0.729-0.729v-0.875h5.736c0.403,0,0.729-0.326,0.729-0.729S14.674,11.938,14.271,11.938z" />
    <path
        d="M15,8c0,0.403-0.326,0.729-0.729,0.729H7.076V7.271h7.194C14.674,7.271,15,7.597,15,8z M4.889,5.667
	c-0.403,0-0.729,0.326-0.729,0.729v0.875H1.729C1.326,7.271,1,7.597,1,8s0.326,0.729,0.729,0.729H4.16v0.875
	c0,0.403,0.326,0.729,0.729,0.729c0.403,0,0.729-0.326,0.729-0.729V8.729V7.271V6.396C5.618,5.993,5.292,5.667,4.889,5.667z" />
</svg>