<svg xmlns="http://www.w3.org/2000/svg" width="16" height="16">
    <path fill="context-fill" fill-opacity="context-fill-opacity"
        d="M1 12.667c0 .428.35.778.778.778h3.889v-1.556H1.778a.78.78 0 00-.778.778zm0-9.334c0 .428.35.778.778.778h7V2.556h-7A.78.78 0 001 3.333zm7.778 10.889v-.778h5.444c.428 0 .778-.35.778-.778s-.35-.778-.778-.778H8.778v-.778A.78.78 0 008 10.332a.78.78 0 00-.778.778v3.111c0 .429.35.779.778.779a.78.78 0 00.778-.778zM4.111 6.444v.778H1.778A.78.78 0 001 8c0 .428.35.778.778.778h2.333v.778c0 .428.35.778.778.778s.778-.35.778-.778V6.444c0-.428-.35-.778-.778-.778s-.778.351-.778.778zM15 8a.78.78 0 00-.778-.778h-7v1.556h7A.78.78 0 0015 8zm-3.889-2.333a.78.78 0 00.778-.778v-.778h2.333c.428 0 .778-.35.778-.778s-.35-.778-.778-.778h-2.333v-.777A.78.78 0 0011.111 1a.78.78 0 00-.778.778v3.111c0 .428.35.778.778.778z" />
</svg>