<svg xmlns="http://www.w3.org/2000/svg" width="16" height="16" viewBox="0 0 16 16" fill="context-fill"
	fill-opacity="context-fill-opacity">
	<path d="M14.707,1.293c-0.39-0.39-1.023-0.39-1.414,0L9.462,5.124L7.188,2.85L7.73,2.308c0.298-0.298,0.298-0.786,0-1.084
	c-0.298-0.298-0.786-0.298-1.084,0L1.224,6.645c-0.298,0.298-0.298,0.786,0,1.084c0.298,0.298,0.786,0.298,1.084,0L2.85,7.187
	l2.275,2.275l-3.831,3.831c-0.397,0.384-0.408,1.017-0.025,1.414c0.384,0.397,1.017,0.408,1.414,0.025
	c0.008-0.008,0.017-0.016,0.025-0.025l12-12C15.097,2.317,15.097,1.683,14.707,1.293z" />
	<path d="M14.777,13.693l-3.783-3.805l2.677-2.677c0.316-0.316,0.316-0.829,0-1.145c-0.316-0.316-0.829-0.316-1.145,0L6.081,12.51
	c-0.322,0.311-0.331,0.823-0.02,1.145c0.311,0.322,0.823,0.331,1.145,0.02c0.007-0.007,0.013-0.013,0.02-0.02l2.684-2.684
	l3.783,3.805c0.298,0.298,0.786,0.298,1.084,0C15.075,14.479,15.075,13.991,14.777,13.693z" />
</svg>