<svg xmlns="http://www.w3.org/2000/svg" width="16" height="16" viewBox="0 0 16 16" fill="context-fill"
	fill-opacity="context-fill-opacity">
	<path
		d="M16,8l-1.775-2.029l0.247-2.684l-2.625-0.596l-1.375-2.327L8,1.425L5.527,0.364l-1.375,2.32L1.527,3.273l0.247,2.691L0,8
	l1.775,2.029L1.527,12.72l2.625,0.596l1.375,2.32L8,14.567l2.473,1.062l1.375-2.32l2.625-0.596l-0.247-2.684L16,8z M6.095,10.916
	L4.364,9.171c-0.284-0.284-0.284-0.742,0-1.025l0.051-0.051c0.284-0.284,0.749-0.284,1.033,0l1.171,1.178l3.745-3.753
	c0.284-0.284,0.749-0.284,1.033,0l0.051,0.051c0.284,0.284,0.284,0.742,0,1.025l-4.305,4.32C6.844,11.2,6.385,11.2,6.095,10.916z" />
</svg>