<svg xmlns="http://www.w3.org/2000/svg" viewBox="0 0 16 16" width="16" height="16" fill="context-fill"
    fill-opacity="context-fill-opacity">
    <path
        d="M11.359,12.687L9.98,7.172C9.906,6.875,9.64,6.667,9.334,6.667H8.667v-2h2V3.333h-2V2h2V0.667h-2V0H7.334v2h-2v1.333h2
	v1.333h-2V6h2v0.667H6.667c-0.306,0-0.573,0.208-0.647,0.505l-1.379,5.515c-0.357,1.429,0.512,2.877,1.94,3.234
	C6.793,15.973,7.01,16,7.228,16h1.544c1.473,0,2.667-1.194,2.667-2.667C11.439,13.115,11.412,12.898,11.359,12.687z M8,14
	c-0.736,0-1.333-0.597-1.333-1.333c0-0.736,0.597-1.333,1.333-1.333s1.333,0.597,1.333,1.333C9.334,13.403,8.737,14,8,14z" />
</svg>
