<svg xmlns="http://www.w3.org/2000/svg" width="16" height="16" viewBox="0 0 377.343 377.343">
    <path fill="context-fill" fill-opacity="context-fill-opacity"
        d="M301.689 53.505H75.651c-10.876 0-19.725 8.843-19.725 19.713v230.904c0 10.878 8.843 19.727 19.725 19.727H301.69c10.873 0 19.722-8.843 19.722-19.727V73.218c-.006-10.87-8.85-19.713-19.723-19.713zM188.67 227.7H79.521v-12.728l60.921-111.861H84.756V75.026H188.29V90.38l-59.352 109.14h59.732v28.18zM338.677 0H38.662C19.094 0 3.226 15.869 3.226 35.434v306.462c0 19.581 15.869 35.447 35.437 35.447h300.02c19.568 0 35.436-15.866 35.436-35.447V35.434C374.117 15.869 358.25 0 338.677 0zm-3.296 304.122c0 18.572-15.113 33.691-33.691 33.691H75.651c-18.576 0-33.695-15.114-33.695-33.691V73.218c0-18.569 15.114-33.688 33.695-33.688H301.69c18.572 0 33.691 15.114 33.691 33.688v230.904z" />
</svg>